<?xml version="1.0" encoding="UTF-8"?>
<svg xmlns="http://www.w3.org/2000/svg" xmlns:xlink="http://www.w3.org/1999/xlink" width="756pt" height="360pt" viewBox="0 0 756 360" version="1.1">
<g id="surface14">
<rect x="0" y="0" width="756" height="360" style="fill:rgb(100%,100%,100%);fill-opacity:1;stroke:none;"/>
<path style="fill-rule:nonzero;fill:rgb(98.823529%,99.215686%,74.901961%);fill-opacity:1;stroke-width:0.426791;stroke-linecap:square;stroke-linejoin:miter;stroke:rgb(100%,100%,100%);stroke-opacity:1;stroke-miterlimit:10;" d="M 132.546875 343.636719 L 187.09375 343.636719 L 187.09375 289.089844 L 132.546875 289.089844 Z M 132.546875 343.636719 "/>
<path style="fill-rule:nonzero;fill:rgb(99.607843%,82.352941%,58.431373%);fill-opacity:1;stroke-width:0.426791;stroke-linecap:square;stroke-linejoin:miter;stroke:rgb(100%,100%,100%);stroke-opacity:1;stroke-miterlimit:10;" d="M 187.089844 343.636719 L 241.636719 343.636719 L 241.636719 289.089844 L 187.089844 289.089844 Z M 187.089844 343.636719 "/>
<path style="fill-rule:nonzero;fill:rgb(96.470588%,43.137255%,36.078431%);fill-opacity:1;stroke-width:0.426791;stroke-linecap:square;stroke-linejoin:miter;stroke:rgb(100%,100%,100%);stroke-opacity:1;stroke-miterlimit:10;" d="M 241.636719 343.636719 L 296.183594 343.636719 L 296.183594 289.089844 L 241.636719 289.089844 Z M 241.636719 343.636719 "/>
<path style="fill-rule:nonzero;fill:rgb(98.823529%,53.72549%,38.039216%);fill-opacity:1;stroke-width:0.426791;stroke-linecap:square;stroke-linejoin:miter;stroke:rgb(100%,100%,100%);stroke-opacity:1;stroke-miterlimit:10;" d="M 296.183594 343.636719 L 350.730469 343.636719 L 350.730469 289.089844 L 296.183594 289.089844 Z M 296.183594 343.636719 "/>
<path style="fill-rule:nonzero;fill:rgb(95.686275%,40.784314%,36.078431%);fill-opacity:1;stroke-width:0.426791;stroke-linecap:square;stroke-linejoin:miter;stroke:rgb(100%,100%,100%);stroke-opacity:1;stroke-miterlimit:10;" d="M 350.726562 343.636719 L 405.273438 343.636719 L 405.273438 289.089844 L 350.726562 289.089844 Z M 350.726562 343.636719 "/>
<path style="fill-rule:nonzero;fill:rgb(69.803922%,20.784314%,48.235294%);fill-opacity:1;stroke-width:0.426791;stroke-linecap:square;stroke-linejoin:miter;stroke:rgb(100%,100%,100%);stroke-opacity:1;stroke-miterlimit:10;" d="M 405.273438 343.636719 L 459.820312 343.636719 L 459.820312 289.089844 L 405.273438 289.089844 Z M 405.273438 343.636719 "/>
<path style="fill-rule:nonzero;fill:rgb(75.686275%,23.137255%,45.882353%);fill-opacity:1;stroke-width:0.426791;stroke-linecap:square;stroke-linejoin:miter;stroke:rgb(100%,100%,100%);stroke-opacity:1;stroke-miterlimit:10;" d="M 459.816406 343.636719 L 514.363281 343.636719 L 514.363281 289.089844 L 459.816406 289.089844 Z M 459.816406 343.636719 "/>
<path style="fill-rule:nonzero;fill:rgb(87.45098%,29.019608%,40.784314%);fill-opacity:1;stroke-width:0.426791;stroke-linecap:square;stroke-linejoin:miter;stroke:rgb(100%,100%,100%);stroke-opacity:1;stroke-miterlimit:10;" d="M 514.363281 343.636719 L 568.910156 343.636719 L 568.910156 289.089844 L 514.363281 289.089844 Z M 514.363281 343.636719 "/>
<path style="fill-rule:nonzero;fill:rgb(69.803922%,20.784314%,48.235294%);fill-opacity:1;stroke-width:0.426791;stroke-linecap:square;stroke-linejoin:miter;stroke:rgb(100%,100%,100%);stroke-opacity:1;stroke-miterlimit:10;" d="M 568.910156 343.636719 L 623.457031 343.636719 L 623.457031 289.089844 L 568.910156 289.089844 Z M 568.910156 343.636719 "/>
<path style="fill-rule:nonzero;fill:rgb(99.215686%,85.490196%,61.176471%);fill-opacity:1;stroke-width:0.426791;stroke-linecap:square;stroke-linejoin:miter;stroke:rgb(100%,100%,100%);stroke-opacity:1;stroke-miterlimit:10;" d="M 132.546875 289.089844 L 187.09375 289.089844 L 187.09375 234.542969 L 132.546875 234.542969 Z M 132.546875 289.089844 "/>
<path style="fill-rule:nonzero;fill:rgb(97.647059%,48.235294%,36.470588%);fill-opacity:1;stroke-width:0.426791;stroke-linecap:square;stroke-linejoin:miter;stroke:rgb(100%,100%,100%);stroke-opacity:1;stroke-miterlimit:10;" d="M 187.089844 289.089844 L 241.636719 289.089844 L 241.636719 234.542969 L 187.089844 234.542969 Z M 187.089844 289.089844 "/>
<path style="fill-rule:nonzero;fill:rgb(98.039216%,49.411765%,36.862745%);fill-opacity:1;stroke-width:0.426791;stroke-linecap:square;stroke-linejoin:miter;stroke:rgb(100%,100%,100%);stroke-opacity:1;stroke-miterlimit:10;" d="M 241.636719 289.089844 L 296.183594 289.089844 L 296.183594 234.542969 L 241.636719 234.542969 Z M 241.636719 289.089844 "/>
<path style="fill-rule:nonzero;fill:rgb(94.117647%,37.254902%,36.862745%);fill-opacity:1;stroke-width:0.426791;stroke-linecap:square;stroke-linejoin:miter;stroke:rgb(100%,100%,100%);stroke-opacity:1;stroke-miterlimit:10;" d="M 296.183594 289.089844 L 350.730469 289.089844 L 350.730469 234.542969 L 296.183594 234.542969 Z M 296.183594 289.089844 "/>
<path style="fill-rule:nonzero;fill:rgb(89.411765%,30.980392%,39.215686%);fill-opacity:1;stroke-width:0.426791;stroke-linecap:square;stroke-linejoin:miter;stroke:rgb(100%,100%,100%);stroke-opacity:1;stroke-miterlimit:10;" d="M 350.726562 289.089844 L 405.273438 289.089844 L 405.273438 234.542969 L 350.726562 234.542969 Z M 350.726562 289.089844 "/>
<path style="fill-rule:nonzero;fill:rgb(88.235294%,30.196078%,40%);fill-opacity:1;stroke-width:0.426791;stroke-linecap:square;stroke-linejoin:miter;stroke:rgb(100%,100%,100%);stroke-opacity:1;stroke-miterlimit:10;" d="M 405.273438 289.089844 L 459.820312 289.089844 L 459.820312 234.542969 L 405.273438 234.542969 Z M 405.273438 289.089844 "/>
<path style="fill-rule:nonzero;fill:rgb(47.843137%,13.72549%,50.980392%);fill-opacity:1;stroke-width:0.426791;stroke-linecap:square;stroke-linejoin:miter;stroke:rgb(100%,100%,100%);stroke-opacity:1;stroke-miterlimit:10;" d="M 459.816406 289.089844 L 514.363281 289.089844 L 514.363281 234.542969 L 459.816406 234.542969 Z M 459.816406 289.089844 "/>
<path style="fill-rule:nonzero;fill:rgb(54.117647%,16.078431%,50.588235%);fill-opacity:1;stroke-width:0.426791;stroke-linecap:square;stroke-linejoin:miter;stroke:rgb(100%,100%,100%);stroke-opacity:1;stroke-miterlimit:10;" d="M 514.363281 289.089844 L 568.910156 289.089844 L 568.910156 234.542969 L 514.363281 234.542969 Z M 514.363281 289.089844 "/>
<path style="fill-rule:nonzero;fill:rgb(76.078431%,23.137255%,45.882353%);fill-opacity:1;stroke-width:0.426791;stroke-linecap:square;stroke-linejoin:miter;stroke:rgb(100%,100%,100%);stroke-opacity:1;stroke-miterlimit:10;" d="M 568.910156 289.089844 L 623.457031 289.089844 L 623.457031 234.542969 L 568.910156 234.542969 Z M 568.910156 289.089844 "/>
<path style="fill-rule:nonzero;fill:rgb(98.823529%,56.470588%,39.607843%);fill-opacity:1;stroke-width:0.426791;stroke-linecap:square;stroke-linejoin:miter;stroke:rgb(100%,100%,100%);stroke-opacity:1;stroke-miterlimit:10;" d="M 132.546875 234.546875 L 187.09375 234.546875 L 187.09375 180 L 132.546875 180 Z M 132.546875 234.546875 "/>
<path style="fill-rule:nonzero;fill:rgb(99.607843%,61.960784%,42.745098%);fill-opacity:1;stroke-width:0.426791;stroke-linecap:square;stroke-linejoin:miter;stroke:rgb(100%,100%,100%);stroke-opacity:1;stroke-miterlimit:10;" d="M 187.089844 234.546875 L 241.636719 234.546875 L 241.636719 180 L 187.089844 180 Z M 187.089844 234.546875 "/>
<path style="fill-rule:nonzero;fill:rgb(99.215686%,59.215686%,40.784314%);fill-opacity:1;stroke-width:0.426791;stroke-linecap:square;stroke-linejoin:miter;stroke:rgb(100%,100%,100%);stroke-opacity:1;stroke-miterlimit:10;" d="M 241.636719 234.546875 L 296.183594 234.546875 L 296.183594 180 L 241.636719 180 Z M 241.636719 234.546875 "/>
<path style="fill-rule:nonzero;fill:rgb(92.54902%,34.509804%,37.647059%);fill-opacity:1;stroke-width:0.426791;stroke-linecap:square;stroke-linejoin:miter;stroke:rgb(100%,100%,100%);stroke-opacity:1;stroke-miterlimit:10;" d="M 296.183594 234.546875 L 350.730469 234.546875 L 350.730469 180 L 296.183594 180 Z M 296.183594 234.546875 "/>
<path style="fill-rule:nonzero;fill:rgb(92.54902%,34.901961%,37.647059%);fill-opacity:1;stroke-width:0.426791;stroke-linecap:square;stroke-linejoin:miter;stroke:rgb(100%,100%,100%);stroke-opacity:1;stroke-miterlimit:10;" d="M 350.726562 234.546875 L 405.273438 234.546875 L 405.273438 180 L 350.726562 180 Z M 350.726562 234.546875 "/>
<path style="fill-rule:nonzero;fill:rgb(80.784314%,25.098039%,43.921569%);fill-opacity:1;stroke-width:0.426791;stroke-linecap:square;stroke-linejoin:miter;stroke:rgb(100%,100%,100%);stroke-opacity:1;stroke-miterlimit:10;" d="M 405.273438 234.546875 L 459.820312 234.546875 L 459.820312 180 L 405.273438 180 Z M 405.273438 234.546875 "/>
<path style="fill-rule:nonzero;fill:rgb(69.019608%,20.784314%,48.235294%);fill-opacity:1;stroke-width:0.426791;stroke-linecap:square;stroke-linejoin:miter;stroke:rgb(100%,100%,100%);stroke-opacity:1;stroke-miterlimit:10;" d="M 459.816406 234.546875 L 514.363281 234.546875 L 514.363281 180 L 459.816406 180 Z M 459.816406 234.546875 "/>
<path style="fill-rule:nonzero;fill:rgb(72.54902%,21.568627%,47.45098%);fill-opacity:1;stroke-width:0.426791;stroke-linecap:square;stroke-linejoin:miter;stroke:rgb(100%,100%,100%);stroke-opacity:1;stroke-miterlimit:10;" d="M 514.363281 234.546875 L 568.910156 234.546875 L 568.910156 180 L 514.363281 180 Z M 514.363281 234.546875 "/>
<path style="fill-rule:nonzero;fill:rgb(29.411765%,6.666667%,47.843137%);fill-opacity:1;stroke-width:0.426791;stroke-linecap:square;stroke-linejoin:miter;stroke:rgb(100%,100%,100%);stroke-opacity:1;stroke-miterlimit:10;" d="M 568.910156 234.546875 L 623.457031 234.546875 L 623.457031 180 L 568.910156 180 Z M 568.910156 234.546875 "/>
<path style="fill-rule:nonzero;fill:rgb(98.431373%,52.54902%,38.039216%);fill-opacity:1;stroke-width:0.426791;stroke-linecap:square;stroke-linejoin:miter;stroke:rgb(100%,100%,100%);stroke-opacity:1;stroke-miterlimit:10;" d="M 132.546875 180 L 187.09375 180 L 187.09375 125.453125 L 132.546875 125.453125 Z M 132.546875 180 "/>
<path style="fill-rule:nonzero;fill:rgb(99.215686%,60.392157%,41.568627%);fill-opacity:1;stroke-width:0.426791;stroke-linecap:square;stroke-linejoin:miter;stroke:rgb(100%,100%,100%);stroke-opacity:1;stroke-miterlimit:10;" d="M 187.089844 180 L 241.636719 180 L 241.636719 125.453125 L 187.089844 125.453125 Z M 187.089844 180 "/>
<path style="fill-rule:nonzero;fill:rgb(75.686275%,23.137255%,45.882353%);fill-opacity:1;stroke-width:0.426791;stroke-linecap:square;stroke-linejoin:miter;stroke:rgb(100%,100%,100%);stroke-opacity:1;stroke-miterlimit:10;" d="M 241.636719 180 L 296.183594 180 L 296.183594 125.453125 L 241.636719 125.453125 Z M 241.636719 180 "/>
<path style="fill-rule:nonzero;fill:rgb(76.470588%,23.137255%,45.882353%);fill-opacity:1;stroke-width:0.426791;stroke-linecap:square;stroke-linejoin:miter;stroke:rgb(100%,100%,100%);stroke-opacity:1;stroke-miterlimit:10;" d="M 296.183594 180 L 350.730469 180 L 350.730469 125.453125 L 296.183594 125.453125 Z M 296.183594 180 "/>
<path style="fill-rule:nonzero;fill:rgb(75.294118%,22.745098%,46.27451%);fill-opacity:1;stroke-width:0.426791;stroke-linecap:square;stroke-linejoin:miter;stroke:rgb(100%,100%,100%);stroke-opacity:1;stroke-miterlimit:10;" d="M 350.726562 180 L 405.273438 180 L 405.273438 125.453125 L 350.726562 125.453125 Z M 350.726562 180 "/>
<path style="fill-rule:nonzero;fill:rgb(49.019608%,14.117647%,50.980392%);fill-opacity:1;stroke-width:0.426791;stroke-linecap:square;stroke-linejoin:miter;stroke:rgb(100%,100%,100%);stroke-opacity:1;stroke-miterlimit:10;" d="M 405.273438 180 L 459.820312 180 L 459.820312 125.453125 L 405.273438 125.453125 Z M 405.273438 180 "/>
<path style="fill-rule:nonzero;fill:rgb(39.215686%,10.196078%,50.196078%);fill-opacity:1;stroke-width:0.426791;stroke-linecap:square;stroke-linejoin:miter;stroke:rgb(100%,100%,100%);stroke-opacity:1;stroke-miterlimit:10;" d="M 459.816406 180 L 514.363281 180 L 514.363281 125.453125 L 459.816406 125.453125 Z M 459.816406 180 "/>
<path style="fill-rule:nonzero;fill:rgb(29.803922%,6.666667%,47.843137%);fill-opacity:1;stroke-width:0.426791;stroke-linecap:square;stroke-linejoin:miter;stroke:rgb(100%,100%,100%);stroke-opacity:1;stroke-miterlimit:10;" d="M 514.363281 180 L 568.910156 180 L 568.910156 125.453125 L 514.363281 125.453125 Z M 514.363281 180 "/>
<path style="fill-rule:nonzero;fill:rgb(20.392157%,6.27451%,41.176471%);fill-opacity:1;stroke-width:0.426791;stroke-linecap:square;stroke-linejoin:miter;stroke:rgb(100%,100%,100%);stroke-opacity:1;stroke-miterlimit:10;" d="M 568.910156 180 L 623.457031 180 L 623.457031 125.453125 L 568.910156 125.453125 Z M 568.910156 180 "/>
<path style="fill-rule:nonzero;fill:rgb(92.941176%,35.294118%,37.254902%);fill-opacity:1;stroke-width:0.426791;stroke-linecap:square;stroke-linejoin:miter;stroke:rgb(100%,100%,100%);stroke-opacity:1;stroke-miterlimit:10;" d="M 132.546875 125.453125 L 187.09375 125.453125 L 187.09375 70.90625 L 132.546875 70.90625 Z M 132.546875 125.453125 "/>
<path style="fill-rule:nonzero;fill:rgb(91.372549%,32.941176%,38.431373%);fill-opacity:1;stroke-width:0.426791;stroke-linecap:square;stroke-linejoin:miter;stroke:rgb(100%,100%,100%);stroke-opacity:1;stroke-miterlimit:10;" d="M 187.089844 125.453125 L 241.636719 125.453125 L 241.636719 70.90625 L 187.089844 70.90625 Z M 187.089844 125.453125 "/>
<path style="fill-rule:nonzero;fill:rgb(85.490196%,27.45098%,41.960784%);fill-opacity:1;stroke-width:0.426791;stroke-linecap:square;stroke-linejoin:miter;stroke:rgb(100%,100%,100%);stroke-opacity:1;stroke-miterlimit:10;" d="M 241.636719 125.453125 L 296.183594 125.453125 L 296.183594 70.90625 L 241.636719 70.90625 Z M 241.636719 125.453125 "/>
<path style="fill-rule:nonzero;fill:rgb(76.470588%,23.137255%,45.882353%);fill-opacity:1;stroke-width:0.426791;stroke-linecap:square;stroke-linejoin:miter;stroke:rgb(100%,100%,100%);stroke-opacity:1;stroke-miterlimit:10;" d="M 296.183594 125.453125 L 350.730469 125.453125 L 350.730469 70.90625 L 296.183594 70.90625 Z M 296.183594 125.453125 "/>
<path style="fill-rule:nonzero;fill:rgb(69.803922%,20.784314%,48.235294%);fill-opacity:1;stroke-width:0.426791;stroke-linecap:square;stroke-linejoin:miter;stroke:rgb(100%,100%,100%);stroke-opacity:1;stroke-miterlimit:10;" d="M 350.726562 125.453125 L 405.273438 125.453125 L 405.273438 70.90625 L 350.726562 70.90625 Z M 350.726562 125.453125 "/>
<path style="fill-rule:nonzero;fill:rgb(53.333333%,15.294118%,50.588235%);fill-opacity:1;stroke-width:0.426791;stroke-linecap:square;stroke-linejoin:miter;stroke:rgb(100%,100%,100%);stroke-opacity:1;stroke-miterlimit:10;" d="M 405.273438 125.453125 L 459.820312 125.453125 L 459.820312 70.90625 L 405.273438 70.90625 Z M 405.273438 125.453125 "/>
<path style="fill-rule:nonzero;fill:rgb(56.470588%,16.470588%,50.588235%);fill-opacity:1;stroke-width:0.426791;stroke-linecap:square;stroke-linejoin:miter;stroke:rgb(100%,100%,100%);stroke-opacity:1;stroke-miterlimit:10;" d="M 459.816406 125.453125 L 514.363281 125.453125 L 514.363281 70.90625 L 459.816406 70.90625 Z M 459.816406 125.453125 "/>
<path style="fill-rule:nonzero;fill:rgb(4.313725%,3.529412%,13.72549%);fill-opacity:1;stroke-width:0.426791;stroke-linecap:square;stroke-linejoin:miter;stroke:rgb(100%,100%,100%);stroke-opacity:1;stroke-miterlimit:10;" d="M 514.363281 125.453125 L 568.910156 125.453125 L 568.910156 70.90625 L 514.363281 70.90625 Z M 514.363281 125.453125 "/>
<path style="fill-rule:nonzero;fill:rgb(5.490196%,4.313725%,16.862745%);fill-opacity:1;stroke-width:0.426791;stroke-linecap:square;stroke-linejoin:miter;stroke:rgb(100%,100%,100%);stroke-opacity:1;stroke-miterlimit:10;" d="M 568.910156 125.453125 L 623.457031 125.453125 L 623.457031 70.90625 L 568.910156 70.90625 Z M 568.910156 125.453125 "/>
<path style="fill-rule:nonzero;fill:rgb(97.647059%,47.45098%,36.470588%);fill-opacity:1;stroke-width:0.426791;stroke-linecap:square;stroke-linejoin:miter;stroke:rgb(100%,100%,100%);stroke-opacity:1;stroke-miterlimit:10;" d="M 132.546875 70.910156 L 187.09375 70.910156 L 187.09375 16.363281 L 132.546875 16.363281 Z M 132.546875 70.910156 "/>
<path style="fill-rule:nonzero;fill:rgb(86.666667%,28.235294%,41.176471%);fill-opacity:1;stroke-width:0.426791;stroke-linecap:square;stroke-linejoin:miter;stroke:rgb(100%,100%,100%);stroke-opacity:1;stroke-miterlimit:10;" d="M 187.089844 70.910156 L 241.636719 70.910156 L 241.636719 16.363281 L 187.089844 16.363281 Z M 187.089844 70.910156 "/>
<path style="fill-rule:nonzero;fill:rgb(77.254902%,23.529412%,45.490196%);fill-opacity:1;stroke-width:0.426791;stroke-linecap:square;stroke-linejoin:miter;stroke:rgb(100%,100%,100%);stroke-opacity:1;stroke-miterlimit:10;" d="M 241.636719 70.910156 L 296.183594 70.910156 L 296.183594 16.363281 L 241.636719 16.363281 Z M 241.636719 70.910156 "/>
<path style="fill-rule:nonzero;fill:rgb(50.588235%,14.509804%,50.588235%);fill-opacity:1;stroke-width:0.426791;stroke-linecap:square;stroke-linejoin:miter;stroke:rgb(100%,100%,100%);stroke-opacity:1;stroke-miterlimit:10;" d="M 296.183594 70.910156 L 350.730469 70.910156 L 350.730469 16.363281 L 296.183594 16.363281 Z M 296.183594 70.910156 "/>
<path style="fill-rule:nonzero;fill:rgb(51.372549%,14.901961%,50.588235%);fill-opacity:1;stroke-width:0.426791;stroke-linecap:square;stroke-linejoin:miter;stroke:rgb(100%,100%,100%);stroke-opacity:1;stroke-miterlimit:10;" d="M 350.726562 70.910156 L 405.273438 70.910156 L 405.273438 16.363281 L 350.726562 16.363281 Z M 350.726562 70.910156 "/>
<path style="fill-rule:nonzero;fill:rgb(36.862745%,9.411765%,49.803922%);fill-opacity:1;stroke-width:0.426791;stroke-linecap:square;stroke-linejoin:miter;stroke:rgb(100%,100%,100%);stroke-opacity:1;stroke-miterlimit:10;" d="M 405.273438 70.910156 L 459.820312 70.910156 L 459.820312 16.363281 L 405.273438 16.363281 Z M 405.273438 70.910156 "/>
<path style="fill-rule:nonzero;fill:rgb(30.588235%,6.666667%,48.235294%);fill-opacity:1;stroke-width:0.426791;stroke-linecap:square;stroke-linejoin:miter;stroke:rgb(100%,100%,100%);stroke-opacity:1;stroke-miterlimit:10;" d="M 459.816406 70.910156 L 514.363281 70.910156 L 514.363281 16.363281 L 459.816406 16.363281 Z M 459.816406 70.910156 "/>
<path style="fill-rule:nonzero;fill:rgb(19.607843%,6.27451%,40%);fill-opacity:1;stroke-width:0.426791;stroke-linecap:square;stroke-linejoin:miter;stroke:rgb(100%,100%,100%);stroke-opacity:1;stroke-miterlimit:10;" d="M 514.363281 70.910156 L 568.910156 70.910156 L 568.910156 16.363281 L 514.363281 16.363281 Z M 514.363281 70.910156 "/>
<path style="fill-rule:nonzero;fill:rgb(0%,0%,1.568627%);fill-opacity:1;stroke-width:0.426791;stroke-linecap:square;stroke-linejoin:miter;stroke:rgb(100%,100%,100%);stroke-opacity:1;stroke-miterlimit:10;" d="M 568.910156 70.910156 L 623.457031 70.910156 L 623.457031 16.363281 L 568.910156 16.363281 Z M 568.910156 70.910156 "/>
</g>
</svg>
