<?xml version="1.0" encoding="UTF-8"?>
<svg xmlns="http://www.w3.org/2000/svg" xmlns:xlink="http://www.w3.org/1999/xlink" width="756pt" height="432pt" viewBox="0 0 756 432" version="1.1">
<g id="surface134">
<rect x="0" y="0" width="756" height="432" style="fill:rgb(100%,100%,100%);fill-opacity:1;stroke:none;"/>
<path style="fill:none;stroke-width:1.066978;stroke-linecap:butt;stroke-linejoin:round;stroke:rgb(80%,73.333333%,41.176471%);stroke-opacity:0.8;stroke-miterlimit:10;" d="M 600.804688 117.59375 L 600.804688 288.0625 "/>
<path style="fill:none;stroke-width:1.066978;stroke-linecap:butt;stroke-linejoin:round;stroke:rgb(98.823529%,89.019608%,27.843137%);stroke-opacity:0.8;stroke-miterlimit:10;" d="M 602.957031 223.625 L 602.957031 288.988281 "/>
<path style="fill:none;stroke-width:1.066978;stroke-linecap:butt;stroke-linejoin:round;stroke:rgb(58.823529%,56.470588%,47.058824%);stroke-opacity:0.8;stroke-miterlimit:10;" d="M 190.496094 353.617188 L 190.496094 111.675781 "/>
<path style="fill:none;stroke-width:1.066978;stroke-linecap:butt;stroke-linejoin:round;stroke:rgb(100%,91.764706%,27.45098%);stroke-opacity:0.8;stroke-miterlimit:10;" d="M 418.597656 198.398438 L 418.597656 209.734375 "/>
<path style="fill:none;stroke-width:1.066978;stroke-linecap:butt;stroke-linejoin:round;stroke:rgb(91.372549%,82.745098%,34.509804%);stroke-opacity:0.8;stroke-miterlimit:10;" d="M 359.765625 302.257812 L 359.765625 184.441406 "/>
<path style="fill:none;stroke-width:1.066978;stroke-linecap:butt;stroke-linejoin:round;stroke:rgb(100%,89.803922%,26.666667%);stroke-opacity:0.8;stroke-miterlimit:10;" d="M 397.265625 256.257812 L 397.265625 200.5625 "/>
<path style="fill:none;stroke-width:1.066978;stroke-linecap:butt;stroke-linejoin:round;stroke:rgb(100%,91.372549%,26.666667%);stroke-opacity:0.8;stroke-miterlimit:10;" d="M 484.960938 216.878906 L 484.960938 238.261719 "/>
<path style="fill:none;stroke-width:1.066978;stroke-linecap:butt;stroke-linejoin:round;stroke:rgb(100%,90.980392%,26.27451%);stroke-opacity:0.8;stroke-miterlimit:10;" d="M 521.007812 284.050781 L 521.007812 253.757812 "/>
<path style="fill:none;stroke-width:1.066978;stroke-linecap:butt;stroke-linejoin:round;stroke:rgb(100%,91.372549%,27.058824%);stroke-opacity:0.8;stroke-miterlimit:10;" d="M 465.9375 213.054688 L 465.9375 230.085938 "/>
<path style="fill:none;stroke-width:1.066978;stroke-linecap:butt;stroke-linejoin:round;stroke:rgb(88.627451%,80.392157%,36.078431%);stroke-opacity:0.8;stroke-miterlimit:10;" d="M 348.382812 312.222656 L 348.382812 179.546875 "/>
<path style="fill:none;stroke-width:1.066978;stroke-linecap:butt;stroke-linejoin:round;stroke:rgb(89.803922%,81.568627%,35.294118%);stroke-opacity:0.8;stroke-miterlimit:10;" d="M 637.246094 178.1875 L 637.246094 303.726562 "/>
<path style="fill:none;stroke-width:1.066978;stroke-linecap:butt;stroke-linejoin:round;stroke:rgb(97.254902%,87.45098%,29.411765%);stroke-opacity:0.8;stroke-miterlimit:10;" d="M 625.191406 218.289062 L 625.191406 298.542969 "/>
<path style="fill:none;stroke-width:1.066978;stroke-linecap:butt;stroke-linejoin:round;stroke:rgb(100%,89.803922%,26.666667%);stroke-opacity:0.8;stroke-miterlimit:10;" d="M 404.191406 259.863281 L 404.191406 203.539062 "/>
<path style="fill:none;stroke-width:1.066978;stroke-linecap:butt;stroke-linejoin:round;stroke:rgb(62.352941%,59.215686%,46.666667%);stroke-opacity:0.8;stroke-miterlimit:10;" d="M 721.105469 109.59375 L 721.105469 339.777344 "/>
<path style="fill:none;stroke-width:1.066978;stroke-linecap:butt;stroke-linejoin:round;stroke:rgb(62.745098%,59.607843%,46.666667%);stroke-opacity:0.8;stroke-miterlimit:10;" d="M 104.398438 303.765625 L 104.398438 74.664062 "/>
<path style="fill:none;stroke-width:1.066978;stroke-linecap:butt;stroke-linejoin:round;stroke:rgb(100%,91.764706%,27.45098%);stroke-opacity:0.8;stroke-miterlimit:10;" d="M 513.304688 240.160156 L 513.304688 250.445312 "/>
<path style="fill:none;stroke-width:1.066978;stroke-linecap:butt;stroke-linejoin:round;stroke:rgb(100%,91.764706%,27.45098%);stroke-opacity:0.8;stroke-miterlimit:10;" d="M 448.496094 210.566406 L 448.496094 222.585938 "/>
<path style="fill:none;stroke-width:1.066978;stroke-linecap:butt;stroke-linejoin:round;stroke:rgb(88.627451%,80.392157%,36.078431%);stroke-opacity:0.8;stroke-miterlimit:10;" d="M 255.910156 271.472656 L 255.910156 139.796875 "/>
<path style="fill:none;stroke-width:1.066978;stroke-linecap:butt;stroke-linejoin:round;stroke:rgb(100%,89.803922%,26.666667%);stroke-opacity:0.8;stroke-miterlimit:10;" d="M 592.398438 228.300781 L 592.398438 284.449219 "/>
<path style="fill:none;stroke-width:1.066978;stroke-linecap:butt;stroke-linejoin:round;stroke:rgb(76.470588%,70.588235%,42.745098%);stroke-opacity:0.8;stroke-miterlimit:10;" d="M 260.03125 324.945312 L 260.03125 141.566406 "/>
<path style="fill:none;stroke-width:1.066978;stroke-linecap:butt;stroke-linejoin:round;stroke:rgb(100%,90.196078%,25.882353%);stroke-opacity:0.8;stroke-miterlimit:10;" d="M 381.105469 242.671875 L 381.105469 193.617188 "/>
<path style="fill:none;stroke-width:1.066978;stroke-linecap:butt;stroke-linejoin:round;stroke:rgb(72.941176%,67.843137%,43.921569%);stroke-opacity:0.8;stroke-miterlimit:10;" d="M 699.035156 134.921875 L 699.035156 330.289062 "/>
<path style="fill:none;stroke-width:1.066978;stroke-linecap:butt;stroke-linejoin:round;stroke:rgb(71.764706%,66.666667%,44.313725%);stroke-opacity:0.8;stroke-miterlimit:10;" d="M 230.246094 328.308594 L 230.246094 128.761719 "/>
<path style="fill:none;stroke-width:1.066978;stroke-linecap:butt;stroke-linejoin:round;stroke:rgb(64.705882%,61.176471%,46.27451%);stroke-opacity:0.8;stroke-miterlimit:10;" d="M 124.933594 306.117188 L 124.933594 83.488281 "/>
<path style="fill:none;stroke-width:1.066978;stroke-linecap:butt;stroke-linejoin:round;stroke:rgb(100%,91.372549%,26.666667%);stroke-opacity:0.8;stroke-miterlimit:10;" d="M 554.160156 245.277344 L 554.160156 268.007812 "/>
<path style="fill:none;stroke-width:1.066978;stroke-linecap:butt;stroke-linejoin:round;stroke:rgb(100%,91.764706%,27.45098%);stroke-opacity:0.8;stroke-miterlimit:10;" d="M 582.066406 273.328125 L 582.066406 280.007812 "/>
<path style="fill:none;stroke-width:1.066978;stroke-linecap:butt;stroke-linejoin:round;stroke:rgb(76.470588%,70.588235%,42.745098%);stroke-opacity:0.8;stroke-miterlimit:10;" d="M 208.804688 302.023438 L 208.804688 119.542969 "/>
<path style="fill:none;stroke-width:1.066978;stroke-linecap:butt;stroke-linejoin:round;stroke:rgb(100%,90.196078%,26.27451%);stroke-opacity:0.8;stroke-miterlimit:10;" d="M 377.507812 241.800781 L 377.507812 192.070312 "/>
<path style="fill:none;stroke-width:1.066978;stroke-linecap:butt;stroke-linejoin:round;stroke:rgb(74.901961%,69.019608%,43.137255%);stroke-opacity:0.8;stroke-miterlimit:10;" d="M 215.101562 311.773438 L 215.101562 122.253906 "/>
<path style="fill:none;stroke-width:1.066978;stroke-linecap:butt;stroke-linejoin:round;stroke:rgb(100%,91.764706%,27.45098%);stroke-opacity:0.8;stroke-miterlimit:10;" d="M 584.070312 279.722656 L 584.070312 280.867188 "/>
<path style="fill:none;stroke-width:1.066978;stroke-linecap:butt;stroke-linejoin:round;stroke:rgb(76.470588%,70.588235%,42.745098%);stroke-opacity:0.8;stroke-miterlimit:10;" d="M 258.8125 323.953125 L 258.8125 141.042969 "/>
<path style="fill:none;stroke-width:1.066978;stroke-linecap:butt;stroke-linejoin:round;stroke:rgb(100%,91.764706%,27.058824%);stroke-opacity:0.8;stroke-miterlimit:10;" d="M 452.257812 240.636719 L 452.257812 224.203125 "/>
<path style="fill:none;stroke-width:1.066978;stroke-linecap:butt;stroke-linejoin:round;stroke:rgb(89.411765%,81.176471%,35.686275%);stroke-opacity:0.8;stroke-miterlimit:10;" d="M 362.535156 312.929688 L 362.535156 185.632812 "/>
<path style="fill:none;stroke-width:1.066978;stroke-linecap:butt;stroke-linejoin:round;stroke:rgb(100%,91.372549%,26.666667%);stroke-opacity:0.8;stroke-miterlimit:10;" d="M 546.160156 241.507812 L 546.160156 264.570312 "/>
<path style="fill:none;stroke-width:1.066978;stroke-linecap:butt;stroke-linejoin:round;stroke:rgb(92.54902%,83.529412%,33.333333%);stroke-opacity:0.8;stroke-miterlimit:10;" d="M 366.714844 297.113281 L 366.714844 187.429688 "/>
<path style="fill:none;stroke-width:1.066978;stroke-linecap:butt;stroke-linejoin:round;stroke:rgb(100%,90.196078%,25.882353%);stroke-opacity:0.8;stroke-miterlimit:10;" d="M 522.335938 303.523438 L 522.335938 254.328125 "/>
<path style="fill:none;stroke-width:1.066978;stroke-linecap:butt;stroke-linejoin:round;stroke:rgb(76.078431%,70.196078%,42.745098%);stroke-opacity:0.8;stroke-miterlimit:10;" d="M 295.785156 341.566406 L 295.785156 156.9375 "/>
<path style="fill:none;stroke-width:1.066978;stroke-linecap:butt;stroke-linejoin:round;stroke:rgb(74.509804%,68.627451%,43.529412%);stroke-opacity:0.8;stroke-miterlimit:10;" d="M 264.300781 334.195312 L 264.300781 143.402344 "/>
<path style="fill:none;stroke-width:1.066978;stroke-linecap:butt;stroke-linejoin:round;stroke:rgb(84.705882%,77.254902%,38.823529%);stroke-opacity:0.8;stroke-miterlimit:10;" d="M 281.34375 301.125 L 281.34375 150.730469 "/>
<path style="fill:none;stroke-width:1.066978;stroke-linecap:butt;stroke-linejoin:round;stroke:rgb(100%,90.588235%,25.882353%);stroke-opacity:0.8;stroke-miterlimit:10;" d="M 397.089844 243.4375 L 397.089844 200.488281 "/>
<path style="fill:none;stroke-width:1.066978;stroke-linecap:butt;stroke-linejoin:round;stroke:rgb(94.117647%,84.705882%,32.156863%);stroke-opacity:0.8;stroke-miterlimit:10;" d="M 621.269531 196.167969 L 621.269531 296.859375 "/>
<path style="fill:none;stroke-width:1.066978;stroke-linecap:butt;stroke-linejoin:round;stroke:rgb(100%,91.372549%,27.058824%);stroke-opacity:0.8;stroke-miterlimit:10;" d="M 468.957031 249.875 L 468.957031 231.382812 "/>
<path style="fill:none;stroke-width:1.066978;stroke-linecap:butt;stroke-linejoin:round;stroke:rgb(98.823529%,89.019608%,27.843137%);stroke-opacity:0.8;stroke-miterlimit:10;" d="M 582.707031 345.386719 L 582.707031 280.28125 "/>
<path style="fill:none;stroke-width:1.066978;stroke-linecap:butt;stroke-linejoin:round;stroke:rgb(93.72549%,84.313725%,32.54902%);stroke-opacity:0.8;stroke-miterlimit:10;" d="M 355.890625 287.578125 L 355.890625 182.777344 "/>
<path style="fill:none;stroke-width:1.066978;stroke-linecap:butt;stroke-linejoin:round;stroke:rgb(100%,89.803922%,26.666667%);stroke-opacity:0.8;stroke-miterlimit:10;" d="M 575.054688 332.917969 L 575.054688 276.992188 "/>
<path style="fill:none;stroke-width:1.066978;stroke-linecap:butt;stroke-linejoin:round;stroke:rgb(66.666667%,62.352941%,45.882353%);stroke-opacity:0.8;stroke-miterlimit:10;" d="M 596.445312 69.203125 L 596.445312 286.1875 "/>
<path style="fill:none;stroke-width:1.066978;stroke-linecap:butt;stroke-linejoin:round;stroke:rgb(89.411765%,81.176471%,35.686275%);stroke-opacity:0.8;stroke-miterlimit:10;" d="M 691.625 200.363281 L 691.625 327.105469 "/>
<path style="fill:none;stroke-width:1.066978;stroke-linecap:butt;stroke-linejoin:round;stroke:rgb(78.823529%,72.54902%,41.568627%);stroke-opacity:0.8;stroke-miterlimit:10;" d="M 700.261719 157.046875 L 700.261719 330.816406 "/>
<path style="fill:none;stroke-width:1.066978;stroke-linecap:butt;stroke-linejoin:round;stroke:rgb(90.196078%,81.960784%,34.901961%);stroke-opacity:0.8;stroke-miterlimit:10;" d="M 254.511719 261.335938 L 254.511719 139.195312 "/>
<path style="fill:none;stroke-width:1.066978;stroke-linecap:butt;stroke-linejoin:round;stroke:rgb(100%,90.588235%,25.882353%);stroke-opacity:0.8;stroke-miterlimit:10;" d="M 429.265625 254.507812 L 429.265625 214.320312 "/>
<path style="fill:none;stroke-width:1.066978;stroke-linecap:butt;stroke-linejoin:round;stroke:rgb(100%,91.764706%,27.45098%);stroke-opacity:0.8;stroke-miterlimit:10;" d="M 456.292969 226.449219 L 456.292969 225.9375 "/>
<path style="fill:none;stroke-width:1.066978;stroke-linecap:butt;stroke-linejoin:round;stroke:rgb(100%,91.764706%,27.45098%);stroke-opacity:0.8;stroke-miterlimit:10;" d="M 363.933594 176.109375 L 363.933594 186.234375 "/>
<path style="fill:none;stroke-width:1.066978;stroke-linecap:butt;stroke-linejoin:round;stroke:rgb(89.803922%,81.568627%,35.294118%);stroke-opacity:0.8;stroke-miterlimit:10;" d="M 363.8125 310.363281 L 363.8125 186.183594 "/>
<path style="fill:none;stroke-width:1.066978;stroke-linecap:butt;stroke-linejoin:round;stroke:rgb(95.294118%,85.882353%,30.980392%);stroke-opacity:0.8;stroke-miterlimit:10;" d="M 558.027344 175.519531 L 558.027344 269.671875 "/>
<path style="fill:none;stroke-width:1.066978;stroke-linecap:butt;stroke-linejoin:round;stroke:rgb(100%,91.372549%,26.666667%);stroke-opacity:0.8;stroke-miterlimit:10;" d="M 647.125 280.480469 L 647.125 307.972656 "/>
<path style="fill:none;stroke-width:1.066978;stroke-linecap:butt;stroke-linejoin:round;stroke:rgb(98.039216%,88.235294%,28.627451%);stroke-opacity:0.8;stroke-miterlimit:10;" d="M 381.8125 264.371094 L 381.8125 193.917969 "/>
<path style="fill:none;stroke-width:1.066978;stroke-linecap:butt;stroke-linejoin:round;stroke:rgb(100%,90.196078%,25.882353%);stroke-opacity:0.8;stroke-miterlimit:10;" d="M 314.054688 211.929688 L 314.054688 164.792969 "/>
<path style="fill:none;stroke-width:1.066978;stroke-linecap:butt;stroke-linejoin:round;stroke:rgb(100%,89.803922%,26.666667%);stroke-opacity:0.8;stroke-miterlimit:10;" d="M 506.824219 195.097656 L 506.824219 247.660156 "/>
<path style="fill:none;stroke-width:1.066978;stroke-linecap:butt;stroke-linejoin:round;stroke:rgb(100%,91.372549%,26.666667%);stroke-opacity:0.8;stroke-miterlimit:10;" d="M 417.539062 236.460938 L 417.539062 209.277344 "/>
<path style="fill:none;stroke-width:1.066978;stroke-linecap:butt;stroke-linejoin:round;stroke:rgb(94.117647%,84.705882%,32.156863%);stroke-opacity:0.8;stroke-miterlimit:10;" d="M 292.015625 257.554688 L 292.015625 155.316406 "/>
<path style="fill:none;stroke-width:1.066978;stroke-linecap:butt;stroke-linejoin:round;stroke:rgb(100%,91.372549%,26.666667%);stroke-opacity:0.8;stroke-miterlimit:10;" d="M 385.175781 168.460938 L 385.175781 195.367188 "/>
<path style="fill:none;stroke-width:1.066978;stroke-linecap:butt;stroke-linejoin:round;stroke:rgb(100%,91.372549%,26.666667%);stroke-opacity:0.8;stroke-miterlimit:10;" d="M 508.59375 274.453125 L 508.59375 248.421875 "/>
<path style="fill:none;stroke-width:1.066978;stroke-linecap:butt;stroke-linejoin:round;stroke:rgb(97.254902%,87.45098%,29.411765%);stroke-opacity:0.8;stroke-miterlimit:10;" d="M 448.757812 301.382812 L 448.757812 222.699219 "/>
<path style="fill:none;stroke-width:1.066978;stroke-linecap:butt;stroke-linejoin:round;stroke:rgb(94.117647%,84.705882%,32.156863%);stroke-opacity:0.8;stroke-miterlimit:10;" d="M 299.542969 259.460938 L 299.542969 158.550781 "/>
<path style="fill:none;stroke-width:1.066978;stroke-linecap:butt;stroke-linejoin:round;stroke:rgb(98.039216%,88.235294%,28.627451%);stroke-opacity:0.8;stroke-miterlimit:10;" d="M 432.59375 287.339844 L 432.59375 215.75 "/>
<path style="fill:none;stroke-width:1.066978;stroke-linecap:butt;stroke-linejoin:round;stroke:rgb(100%,91.372549%,27.058824%);stroke-opacity:0.8;stroke-miterlimit:10;" d="M 486.671875 258.03125 L 486.671875 238.996094 "/>
<path style="fill:none;stroke-width:1.066978;stroke-linecap:butt;stroke-linejoin:round;stroke:rgb(87.058824%,79.215686%,37.254902%);stroke-opacity:0.8;stroke-miterlimit:10;" d="M 243.492188 272.742188 L 243.492188 134.457031 "/>
<path style="fill:none;stroke-width:1.066978;stroke-linecap:butt;stroke-linejoin:round;stroke:rgb(100%,90.588235%,25.882353%);stroke-opacity:0.8;stroke-miterlimit:10;" d="M 495.636719 200.035156 L 495.636719 242.851562 "/>
<path style="fill:none;stroke-width:1.066978;stroke-linecap:butt;stroke-linejoin:round;stroke:rgb(70.196078%,65.490196%,44.705882%);stroke-opacity:0.8;stroke-miterlimit:10;" d="M 285.339844 357.117188 L 285.339844 152.445312 "/>
<path style="fill:none;stroke-width:1.066978;stroke-linecap:butt;stroke-linejoin:round;stroke:rgb(100%,90.196078%,26.27451%);stroke-opacity:0.8;stroke-miterlimit:10;" d="M 466.425781 280.953125 L 466.425781 230.292969 "/>
<path style="fill:none;stroke-width:1.066978;stroke-linecap:butt;stroke-linejoin:round;stroke:rgb(100%,90.588235%,25.882353%);stroke-opacity:0.8;stroke-miterlimit:10;" d="M 311.585938 204.726562 L 311.585938 163.730469 "/>
<path style="fill:none;stroke-width:1.066978;stroke-linecap:butt;stroke-linejoin:round;stroke:rgb(91.372549%,82.745098%,34.509804%);stroke-opacity:0.8;stroke-miterlimit:10;" d="M 432.996094 334.015625 L 432.996094 215.921875 "/>
<path style="fill:none;stroke-width:1.066978;stroke-linecap:butt;stroke-linejoin:round;stroke:rgb(99.607843%,89.411765%,27.058824%);stroke-opacity:0.8;stroke-miterlimit:10;" d="M 522.164062 314.285156 L 522.164062 254.253906 "/>
<path style="fill:none;stroke-width:1.066978;stroke-linecap:butt;stroke-linejoin:round;stroke:rgb(92.156863%,83.137255%,33.72549%);stroke-opacity:0.8;stroke-miterlimit:10;" d="M 367.199219 299.269531 L 367.199219 187.636719 "/>
<path style="fill:none;stroke-width:1.066978;stroke-linecap:butt;stroke-linejoin:round;stroke:rgb(76.862745%,70.980392%,42.352941%);stroke-opacity:0.8;stroke-miterlimit:10;" d="M 659.59375 131.441406 L 659.59375 313.335938 "/>
<path style="fill:none;stroke-width:1.066978;stroke-linecap:butt;stroke-linejoin:round;stroke:rgb(90.588235%,82.352941%,34.901961%);stroke-opacity:0.8;stroke-miterlimit:10;" d="M 348.261719 300.832031 L 348.261719 179.496094 "/>
<path style="fill:none;stroke-width:1.066978;stroke-linecap:butt;stroke-linejoin:round;stroke:rgb(69.019608%,64.313725%,45.098039%);stroke-opacity:0.8;stroke-miterlimit:10;" d="M 191.636719 322.3125 L 191.636719 112.164062 "/>
<path style="fill:none;stroke-width:1.066978;stroke-linecap:butt;stroke-linejoin:round;stroke:rgb(87.45098%,79.607843%,36.862745%);stroke-opacity:0.8;stroke-miterlimit:10;" d="M 289.816406 290.960938 L 289.816406 154.371094 "/>
<path style="fill:none;stroke-width:1.066978;stroke-linecap:butt;stroke-linejoin:round;stroke:rgb(100%,91.764706%,27.058824%);stroke-opacity:0.8;stroke-miterlimit:10;" d="M 345.355469 193.078125 L 345.355469 178.246094 "/>
<path style="fill:none;stroke-width:1.066978;stroke-linecap:butt;stroke-linejoin:round;stroke:rgb(100%,91.764706%,27.45098%);stroke-opacity:0.8;stroke-miterlimit:10;" d="M 437.523438 214.941406 L 437.523438 217.867188 "/>
<path style="fill:none;stroke-width:1.066978;stroke-linecap:butt;stroke-linejoin:round;stroke:rgb(97.254902%,87.45098%,29.411765%);stroke-opacity:0.8;stroke-miterlimit:10;" d="M 430.039062 292.964844 L 430.039062 214.652344 "/>
<path style="fill:none;stroke-width:1.066978;stroke-linecap:butt;stroke-linejoin:round;stroke:rgb(84.705882%,77.254902%,38.823529%);stroke-opacity:0.8;stroke-miterlimit:10;" d="M 573.625 125.550781 L 573.625 276.378906 "/>
<path style="fill:none;stroke-width:1.066978;stroke-linecap:butt;stroke-linejoin:round;stroke:rgb(97.647059%,87.843137%,29.019608%);stroke-opacity:0.8;stroke-miterlimit:10;" d="M 343.667969 252.972656 L 343.667969 177.523438 "/>
<path style="fill:none;stroke-width:1.066978;stroke-linecap:butt;stroke-linejoin:round;stroke:rgb(0%,12.54902%,30.196078%);stroke-opacity:0.8;stroke-miterlimit:10;" d="M 23.234375 423.492188 L 23.234375 39.769531 "/>
<path style="fill:none;stroke-width:1.066978;stroke-linecap:butt;stroke-linejoin:round;stroke:rgb(99.215686%,89.019608%,27.45098%);stroke-opacity:0.8;stroke-miterlimit:10;" d="M 573.667969 214.074219 L 573.667969 276.394531 "/>
<path style="fill:none;stroke-width:1.066978;stroke-linecap:butt;stroke-linejoin:round;stroke:rgb(96.470588%,86.666667%,30.196078%);stroke-opacity:0.8;stroke-miterlimit:10;" d="M 591.984375 199.050781 L 591.984375 284.269531 "/>
<path style="fill:none;stroke-width:1.066978;stroke-linecap:butt;stroke-linejoin:round;stroke:rgb(100%,91.372549%,26.666667%);stroke-opacity:0.8;stroke-miterlimit:10;" d="M 505.796875 226.226562 L 505.796875 247.21875 "/>
<path style="fill:none;stroke-width:1.066978;stroke-linecap:butt;stroke-linejoin:round;stroke:rgb(68.627451%,64.313725%,45.098039%);stroke-opacity:0.8;stroke-miterlimit:10;" d="M 184.226562 319.210938 L 184.226562 108.980469 "/>
<path style="fill:none;stroke-width:1.066978;stroke-linecap:butt;stroke-linejoin:round;stroke:rgb(100%,91.764706%,27.45098%);stroke-opacity:0.8;stroke-miterlimit:10;" d="M 451.117188 232.507812 L 451.117188 223.714844 "/>
<path style="fill:none;stroke-width:1.066978;stroke-linecap:butt;stroke-linejoin:round;stroke:rgb(96.078431%,86.666667%,30.196078%);stroke-opacity:0.8;stroke-miterlimit:10;" d="M 624.546875 210.085938 L 624.546875 298.269531 "/>
<path style="fill:none;stroke-width:1.066978;stroke-linecap:butt;stroke-linejoin:round;stroke:rgb(100%,89.803922%,26.666667%);stroke-opacity:0.8;stroke-miterlimit:10;" d="M 535.558594 315.578125 L 535.558594 260.011719 "/>
<path style="fill:none;stroke-width:1.066978;stroke-linecap:butt;stroke-linejoin:round;stroke:rgb(96.078431%,86.27451%,30.588235%);stroke-opacity:0.8;stroke-miterlimit:10;" d="M 573.574219 187.777344 L 573.574219 276.355469 "/>
<path style="fill:none;stroke-width:1.066978;stroke-linecap:butt;stroke-linejoin:round;stroke:rgb(100%,89.803922%,26.27451%);stroke-opacity:0.8;stroke-miterlimit:10;" d="M 551.164062 215.699219 L 551.164062 266.722656 "/>
<path style="fill:none;stroke-width:1.066978;stroke-linecap:butt;stroke-linejoin:round;stroke:rgb(100%,91.764706%,27.45098%);stroke-opacity:0.8;stroke-miterlimit:10;" d="M 418.539062 205.5625 L 418.539062 209.707031 "/>
<path style="fill:none;stroke-width:1.066978;stroke-linecap:butt;stroke-linejoin:round;stroke:rgb(100%,90.588235%,25.882353%);stroke-opacity:0.8;stroke-miterlimit:10;" d="M 434.875 257.4375 L 434.875 216.730469 "/>
<path style="fill:none;stroke-width:1.066978;stroke-linecap:butt;stroke-linejoin:round;stroke:rgb(100%,89.803922%,26.666667%);stroke-opacity:0.8;stroke-miterlimit:10;" d="M 590.65625 227.917969 L 590.65625 283.699219 "/>
<path style="fill:none;stroke-width:1.066978;stroke-linecap:butt;stroke-linejoin:round;stroke:rgb(100%,89.803922%,26.666667%);stroke-opacity:0.8;stroke-miterlimit:10;" d="M 539.472656 206.691406 L 539.472656 261.695312 "/>
<path style="fill:none;stroke-width:1.066978;stroke-linecap:butt;stroke-linejoin:round;stroke:rgb(100%,91.764706%,27.45098%);stroke-opacity:0.8;stroke-miterlimit:10;" d="M 490.992188 248.210938 L 490.992188 240.855469 "/>
<path style="fill:none;stroke-width:1.066978;stroke-linecap:butt;stroke-linejoin:round;stroke:rgb(91.764706%,82.745098%,34.117647%);stroke-opacity:0.8;stroke-miterlimit:10;" d="M 353.640625 297.378906 L 353.640625 181.808594 "/>
<path style="fill:none;stroke-width:1.066978;stroke-linecap:butt;stroke-linejoin:round;stroke:rgb(91.764706%,82.745098%,34.117647%);stroke-opacity:0.8;stroke-miterlimit:10;" d="M 370.511719 303.902344 L 370.511719 189.0625 "/>
<path style="fill-rule:nonzero;fill:rgb(18.431373%,30.980392%,30.980392%);fill-opacity:0.901961;stroke-width:0.708661;stroke-linecap:round;stroke-linejoin:round;stroke:rgb(18.431373%,30.980392%,30.980392%);stroke-opacity:0.901961;stroke-miterlimit:10;" d="M 606.496094 117.59375 C 606.496094 120.734375 603.949219 123.285156 600.804688 123.285156 C 597.664062 123.285156 595.117188 120.734375 595.117188 117.59375 C 595.117188 114.453125 597.664062 111.90625 600.804688 111.90625 C 603.949219 111.90625 606.496094 114.453125 606.496094 117.59375 "/>
<path style="fill-rule:nonzero;fill:rgb(18.431373%,30.980392%,30.980392%);fill-opacity:0.901961;stroke-width:0.708661;stroke-linecap:round;stroke-linejoin:round;stroke:rgb(18.431373%,30.980392%,30.980392%);stroke-opacity:0.901961;stroke-miterlimit:10;" d="M 608.648438 223.625 C 608.648438 226.765625 606.101562 229.3125 602.957031 229.3125 C 599.816406 229.3125 597.269531 226.765625 597.269531 223.625 C 597.269531 220.480469 599.816406 217.933594 602.957031 217.933594 C 606.101562 217.933594 608.648438 220.480469 608.648438 223.625 "/>
<path style="fill-rule:nonzero;fill:rgb(18.431373%,30.980392%,30.980392%);fill-opacity:0.901961;stroke-width:0.708661;stroke-linecap:round;stroke-linejoin:round;stroke:rgb(18.431373%,30.980392%,30.980392%);stroke-opacity:0.901961;stroke-miterlimit:10;" d="M 196.1875 353.617188 C 196.1875 356.757812 193.640625 359.304688 190.496094 359.304688 C 187.355469 359.304688 184.808594 356.757812 184.808594 353.617188 C 184.808594 350.472656 187.355469 347.925781 190.496094 347.925781 C 193.640625 347.925781 196.1875 350.472656 196.1875 353.617188 "/>
<path style="fill-rule:nonzero;fill:rgb(18.431373%,30.980392%,30.980392%);fill-opacity:0.901961;stroke-width:0.708661;stroke-linecap:round;stroke-linejoin:round;stroke:rgb(18.431373%,30.980392%,30.980392%);stroke-opacity:0.901961;stroke-miterlimit:10;" d="M 424.289062 198.398438 C 424.289062 201.539062 421.742188 204.085938 418.597656 204.085938 C 415.457031 204.085938 412.910156 201.539062 412.910156 198.398438 C 412.910156 195.253906 415.457031 192.707031 418.597656 192.707031 C 421.742188 192.707031 424.289062 195.253906 424.289062 198.398438 "/>
<path style="fill-rule:nonzero;fill:rgb(18.431373%,30.980392%,30.980392%);fill-opacity:0.901961;stroke-width:0.708661;stroke-linecap:round;stroke-linejoin:round;stroke:rgb(18.431373%,30.980392%,30.980392%);stroke-opacity:0.901961;stroke-miterlimit:10;" d="M 365.457031 302.257812 C 365.457031 305.402344 362.910156 307.949219 359.765625 307.949219 C 356.625 307.949219 354.078125 305.402344 354.078125 302.257812 C 354.078125 299.117188 356.625 296.570312 359.765625 296.570312 C 362.910156 296.570312 365.457031 299.117188 365.457031 302.257812 "/>
<path style="fill-rule:nonzero;fill:rgb(18.431373%,30.980392%,30.980392%);fill-opacity:0.901961;stroke-width:0.708661;stroke-linecap:round;stroke-linejoin:round;stroke:rgb(18.431373%,30.980392%,30.980392%);stroke-opacity:0.901961;stroke-miterlimit:10;" d="M 402.957031 256.257812 C 402.957031 259.398438 400.410156 261.945312 397.265625 261.945312 C 394.125 261.945312 391.578125 259.398438 391.578125 256.257812 C 391.578125 253.117188 394.125 250.566406 397.265625 250.566406 C 400.410156 250.566406 402.957031 253.117188 402.957031 256.257812 "/>
<path style="fill-rule:nonzero;fill:rgb(18.431373%,30.980392%,30.980392%);fill-opacity:0.901961;stroke-width:0.708661;stroke-linecap:round;stroke-linejoin:round;stroke:rgb(18.431373%,30.980392%,30.980392%);stroke-opacity:0.901961;stroke-miterlimit:10;" d="M 490.648438 216.878906 C 490.648438 220.023438 488.101562 222.570312 484.960938 222.570312 C 481.816406 222.570312 479.269531 220.023438 479.269531 216.878906 C 479.269531 213.738281 481.816406 211.191406 484.960938 211.191406 C 488.101562 211.191406 490.648438 213.738281 490.648438 216.878906 "/>
<path style="fill-rule:nonzero;fill:rgb(18.431373%,30.980392%,30.980392%);fill-opacity:0.901961;stroke-width:0.708661;stroke-linecap:round;stroke-linejoin:round;stroke:rgb(18.431373%,30.980392%,30.980392%);stroke-opacity:0.901961;stroke-miterlimit:10;" d="M 526.695312 284.050781 C 526.695312 287.191406 524.148438 289.742188 521.007812 289.742188 C 517.863281 289.742188 515.316406 287.191406 515.316406 284.050781 C 515.316406 280.910156 517.863281 278.363281 521.007812 278.363281 C 524.148438 278.363281 526.695312 280.910156 526.695312 284.050781 "/>
<path style="fill-rule:nonzero;fill:rgb(18.431373%,30.980392%,30.980392%);fill-opacity:0.901961;stroke-width:0.708661;stroke-linecap:round;stroke-linejoin:round;stroke:rgb(18.431373%,30.980392%,30.980392%);stroke-opacity:0.901961;stroke-miterlimit:10;" d="M 471.628906 213.054688 C 471.628906 216.199219 469.082031 218.746094 465.9375 218.746094 C 462.796875 218.746094 460.25 216.199219 460.25 213.054688 C 460.25 209.914062 462.796875 207.367188 465.9375 207.367188 C 469.082031 207.367188 471.628906 209.914062 471.628906 213.054688 "/>
<path style="fill-rule:nonzero;fill:rgb(18.431373%,30.980392%,30.980392%);fill-opacity:0.901961;stroke-width:0.708661;stroke-linecap:round;stroke-linejoin:round;stroke:rgb(18.431373%,30.980392%,30.980392%);stroke-opacity:0.901961;stroke-miterlimit:10;" d="M 354.070312 312.222656 C 354.070312 315.367188 351.523438 317.914062 348.382812 317.914062 C 345.238281 317.914062 342.691406 315.367188 342.691406 312.222656 C 342.691406 309.082031 345.238281 306.535156 348.382812 306.535156 C 351.523438 306.535156 354.070312 309.082031 354.070312 312.222656 "/>
<path style="fill-rule:nonzero;fill:rgb(18.431373%,30.980392%,30.980392%);fill-opacity:0.901961;stroke-width:0.708661;stroke-linecap:round;stroke-linejoin:round;stroke:rgb(18.431373%,30.980392%,30.980392%);stroke-opacity:0.901961;stroke-miterlimit:10;" d="M 642.933594 178.1875 C 642.933594 181.328125 640.386719 183.875 637.246094 183.875 C 634.101562 183.875 631.554688 181.328125 631.554688 178.1875 C 631.554688 175.046875 634.101562 172.5 637.246094 172.5 C 640.386719 172.5 642.933594 175.046875 642.933594 178.1875 "/>
<path style="fill-rule:nonzero;fill:rgb(18.431373%,30.980392%,30.980392%);fill-opacity:0.901961;stroke-width:0.708661;stroke-linecap:round;stroke-linejoin:round;stroke:rgb(18.431373%,30.980392%,30.980392%);stroke-opacity:0.901961;stroke-miterlimit:10;" d="M 630.878906 218.289062 C 630.878906 221.429688 628.332031 223.976562 625.191406 223.976562 C 622.046875 223.976562 619.5 221.429688 619.5 218.289062 C 619.5 215.144531 622.046875 212.597656 625.191406 212.597656 C 628.332031 212.597656 630.878906 215.144531 630.878906 218.289062 "/>
<path style="fill-rule:nonzero;fill:rgb(18.431373%,30.980392%,30.980392%);fill-opacity:0.901961;stroke-width:0.708661;stroke-linecap:round;stroke-linejoin:round;stroke:rgb(18.431373%,30.980392%,30.980392%);stroke-opacity:0.901961;stroke-miterlimit:10;" d="M 409.878906 259.863281 C 409.878906 263.003906 407.332031 265.550781 404.191406 265.550781 C 401.050781 265.550781 398.503906 263.003906 398.503906 259.863281 C 398.503906 256.722656 401.050781 254.171875 404.191406 254.171875 C 407.332031 254.171875 409.878906 256.722656 409.878906 259.863281 "/>
<path style="fill-rule:nonzero;fill:rgb(18.431373%,30.980392%,30.980392%);fill-opacity:0.901961;stroke-width:0.708661;stroke-linecap:round;stroke-linejoin:round;stroke:rgb(18.431373%,30.980392%,30.980392%);stroke-opacity:0.901961;stroke-miterlimit:10;" d="M 726.796875 109.59375 C 726.796875 112.734375 724.25 115.285156 721.105469 115.285156 C 717.964844 115.285156 715.417969 112.734375 715.417969 109.59375 C 715.417969 106.453125 717.964844 103.90625 721.105469 103.90625 C 724.25 103.90625 726.796875 106.453125 726.796875 109.59375 "/>
<path style="fill-rule:nonzero;fill:rgb(18.431373%,30.980392%,30.980392%);fill-opacity:0.901961;stroke-width:0.708661;stroke-linecap:round;stroke-linejoin:round;stroke:rgb(18.431373%,30.980392%,30.980392%);stroke-opacity:0.901961;stroke-miterlimit:10;" d="M 110.089844 303.765625 C 110.089844 306.90625 107.542969 309.457031 104.398438 309.457031 C 101.257812 309.457031 98.710938 306.90625 98.710938 303.765625 C 98.710938 300.625 101.257812 298.078125 104.398438 298.078125 C 107.542969 298.078125 110.089844 300.625 110.089844 303.765625 "/>
<path style="fill-rule:nonzero;fill:rgb(18.431373%,30.980392%,30.980392%);fill-opacity:0.901961;stroke-width:0.708661;stroke-linecap:round;stroke-linejoin:round;stroke:rgb(18.431373%,30.980392%,30.980392%);stroke-opacity:0.901961;stroke-miterlimit:10;" d="M 518.992188 240.160156 C 518.992188 243.304688 516.445312 245.851562 513.304688 245.851562 C 510.160156 245.851562 507.613281 243.304688 507.613281 240.160156 C 507.613281 237.019531 510.160156 234.472656 513.304688 234.472656 C 516.445312 234.472656 518.992188 237.019531 518.992188 240.160156 "/>
<path style="fill-rule:nonzero;fill:rgb(18.431373%,30.980392%,30.980392%);fill-opacity:0.901961;stroke-width:0.708661;stroke-linecap:round;stroke-linejoin:round;stroke:rgb(18.431373%,30.980392%,30.980392%);stroke-opacity:0.901961;stroke-miterlimit:10;" d="M 454.1875 210.566406 C 454.1875 213.707031 451.640625 216.253906 448.496094 216.253906 C 445.355469 216.253906 442.808594 213.707031 442.808594 210.566406 C 442.808594 207.421875 445.355469 204.875 448.496094 204.875 C 451.640625 204.875 454.1875 207.421875 454.1875 210.566406 "/>
<path style="fill-rule:nonzero;fill:rgb(18.431373%,30.980392%,30.980392%);fill-opacity:0.901961;stroke-width:0.708661;stroke-linecap:round;stroke-linejoin:round;stroke:rgb(18.431373%,30.980392%,30.980392%);stroke-opacity:0.901961;stroke-miterlimit:10;" d="M 261.601562 271.472656 C 261.601562 274.613281 259.054688 277.160156 255.910156 277.160156 C 252.769531 277.160156 250.222656 274.613281 250.222656 271.472656 C 250.222656 268.328125 252.769531 265.78125 255.910156 265.78125 C 259.054688 265.78125 261.601562 268.328125 261.601562 271.472656 "/>
<path style="fill-rule:nonzero;fill:rgb(18.431373%,30.980392%,30.980392%);fill-opacity:0.901961;stroke-width:0.708661;stroke-linecap:round;stroke-linejoin:round;stroke:rgb(18.431373%,30.980392%,30.980392%);stroke-opacity:0.901961;stroke-miterlimit:10;" d="M 598.089844 228.300781 C 598.089844 231.441406 595.542969 233.988281 592.398438 233.988281 C 589.257812 233.988281 586.710938 231.441406 586.710938 228.300781 C 586.710938 225.15625 589.257812 222.609375 592.398438 222.609375 C 595.542969 222.609375 598.089844 225.15625 598.089844 228.300781 "/>
<path style="fill-rule:nonzero;fill:rgb(18.431373%,30.980392%,30.980392%);fill-opacity:0.901961;stroke-width:0.708661;stroke-linecap:round;stroke-linejoin:round;stroke:rgb(18.431373%,30.980392%,30.980392%);stroke-opacity:0.901961;stroke-miterlimit:10;" d="M 265.71875 324.945312 C 265.71875 328.085938 263.171875 330.632812 260.03125 330.632812 C 256.886719 330.632812 254.339844 328.085938 254.339844 324.945312 C 254.339844 321.804688 256.886719 319.253906 260.03125 319.253906 C 263.171875 319.253906 265.71875 321.804688 265.71875 324.945312 "/>
<path style="fill-rule:nonzero;fill:rgb(18.431373%,30.980392%,30.980392%);fill-opacity:0.901961;stroke-width:0.708661;stroke-linecap:round;stroke-linejoin:round;stroke:rgb(18.431373%,30.980392%,30.980392%);stroke-opacity:0.901961;stroke-miterlimit:10;" d="M 386.796875 242.671875 C 386.796875 245.816406 384.25 248.363281 381.105469 248.363281 C 377.964844 248.363281 375.417969 245.816406 375.417969 242.671875 C 375.417969 239.53125 377.964844 236.984375 381.105469 236.984375 C 384.25 236.984375 386.796875 239.53125 386.796875 242.671875 "/>
<path style="fill-rule:nonzero;fill:rgb(18.431373%,30.980392%,30.980392%);fill-opacity:0.901961;stroke-width:0.708661;stroke-linecap:round;stroke-linejoin:round;stroke:rgb(18.431373%,30.980392%,30.980392%);stroke-opacity:0.901961;stroke-miterlimit:10;" d="M 704.722656 134.921875 C 704.722656 138.066406 702.175781 140.613281 699.035156 140.613281 C 695.890625 140.613281 693.34375 138.066406 693.34375 134.921875 C 693.34375 131.78125 695.890625 129.234375 699.035156 129.234375 C 702.175781 129.234375 704.722656 131.78125 704.722656 134.921875 "/>
<path style="fill-rule:nonzero;fill:rgb(18.431373%,30.980392%,30.980392%);fill-opacity:0.901961;stroke-width:0.708661;stroke-linecap:round;stroke-linejoin:round;stroke:rgb(18.431373%,30.980392%,30.980392%);stroke-opacity:0.901961;stroke-miterlimit:10;" d="M 235.933594 328.308594 C 235.933594 331.449219 233.386719 333.996094 230.246094 333.996094 C 227.105469 333.996094 224.558594 331.449219 224.558594 328.308594 C 224.558594 325.167969 227.105469 322.617188 230.246094 322.617188 C 233.386719 322.617188 235.933594 325.167969 235.933594 328.308594 "/>
<path style="fill-rule:nonzero;fill:rgb(18.431373%,30.980392%,30.980392%);fill-opacity:0.901961;stroke-width:0.708661;stroke-linecap:round;stroke-linejoin:round;stroke:rgb(18.431373%,30.980392%,30.980392%);stroke-opacity:0.901961;stroke-miterlimit:10;" d="M 130.621094 306.117188 C 130.621094 309.257812 128.074219 311.804688 124.933594 311.804688 C 121.792969 311.804688 119.246094 309.257812 119.246094 306.117188 C 119.246094 302.972656 121.792969 300.425781 124.933594 300.425781 C 128.074219 300.425781 130.621094 302.972656 130.621094 306.117188 "/>
<path style="fill-rule:nonzero;fill:rgb(18.431373%,30.980392%,30.980392%);fill-opacity:0.901961;stroke-width:0.708661;stroke-linecap:round;stroke-linejoin:round;stroke:rgb(18.431373%,30.980392%,30.980392%);stroke-opacity:0.901961;stroke-miterlimit:10;" d="M 559.847656 245.277344 C 559.847656 248.417969 557.300781 250.96875 554.160156 250.96875 C 551.015625 250.96875 548.46875 248.417969 548.46875 245.277344 C 548.46875 242.136719 551.015625 239.589844 554.160156 239.589844 C 557.300781 239.589844 559.847656 242.136719 559.847656 245.277344 "/>
<path style="fill-rule:nonzero;fill:rgb(18.431373%,30.980392%,30.980392%);fill-opacity:0.901961;stroke-width:0.708661;stroke-linecap:round;stroke-linejoin:round;stroke:rgb(18.431373%,30.980392%,30.980392%);stroke-opacity:0.901961;stroke-miterlimit:10;" d="M 587.753906 273.328125 C 587.753906 276.46875 585.207031 279.015625 582.066406 279.015625 C 578.921875 279.015625 576.375 276.46875 576.375 273.328125 C 576.375 270.183594 578.921875 267.636719 582.066406 267.636719 C 585.207031 267.636719 587.753906 270.183594 587.753906 273.328125 "/>
<path style="fill-rule:nonzero;fill:rgb(18.431373%,30.980392%,30.980392%);fill-opacity:0.901961;stroke-width:0.708661;stroke-linecap:round;stroke-linejoin:round;stroke:rgb(18.431373%,30.980392%,30.980392%);stroke-opacity:0.901961;stroke-miterlimit:10;" d="M 214.492188 302.023438 C 214.492188 305.164062 211.945312 307.710938 208.804688 307.710938 C 205.660156 307.710938 203.113281 305.164062 203.113281 302.023438 C 203.113281 298.882812 205.660156 296.335938 208.804688 296.335938 C 211.945312 296.335938 214.492188 298.882812 214.492188 302.023438 "/>
<path style="fill-rule:nonzero;fill:rgb(18.431373%,30.980392%,30.980392%);fill-opacity:0.901961;stroke-width:0.708661;stroke-linecap:round;stroke-linejoin:round;stroke:rgb(18.431373%,30.980392%,30.980392%);stroke-opacity:0.901961;stroke-miterlimit:10;" d="M 383.199219 241.800781 C 383.199219 244.941406 380.652344 247.488281 377.507812 247.488281 C 374.367188 247.488281 371.820312 244.941406 371.820312 241.800781 C 371.820312 238.65625 374.367188 236.109375 377.507812 236.109375 C 380.652344 236.109375 383.199219 238.65625 383.199219 241.800781 "/>
<path style="fill-rule:nonzero;fill:rgb(18.431373%,30.980392%,30.980392%);fill-opacity:0.901961;stroke-width:0.708661;stroke-linecap:round;stroke-linejoin:round;stroke:rgb(18.431373%,30.980392%,30.980392%);stroke-opacity:0.901961;stroke-miterlimit:10;" d="M 220.789062 311.773438 C 220.789062 314.914062 218.242188 317.460938 215.101562 317.460938 C 211.960938 317.460938 209.414062 314.914062 209.414062 311.773438 C 209.414062 308.628906 211.960938 306.082031 215.101562 306.082031 C 218.242188 306.082031 220.789062 308.628906 220.789062 311.773438 "/>
<path style="fill-rule:nonzero;fill:rgb(18.431373%,30.980392%,30.980392%);fill-opacity:0.901961;stroke-width:0.708661;stroke-linecap:round;stroke-linejoin:round;stroke:rgb(18.431373%,30.980392%,30.980392%);stroke-opacity:0.901961;stroke-miterlimit:10;" d="M 589.757812 279.722656 C 589.757812 282.867188 587.210938 285.414062 584.070312 285.414062 C 580.929688 285.414062 578.378906 282.867188 578.378906 279.722656 C 578.378906 276.582031 580.929688 274.035156 584.070312 274.035156 C 587.210938 274.035156 589.757812 276.582031 589.757812 279.722656 "/>
<path style="fill-rule:nonzero;fill:rgb(18.431373%,30.980392%,30.980392%);fill-opacity:0.901961;stroke-width:0.708661;stroke-linecap:round;stroke-linejoin:round;stroke:rgb(18.431373%,30.980392%,30.980392%);stroke-opacity:0.901961;stroke-miterlimit:10;" d="M 264.503906 323.953125 C 264.503906 327.09375 261.953125 329.640625 258.8125 329.640625 C 255.671875 329.640625 253.125 327.09375 253.125 323.953125 C 253.125 320.8125 255.671875 318.261719 258.8125 318.261719 C 261.953125 318.261719 264.503906 320.8125 264.503906 323.953125 "/>
<path style="fill-rule:nonzero;fill:rgb(18.431373%,30.980392%,30.980392%);fill-opacity:0.901961;stroke-width:0.708661;stroke-linecap:round;stroke-linejoin:round;stroke:rgb(18.431373%,30.980392%,30.980392%);stroke-opacity:0.901961;stroke-miterlimit:10;" d="M 457.945312 240.636719 C 457.945312 243.777344 455.398438 246.324219 452.257812 246.324219 C 449.113281 246.324219 446.566406 243.777344 446.566406 240.636719 C 446.566406 237.492188 449.113281 234.945312 452.257812 234.945312 C 455.398438 234.945312 457.945312 237.492188 457.945312 240.636719 "/>
<path style="fill-rule:nonzero;fill:rgb(18.431373%,30.980392%,30.980392%);fill-opacity:0.901961;stroke-width:0.708661;stroke-linecap:round;stroke-linejoin:round;stroke:rgb(18.431373%,30.980392%,30.980392%);stroke-opacity:0.901961;stroke-miterlimit:10;" d="M 368.222656 312.929688 C 368.222656 316.074219 365.675781 318.621094 362.535156 318.621094 C 359.390625 318.621094 356.84375 316.074219 356.84375 312.929688 C 356.84375 309.789062 359.390625 307.242188 362.535156 307.242188 C 365.675781 307.242188 368.222656 309.789062 368.222656 312.929688 "/>
<path style="fill-rule:nonzero;fill:rgb(18.431373%,30.980392%,30.980392%);fill-opacity:0.901961;stroke-width:0.708661;stroke-linecap:round;stroke-linejoin:round;stroke:rgb(18.431373%,30.980392%,30.980392%);stroke-opacity:0.901961;stroke-miterlimit:10;" d="M 551.851562 241.507812 C 551.851562 244.652344 549.304688 247.199219 546.160156 247.199219 C 543.019531 247.199219 540.472656 244.652344 540.472656 241.507812 C 540.472656 238.367188 543.019531 235.820312 546.160156 235.820312 C 549.304688 235.820312 551.851562 238.367188 551.851562 241.507812 "/>
<path style="fill-rule:nonzero;fill:rgb(18.431373%,30.980392%,30.980392%);fill-opacity:0.901961;stroke-width:0.708661;stroke-linecap:round;stroke-linejoin:round;stroke:rgb(18.431373%,30.980392%,30.980392%);stroke-opacity:0.901961;stroke-miterlimit:10;" d="M 372.40625 297.113281 C 372.40625 300.253906 369.855469 302.800781 366.714844 302.800781 C 363.574219 302.800781 361.027344 300.253906 361.027344 297.113281 C 361.027344 293.96875 363.574219 291.421875 366.714844 291.421875 C 369.855469 291.421875 372.40625 293.96875 372.40625 297.113281 "/>
<path style="fill-rule:nonzero;fill:rgb(18.431373%,30.980392%,30.980392%);fill-opacity:0.901961;stroke-width:0.708661;stroke-linecap:round;stroke-linejoin:round;stroke:rgb(18.431373%,30.980392%,30.980392%);stroke-opacity:0.901961;stroke-miterlimit:10;" d="M 528.027344 303.523438 C 528.027344 306.664062 525.476562 309.210938 522.335938 309.210938 C 519.195312 309.210938 516.648438 306.664062 516.648438 303.523438 C 516.648438 300.378906 519.195312 297.832031 522.335938 297.832031 C 525.476562 297.832031 528.027344 300.378906 528.027344 303.523438 "/>
<path style="fill-rule:nonzero;fill:rgb(18.431373%,30.980392%,30.980392%);fill-opacity:0.901961;stroke-width:0.708661;stroke-linecap:round;stroke-linejoin:round;stroke:rgb(18.431373%,30.980392%,30.980392%);stroke-opacity:0.901961;stroke-miterlimit:10;" d="M 301.472656 341.566406 C 301.472656 344.707031 298.925781 347.253906 295.785156 347.253906 C 292.640625 347.253906 290.09375 344.707031 290.09375 341.566406 C 290.09375 338.425781 292.640625 335.875 295.785156 335.875 C 298.925781 335.875 301.472656 338.425781 301.472656 341.566406 "/>
<path style="fill-rule:nonzero;fill:rgb(18.431373%,30.980392%,30.980392%);fill-opacity:0.901961;stroke-width:0.708661;stroke-linecap:round;stroke-linejoin:round;stroke:rgb(18.431373%,30.980392%,30.980392%);stroke-opacity:0.901961;stroke-miterlimit:10;" d="M 269.988281 334.195312 C 269.988281 337.335938 267.441406 339.882812 264.300781 339.882812 C 261.15625 339.882812 258.609375 337.335938 258.609375 334.195312 C 258.609375 331.050781 261.15625 328.503906 264.300781 328.503906 C 267.441406 328.503906 269.988281 331.050781 269.988281 334.195312 "/>
<path style="fill-rule:nonzero;fill:rgb(18.431373%,30.980392%,30.980392%);fill-opacity:0.901961;stroke-width:0.708661;stroke-linecap:round;stroke-linejoin:round;stroke:rgb(18.431373%,30.980392%,30.980392%);stroke-opacity:0.901961;stroke-miterlimit:10;" d="M 287.03125 301.125 C 287.03125 304.265625 284.484375 306.8125 281.34375 306.8125 C 278.203125 306.8125 275.65625 304.265625 275.65625 301.125 C 275.65625 297.980469 278.203125 295.433594 281.34375 295.433594 C 284.484375 295.433594 287.03125 297.980469 287.03125 301.125 "/>
<path style="fill-rule:nonzero;fill:rgb(18.431373%,30.980392%,30.980392%);fill-opacity:0.901961;stroke-width:0.708661;stroke-linecap:round;stroke-linejoin:round;stroke:rgb(18.431373%,30.980392%,30.980392%);stroke-opacity:0.901961;stroke-miterlimit:10;" d="M 402.777344 243.4375 C 402.777344 246.582031 400.230469 249.128906 397.089844 249.128906 C 393.945312 249.128906 391.398438 246.582031 391.398438 243.4375 C 391.398438 240.296875 393.945312 237.75 397.089844 237.75 C 400.230469 237.75 402.777344 240.296875 402.777344 243.4375 "/>
<path style="fill-rule:nonzero;fill:rgb(18.431373%,30.980392%,30.980392%);fill-opacity:0.901961;stroke-width:0.708661;stroke-linecap:round;stroke-linejoin:round;stroke:rgb(18.431373%,30.980392%,30.980392%);stroke-opacity:0.901961;stroke-miterlimit:10;" d="M 626.960938 196.167969 C 626.960938 199.308594 624.414062 201.855469 621.269531 201.855469 C 618.128906 201.855469 615.582031 199.308594 615.582031 196.167969 C 615.582031 193.027344 618.128906 190.480469 621.269531 190.480469 C 624.414062 190.480469 626.960938 193.027344 626.960938 196.167969 "/>
<path style="fill-rule:nonzero;fill:rgb(18.431373%,30.980392%,30.980392%);fill-opacity:0.901961;stroke-width:0.708661;stroke-linecap:round;stroke-linejoin:round;stroke:rgb(18.431373%,30.980392%,30.980392%);stroke-opacity:0.901961;stroke-miterlimit:10;" d="M 474.644531 249.875 C 474.644531 253.015625 472.097656 255.5625 468.957031 255.5625 C 465.8125 255.5625 463.265625 253.015625 463.265625 249.875 C 463.265625 246.730469 465.8125 244.183594 468.957031 244.183594 C 472.097656 244.183594 474.644531 246.730469 474.644531 249.875 "/>
<path style="fill-rule:nonzero;fill:rgb(18.431373%,30.980392%,30.980392%);fill-opacity:0.901961;stroke-width:0.708661;stroke-linecap:round;stroke-linejoin:round;stroke:rgb(18.431373%,30.980392%,30.980392%);stroke-opacity:0.901961;stroke-miterlimit:10;" d="M 588.398438 345.386719 C 588.398438 348.527344 585.851562 351.074219 582.707031 351.074219 C 579.566406 351.074219 577.019531 348.527344 577.019531 345.386719 C 577.019531 342.242188 579.566406 339.695312 582.707031 339.695312 C 585.851562 339.695312 588.398438 342.242188 588.398438 345.386719 "/>
<path style="fill-rule:nonzero;fill:rgb(18.431373%,30.980392%,30.980392%);fill-opacity:0.901961;stroke-width:0.708661;stroke-linecap:round;stroke-linejoin:round;stroke:rgb(18.431373%,30.980392%,30.980392%);stroke-opacity:0.901961;stroke-miterlimit:10;" d="M 361.582031 287.578125 C 361.582031 290.722656 359.035156 293.269531 355.890625 293.269531 C 352.75 293.269531 350.203125 290.722656 350.203125 287.578125 C 350.203125 284.4375 352.75 281.890625 355.890625 281.890625 C 359.035156 281.890625 361.582031 284.4375 361.582031 287.578125 "/>
<path style="fill-rule:nonzero;fill:rgb(18.431373%,30.980392%,30.980392%);fill-opacity:0.901961;stroke-width:0.708661;stroke-linecap:round;stroke-linejoin:round;stroke:rgb(18.431373%,30.980392%,30.980392%);stroke-opacity:0.901961;stroke-miterlimit:10;" d="M 580.742188 332.917969 C 580.742188 336.058594 578.195312 338.605469 575.054688 338.605469 C 571.910156 338.605469 569.363281 336.058594 569.363281 332.917969 C 569.363281 329.777344 571.910156 327.230469 575.054688 327.230469 C 578.195312 327.230469 580.742188 329.777344 580.742188 332.917969 "/>
<path style="fill-rule:nonzero;fill:rgb(18.431373%,30.980392%,30.980392%);fill-opacity:0.901961;stroke-width:0.708661;stroke-linecap:round;stroke-linejoin:round;stroke:rgb(18.431373%,30.980392%,30.980392%);stroke-opacity:0.901961;stroke-miterlimit:10;" d="M 602.132812 69.203125 C 602.132812 72.34375 599.585938 74.890625 596.445312 74.890625 C 593.300781 74.890625 590.753906 72.34375 590.753906 69.203125 C 590.753906 66.058594 593.300781 63.511719 596.445312 63.511719 C 599.585938 63.511719 602.132812 66.058594 602.132812 69.203125 "/>
<path style="fill-rule:nonzero;fill:rgb(18.431373%,30.980392%,30.980392%);fill-opacity:0.901961;stroke-width:0.708661;stroke-linecap:round;stroke-linejoin:round;stroke:rgb(18.431373%,30.980392%,30.980392%);stroke-opacity:0.901961;stroke-miterlimit:10;" d="M 697.316406 200.363281 C 697.316406 203.503906 694.765625 206.050781 691.625 206.050781 C 688.484375 206.050781 685.9375 203.503906 685.9375 200.363281 C 685.9375 197.21875 688.484375 194.671875 691.625 194.671875 C 694.765625 194.671875 697.316406 197.21875 697.316406 200.363281 "/>
<path style="fill-rule:nonzero;fill:rgb(18.431373%,30.980392%,30.980392%);fill-opacity:0.901961;stroke-width:0.708661;stroke-linecap:round;stroke-linejoin:round;stroke:rgb(18.431373%,30.980392%,30.980392%);stroke-opacity:0.901961;stroke-miterlimit:10;" d="M 705.953125 157.046875 C 705.953125 160.1875 703.40625 162.734375 700.261719 162.734375 C 697.121094 162.734375 694.574219 160.1875 694.574219 157.046875 C 694.574219 153.90625 697.121094 151.355469 700.261719 151.355469 C 703.40625 151.355469 705.953125 153.90625 705.953125 157.046875 "/>
<path style="fill-rule:nonzero;fill:rgb(18.431373%,30.980392%,30.980392%);fill-opacity:0.901961;stroke-width:0.708661;stroke-linecap:round;stroke-linejoin:round;stroke:rgb(18.431373%,30.980392%,30.980392%);stroke-opacity:0.901961;stroke-miterlimit:10;" d="M 260.199219 261.335938 C 260.199219 264.476562 257.652344 267.023438 254.511719 267.023438 C 251.367188 267.023438 248.820312 264.476562 248.820312 261.335938 C 248.820312 258.191406 251.367188 255.644531 254.511719 255.644531 C 257.652344 255.644531 260.199219 258.191406 260.199219 261.335938 "/>
<path style="fill-rule:nonzero;fill:rgb(18.431373%,30.980392%,30.980392%);fill-opacity:0.901961;stroke-width:0.708661;stroke-linecap:round;stroke-linejoin:round;stroke:rgb(18.431373%,30.980392%,30.980392%);stroke-opacity:0.901961;stroke-miterlimit:10;" d="M 434.957031 254.507812 C 434.957031 257.648438 432.410156 260.195312 429.265625 260.195312 C 426.125 260.195312 423.578125 257.648438 423.578125 254.507812 C 423.578125 251.367188 426.125 248.820312 429.265625 248.820312 C 432.410156 248.820312 434.957031 251.367188 434.957031 254.507812 "/>
<path style="fill-rule:nonzero;fill:rgb(18.431373%,30.980392%,30.980392%);fill-opacity:0.901961;stroke-width:0.708661;stroke-linecap:round;stroke-linejoin:round;stroke:rgb(18.431373%,30.980392%,30.980392%);stroke-opacity:0.901961;stroke-miterlimit:10;" d="M 461.980469 226.449219 C 461.980469 229.59375 459.433594 232.140625 456.292969 232.140625 C 453.152344 232.140625 450.601562 229.59375 450.601562 226.449219 C 450.601562 223.308594 453.152344 220.761719 456.292969 220.761719 C 459.433594 220.761719 461.980469 223.308594 461.980469 226.449219 "/>
<path style="fill-rule:nonzero;fill:rgb(18.431373%,30.980392%,30.980392%);fill-opacity:0.901961;stroke-width:0.708661;stroke-linecap:round;stroke-linejoin:round;stroke:rgb(18.431373%,30.980392%,30.980392%);stroke-opacity:0.901961;stroke-miterlimit:10;" d="M 369.625 176.109375 C 369.625 179.25 367.074219 181.796875 363.933594 181.796875 C 360.792969 181.796875 358.246094 179.25 358.246094 176.109375 C 358.246094 172.964844 360.792969 170.417969 363.933594 170.417969 C 367.074219 170.417969 369.625 172.964844 369.625 176.109375 "/>
<path style="fill-rule:nonzero;fill:rgb(18.431373%,30.980392%,30.980392%);fill-opacity:0.901961;stroke-width:0.708661;stroke-linecap:round;stroke-linejoin:round;stroke:rgb(18.431373%,30.980392%,30.980392%);stroke-opacity:0.901961;stroke-miterlimit:10;" d="M 369.503906 310.363281 C 369.503906 313.503906 366.957031 316.050781 363.8125 316.050781 C 360.671875 316.050781 358.125 313.503906 358.125 310.363281 C 358.125 307.222656 360.671875 304.675781 363.8125 304.675781 C 366.957031 304.675781 369.503906 307.222656 369.503906 310.363281 "/>
<path style="fill-rule:nonzero;fill:rgb(18.431373%,30.980392%,30.980392%);fill-opacity:0.901961;stroke-width:0.708661;stroke-linecap:round;stroke-linejoin:round;stroke:rgb(18.431373%,30.980392%,30.980392%);stroke-opacity:0.901961;stroke-miterlimit:10;" d="M 563.71875 175.519531 C 563.71875 178.660156 561.171875 181.207031 558.027344 181.207031 C 554.886719 181.207031 552.339844 178.660156 552.339844 175.519531 C 552.339844 172.378906 554.886719 169.832031 558.027344 169.832031 C 561.171875 169.832031 563.71875 172.378906 563.71875 175.519531 "/>
<path style="fill-rule:nonzero;fill:rgb(18.431373%,30.980392%,30.980392%);fill-opacity:0.901961;stroke-width:0.708661;stroke-linecap:round;stroke-linejoin:round;stroke:rgb(18.431373%,30.980392%,30.980392%);stroke-opacity:0.901961;stroke-miterlimit:10;" d="M 652.8125 280.480469 C 652.8125 283.621094 650.265625 286.167969 647.125 286.167969 C 643.980469 286.167969 641.433594 283.621094 641.433594 280.480469 C 641.433594 277.335938 643.980469 274.789062 647.125 274.789062 C 650.265625 274.789062 652.8125 277.335938 652.8125 280.480469 "/>
<path style="fill-rule:nonzero;fill:rgb(18.431373%,30.980392%,30.980392%);fill-opacity:0.901961;stroke-width:0.708661;stroke-linecap:round;stroke-linejoin:round;stroke:rgb(18.431373%,30.980392%,30.980392%);stroke-opacity:0.901961;stroke-miterlimit:10;" d="M 387.5 264.371094 C 387.5 267.511719 384.953125 270.058594 381.8125 270.058594 C 378.667969 270.058594 376.121094 267.511719 376.121094 264.371094 C 376.121094 261.226562 378.667969 258.679688 381.8125 258.679688 C 384.953125 258.679688 387.5 261.226562 387.5 264.371094 "/>
<path style="fill-rule:nonzero;fill:rgb(18.431373%,30.980392%,30.980392%);fill-opacity:0.901961;stroke-width:0.708661;stroke-linecap:round;stroke-linejoin:round;stroke:rgb(18.431373%,30.980392%,30.980392%);stroke-opacity:0.901961;stroke-miterlimit:10;" d="M 319.746094 211.929688 C 319.746094 215.074219 317.195312 217.621094 314.054688 217.621094 C 310.914062 217.621094 308.367188 215.074219 308.367188 211.929688 C 308.367188 208.789062 310.914062 206.242188 314.054688 206.242188 C 317.195312 206.242188 319.746094 208.789062 319.746094 211.929688 "/>
<path style="fill-rule:nonzero;fill:rgb(18.431373%,30.980392%,30.980392%);fill-opacity:0.901961;stroke-width:0.708661;stroke-linecap:round;stroke-linejoin:round;stroke:rgb(18.431373%,30.980392%,30.980392%);stroke-opacity:0.901961;stroke-miterlimit:10;" d="M 512.511719 195.097656 C 512.511719 198.238281 509.964844 200.785156 506.824219 200.785156 C 503.679688 200.785156 501.132812 198.238281 501.132812 195.097656 C 501.132812 191.953125 503.679688 189.40625 506.824219 189.40625 C 509.964844 189.40625 512.511719 191.953125 512.511719 195.097656 "/>
<path style="fill-rule:nonzero;fill:rgb(18.431373%,30.980392%,30.980392%);fill-opacity:0.901961;stroke-width:0.708661;stroke-linecap:round;stroke-linejoin:round;stroke:rgb(18.431373%,30.980392%,30.980392%);stroke-opacity:0.901961;stroke-miterlimit:10;" d="M 423.226562 236.460938 C 423.226562 239.605469 420.679688 242.152344 417.539062 242.152344 C 414.394531 242.152344 411.847656 239.605469 411.847656 236.460938 C 411.847656 233.320312 414.394531 230.773438 417.539062 230.773438 C 420.679688 230.773438 423.226562 233.320312 423.226562 236.460938 "/>
<path style="fill-rule:nonzero;fill:rgb(18.431373%,30.980392%,30.980392%);fill-opacity:0.901961;stroke-width:0.708661;stroke-linecap:round;stroke-linejoin:round;stroke:rgb(18.431373%,30.980392%,30.980392%);stroke-opacity:0.901961;stroke-miterlimit:10;" d="M 297.703125 257.554688 C 297.703125 260.695312 295.15625 263.242188 292.015625 263.242188 C 288.871094 263.242188 286.324219 260.695312 286.324219 257.554688 C 286.324219 254.410156 288.871094 251.863281 292.015625 251.863281 C 295.15625 251.863281 297.703125 254.410156 297.703125 257.554688 "/>
<path style="fill-rule:nonzero;fill:rgb(18.431373%,30.980392%,30.980392%);fill-opacity:0.901961;stroke-width:0.708661;stroke-linecap:round;stroke-linejoin:round;stroke:rgb(18.431373%,30.980392%,30.980392%);stroke-opacity:0.901961;stroke-miterlimit:10;" d="M 390.867188 168.460938 C 390.867188 171.605469 388.320312 174.152344 385.175781 174.152344 C 382.035156 174.152344 379.488281 171.605469 379.488281 168.460938 C 379.488281 165.320312 382.035156 162.773438 385.175781 162.773438 C 388.320312 162.773438 390.867188 165.320312 390.867188 168.460938 "/>
<path style="fill-rule:nonzero;fill:rgb(18.431373%,30.980392%,30.980392%);fill-opacity:0.901961;stroke-width:0.708661;stroke-linecap:round;stroke-linejoin:round;stroke:rgb(18.431373%,30.980392%,30.980392%);stroke-opacity:0.901961;stroke-miterlimit:10;" d="M 514.285156 274.453125 C 514.285156 277.597656 511.738281 280.144531 508.59375 280.144531 C 505.453125 280.144531 502.90625 277.597656 502.90625 274.453125 C 502.90625 271.3125 505.453125 268.765625 508.59375 268.765625 C 511.738281 268.765625 514.285156 271.3125 514.285156 274.453125 "/>
<path style="fill-rule:nonzero;fill:rgb(18.431373%,30.980392%,30.980392%);fill-opacity:0.901961;stroke-width:0.708661;stroke-linecap:round;stroke-linejoin:round;stroke:rgb(18.431373%,30.980392%,30.980392%);stroke-opacity:0.901961;stroke-miterlimit:10;" d="M 454.445312 301.382812 C 454.445312 304.527344 451.898438 307.074219 448.757812 307.074219 C 445.613281 307.074219 443.066406 304.527344 443.066406 301.382812 C 443.066406 298.242188 445.613281 295.695312 448.757812 295.695312 C 451.898438 295.695312 454.445312 298.242188 454.445312 301.382812 "/>
<path style="fill-rule:nonzero;fill:rgb(18.431373%,30.980392%,30.980392%);fill-opacity:0.901961;stroke-width:0.708661;stroke-linecap:round;stroke-linejoin:round;stroke:rgb(18.431373%,30.980392%,30.980392%);stroke-opacity:0.901961;stroke-miterlimit:10;" d="M 305.230469 259.460938 C 305.230469 262.605469 302.683594 265.152344 299.542969 265.152344 C 296.402344 265.152344 293.855469 262.605469 293.855469 259.460938 C 293.855469 256.320312 296.402344 253.773438 299.542969 253.773438 C 302.683594 253.773438 305.230469 256.320312 305.230469 259.460938 "/>
<path style="fill-rule:nonzero;fill:rgb(18.431373%,30.980392%,30.980392%);fill-opacity:0.901961;stroke-width:0.708661;stroke-linecap:round;stroke-linejoin:round;stroke:rgb(18.431373%,30.980392%,30.980392%);stroke-opacity:0.901961;stroke-miterlimit:10;" d="M 438.285156 287.339844 C 438.285156 290.484375 435.738281 293.03125 432.59375 293.03125 C 429.453125 293.03125 426.90625 290.484375 426.90625 287.339844 C 426.90625 284.199219 429.453125 281.652344 432.59375 281.652344 C 435.738281 281.652344 438.285156 284.199219 438.285156 287.339844 "/>
<path style="fill-rule:nonzero;fill:rgb(18.431373%,30.980392%,30.980392%);fill-opacity:0.901961;stroke-width:0.708661;stroke-linecap:round;stroke-linejoin:round;stroke:rgb(18.431373%,30.980392%,30.980392%);stroke-opacity:0.901961;stroke-miterlimit:10;" d="M 492.359375 258.03125 C 492.359375 261.175781 489.8125 263.722656 486.671875 263.722656 C 483.527344 263.722656 480.980469 261.175781 480.980469 258.03125 C 480.980469 254.890625 483.527344 252.34375 486.671875 252.34375 C 489.8125 252.34375 492.359375 254.890625 492.359375 258.03125 "/>
<path style="fill-rule:nonzero;fill:rgb(18.431373%,30.980392%,30.980392%);fill-opacity:0.901961;stroke-width:0.708661;stroke-linecap:round;stroke-linejoin:round;stroke:rgb(18.431373%,30.980392%,30.980392%);stroke-opacity:0.901961;stroke-miterlimit:10;" d="M 249.179688 272.742188 C 249.179688 275.882812 246.632812 278.429688 243.492188 278.429688 C 240.347656 278.429688 237.800781 275.882812 237.800781 272.742188 C 237.800781 269.597656 240.347656 267.050781 243.492188 267.050781 C 246.632812 267.050781 249.179688 269.597656 249.179688 272.742188 "/>
<path style="fill-rule:nonzero;fill:rgb(18.431373%,30.980392%,30.980392%);fill-opacity:0.901961;stroke-width:0.708661;stroke-linecap:round;stroke-linejoin:round;stroke:rgb(18.431373%,30.980392%,30.980392%);stroke-opacity:0.901961;stroke-miterlimit:10;" d="M 501.328125 200.035156 C 501.328125 203.175781 498.78125 205.722656 495.636719 205.722656 C 492.496094 205.722656 489.949219 203.175781 489.949219 200.035156 C 489.949219 196.894531 492.496094 194.34375 495.636719 194.34375 C 498.78125 194.34375 501.328125 196.894531 501.328125 200.035156 "/>
<path style="fill-rule:nonzero;fill:rgb(18.431373%,30.980392%,30.980392%);fill-opacity:0.901961;stroke-width:0.708661;stroke-linecap:round;stroke-linejoin:round;stroke:rgb(18.431373%,30.980392%,30.980392%);stroke-opacity:0.901961;stroke-miterlimit:10;" d="M 291.03125 357.117188 C 291.03125 360.257812 288.480469 362.804688 285.339844 362.804688 C 282.199219 362.804688 279.652344 360.257812 279.652344 357.117188 C 279.652344 353.972656 282.199219 351.425781 285.339844 351.425781 C 288.480469 351.425781 291.03125 353.972656 291.03125 357.117188 "/>
<path style="fill-rule:nonzero;fill:rgb(18.431373%,30.980392%,30.980392%);fill-opacity:0.901961;stroke-width:0.708661;stroke-linecap:round;stroke-linejoin:round;stroke:rgb(18.431373%,30.980392%,30.980392%);stroke-opacity:0.901961;stroke-miterlimit:10;" d="M 472.117188 280.953125 C 472.117188 284.09375 469.566406 286.640625 466.425781 286.640625 C 463.285156 286.640625 460.738281 284.09375 460.738281 280.953125 C 460.738281 277.8125 463.285156 275.261719 466.425781 275.261719 C 469.566406 275.261719 472.117188 277.8125 472.117188 280.953125 "/>
<path style="fill-rule:nonzero;fill:rgb(18.431373%,30.980392%,30.980392%);fill-opacity:0.901961;stroke-width:0.708661;stroke-linecap:round;stroke-linejoin:round;stroke:rgb(18.431373%,30.980392%,30.980392%);stroke-opacity:0.901961;stroke-miterlimit:10;" d="M 317.277344 204.726562 C 317.277344 207.867188 314.730469 210.414062 311.585938 210.414062 C 308.445312 210.414062 305.898438 207.867188 305.898438 204.726562 C 305.898438 201.582031 308.445312 199.035156 311.585938 199.035156 C 314.730469 199.035156 317.277344 201.582031 317.277344 204.726562 "/>
<path style="fill-rule:nonzero;fill:rgb(18.431373%,30.980392%,30.980392%);fill-opacity:0.901961;stroke-width:0.708661;stroke-linecap:round;stroke-linejoin:round;stroke:rgb(18.431373%,30.980392%,30.980392%);stroke-opacity:0.901961;stroke-miterlimit:10;" d="M 438.683594 334.015625 C 438.683594 337.15625 436.136719 339.703125 432.996094 339.703125 C 429.855469 339.703125 427.308594 337.15625 427.308594 334.015625 C 427.308594 330.871094 429.855469 328.324219 432.996094 328.324219 C 436.136719 328.324219 438.683594 330.871094 438.683594 334.015625 "/>
<path style="fill-rule:nonzero;fill:rgb(18.431373%,30.980392%,30.980392%);fill-opacity:0.901961;stroke-width:0.708661;stroke-linecap:round;stroke-linejoin:round;stroke:rgb(18.431373%,30.980392%,30.980392%);stroke-opacity:0.901961;stroke-miterlimit:10;" d="M 527.851562 314.285156 C 527.851562 317.425781 525.304688 319.972656 522.164062 319.972656 C 519.019531 319.972656 516.472656 317.425781 516.472656 314.285156 C 516.472656 311.140625 519.019531 308.59375 522.164062 308.59375 C 525.304688 308.59375 527.851562 311.140625 527.851562 314.285156 "/>
<path style="fill-rule:nonzero;fill:rgb(18.431373%,30.980392%,30.980392%);fill-opacity:0.901961;stroke-width:0.708661;stroke-linecap:round;stroke-linejoin:round;stroke:rgb(18.431373%,30.980392%,30.980392%);stroke-opacity:0.901961;stroke-miterlimit:10;" d="M 372.886719 299.269531 C 372.886719 302.414062 370.339844 304.960938 367.199219 304.960938 C 364.058594 304.960938 361.511719 302.414062 361.511719 299.269531 C 361.511719 296.128906 364.058594 293.582031 367.199219 293.582031 C 370.339844 293.582031 372.886719 296.128906 372.886719 299.269531 "/>
<path style="fill-rule:nonzero;fill:rgb(18.431373%,30.980392%,30.980392%);fill-opacity:0.901961;stroke-width:0.708661;stroke-linecap:round;stroke-linejoin:round;stroke:rgb(18.431373%,30.980392%,30.980392%);stroke-opacity:0.901961;stroke-miterlimit:10;" d="M 665.285156 131.441406 C 665.285156 134.585938 662.738281 137.132812 659.59375 137.132812 C 656.453125 137.132812 653.90625 134.585938 653.90625 131.441406 C 653.90625 128.300781 656.453125 125.753906 659.59375 125.753906 C 662.738281 125.753906 665.285156 128.300781 665.285156 131.441406 "/>
<path style="fill-rule:nonzero;fill:rgb(18.431373%,30.980392%,30.980392%);fill-opacity:0.901961;stroke-width:0.708661;stroke-linecap:round;stroke-linejoin:round;stroke:rgb(18.431373%,30.980392%,30.980392%);stroke-opacity:0.901961;stroke-miterlimit:10;" d="M 353.953125 300.832031 C 353.953125 303.976562 351.40625 306.523438 348.261719 306.523438 C 345.121094 306.523438 342.574219 303.976562 342.574219 300.832031 C 342.574219 297.691406 345.121094 295.144531 348.261719 295.144531 C 351.40625 295.144531 353.953125 297.691406 353.953125 300.832031 "/>
<path style="fill-rule:nonzero;fill:rgb(18.431373%,30.980392%,30.980392%);fill-opacity:0.901961;stroke-width:0.708661;stroke-linecap:round;stroke-linejoin:round;stroke:rgb(18.431373%,30.980392%,30.980392%);stroke-opacity:0.901961;stroke-miterlimit:10;" d="M 197.324219 322.3125 C 197.324219 325.453125 194.777344 328 191.636719 328 C 188.492188 328 185.945312 325.453125 185.945312 322.3125 C 185.945312 319.167969 188.492188 316.621094 191.636719 316.621094 C 194.777344 316.621094 197.324219 319.167969 197.324219 322.3125 "/>
<path style="fill-rule:nonzero;fill:rgb(18.431373%,30.980392%,30.980392%);fill-opacity:0.901961;stroke-width:0.708661;stroke-linecap:round;stroke-linejoin:round;stroke:rgb(18.431373%,30.980392%,30.980392%);stroke-opacity:0.901961;stroke-miterlimit:10;" d="M 295.507812 290.960938 C 295.507812 294.101562 292.960938 296.648438 289.816406 296.648438 C 286.675781 296.648438 284.128906 294.101562 284.128906 290.960938 C 284.128906 287.820312 286.675781 285.269531 289.816406 285.269531 C 292.960938 285.269531 295.507812 287.820312 295.507812 290.960938 "/>
<path style="fill-rule:nonzero;fill:rgb(18.431373%,30.980392%,30.980392%);fill-opacity:0.901961;stroke-width:0.708661;stroke-linecap:round;stroke-linejoin:round;stroke:rgb(18.431373%,30.980392%,30.980392%);stroke-opacity:0.901961;stroke-miterlimit:10;" d="M 351.042969 193.078125 C 351.042969 196.21875 348.496094 198.765625 345.355469 198.765625 C 342.210938 198.765625 339.664062 196.21875 339.664062 193.078125 C 339.664062 189.9375 342.210938 187.390625 345.355469 187.390625 C 348.496094 187.390625 351.042969 189.9375 351.042969 193.078125 "/>
<path style="fill-rule:nonzero;fill:rgb(18.431373%,30.980392%,30.980392%);fill-opacity:0.901961;stroke-width:0.708661;stroke-linecap:round;stroke-linejoin:round;stroke:rgb(18.431373%,30.980392%,30.980392%);stroke-opacity:0.901961;stroke-miterlimit:10;" d="M 443.210938 214.941406 C 443.210938 218.082031 440.664062 220.628906 437.523438 220.628906 C 434.378906 220.628906 431.832031 218.082031 431.832031 214.941406 C 431.832031 211.796875 434.378906 209.25 437.523438 209.25 C 440.664062 209.25 443.210938 211.796875 443.210938 214.941406 "/>
<path style="fill-rule:nonzero;fill:rgb(18.431373%,30.980392%,30.980392%);fill-opacity:0.901961;stroke-width:0.708661;stroke-linecap:round;stroke-linejoin:round;stroke:rgb(18.431373%,30.980392%,30.980392%);stroke-opacity:0.901961;stroke-miterlimit:10;" d="M 435.726562 292.964844 C 435.726562 296.109375 433.179688 298.65625 430.039062 298.65625 C 426.898438 298.65625 424.351562 296.109375 424.351562 292.964844 C 424.351562 289.824219 426.898438 287.277344 430.039062 287.277344 C 433.179688 287.277344 435.726562 289.824219 435.726562 292.964844 "/>
<path style="fill-rule:nonzero;fill:rgb(18.431373%,30.980392%,30.980392%);fill-opacity:0.901961;stroke-width:0.708661;stroke-linecap:round;stroke-linejoin:round;stroke:rgb(18.431373%,30.980392%,30.980392%);stroke-opacity:0.901961;stroke-miterlimit:10;" d="M 579.316406 125.550781 C 579.316406 128.695312 576.765625 131.242188 573.625 131.242188 C 570.484375 131.242188 567.9375 128.695312 567.9375 125.550781 C 567.9375 122.410156 570.484375 119.863281 573.625 119.863281 C 576.765625 119.863281 579.316406 122.410156 579.316406 125.550781 "/>
<path style="fill-rule:nonzero;fill:rgb(18.431373%,30.980392%,30.980392%);fill-opacity:0.901961;stroke-width:0.708661;stroke-linecap:round;stroke-linejoin:round;stroke:rgb(18.431373%,30.980392%,30.980392%);stroke-opacity:0.901961;stroke-miterlimit:10;" d="M 349.359375 252.972656 C 349.359375 256.113281 346.808594 258.660156 343.667969 258.660156 C 340.527344 258.660156 337.980469 256.113281 337.980469 252.972656 C 337.980469 249.828125 340.527344 247.28125 343.667969 247.28125 C 346.808594 247.28125 349.359375 249.828125 349.359375 252.972656 "/>
<path style="fill-rule:nonzero;fill:rgb(18.431373%,30.980392%,30.980392%);fill-opacity:0.901961;stroke-width:0.708661;stroke-linecap:round;stroke-linejoin:round;stroke:rgb(18.431373%,30.980392%,30.980392%);stroke-opacity:0.901961;stroke-miterlimit:10;" d="M 28.921875 423.492188 C 28.921875 426.636719 26.375 429.183594 23.234375 429.183594 C 20.089844 429.183594 17.542969 426.636719 17.542969 423.492188 C 17.542969 420.351562 20.089844 417.804688 23.234375 417.804688 C 26.375 417.804688 28.921875 420.351562 28.921875 423.492188 "/>
<path style="fill-rule:nonzero;fill:rgb(18.431373%,30.980392%,30.980392%);fill-opacity:0.901961;stroke-width:0.708661;stroke-linecap:round;stroke-linejoin:round;stroke:rgb(18.431373%,30.980392%,30.980392%);stroke-opacity:0.901961;stroke-miterlimit:10;" d="M 579.359375 214.074219 C 579.359375 217.21875 576.808594 219.765625 573.667969 219.765625 C 570.527344 219.765625 567.980469 217.21875 567.980469 214.074219 C 567.980469 210.933594 570.527344 208.386719 573.667969 208.386719 C 576.808594 208.386719 579.359375 210.933594 579.359375 214.074219 "/>
<path style="fill-rule:nonzero;fill:rgb(18.431373%,30.980392%,30.980392%);fill-opacity:0.901961;stroke-width:0.708661;stroke-linecap:round;stroke-linejoin:round;stroke:rgb(18.431373%,30.980392%,30.980392%);stroke-opacity:0.901961;stroke-miterlimit:10;" d="M 597.675781 199.050781 C 597.675781 202.195312 595.128906 204.742188 591.984375 204.742188 C 588.84375 204.742188 586.296875 202.195312 586.296875 199.050781 C 586.296875 195.910156 588.84375 193.363281 591.984375 193.363281 C 595.128906 193.363281 597.675781 195.910156 597.675781 199.050781 "/>
<path style="fill-rule:nonzero;fill:rgb(18.431373%,30.980392%,30.980392%);fill-opacity:0.901961;stroke-width:0.708661;stroke-linecap:round;stroke-linejoin:round;stroke:rgb(18.431373%,30.980392%,30.980392%);stroke-opacity:0.901961;stroke-miterlimit:10;" d="M 511.488281 226.226562 C 511.488281 229.371094 508.941406 231.917969 505.796875 231.917969 C 502.65625 231.917969 500.109375 229.371094 500.109375 226.226562 C 500.109375 223.085938 502.65625 220.539062 505.796875 220.539062 C 508.941406 220.539062 511.488281 223.085938 511.488281 226.226562 "/>
<path style="fill-rule:nonzero;fill:rgb(18.431373%,30.980392%,30.980392%);fill-opacity:0.901961;stroke-width:0.708661;stroke-linecap:round;stroke-linejoin:round;stroke:rgb(18.431373%,30.980392%,30.980392%);stroke-opacity:0.901961;stroke-miterlimit:10;" d="M 189.917969 319.210938 C 189.917969 322.351562 187.371094 324.898438 184.226562 324.898438 C 181.085938 324.898438 178.539062 322.351562 178.539062 319.210938 C 178.539062 316.070312 181.085938 313.523438 184.226562 313.523438 C 187.371094 313.523438 189.917969 316.070312 189.917969 319.210938 "/>
<path style="fill-rule:nonzero;fill:rgb(18.431373%,30.980392%,30.980392%);fill-opacity:0.901961;stroke-width:0.708661;stroke-linecap:round;stroke-linejoin:round;stroke:rgb(18.431373%,30.980392%,30.980392%);stroke-opacity:0.901961;stroke-miterlimit:10;" d="M 456.808594 232.507812 C 456.808594 235.648438 454.261719 238.195312 451.117188 238.195312 C 447.976562 238.195312 445.429688 235.648438 445.429688 232.507812 C 445.429688 229.367188 447.976562 226.816406 451.117188 226.816406 C 454.261719 226.816406 456.808594 229.367188 456.808594 232.507812 "/>
<path style="fill-rule:nonzero;fill:rgb(18.431373%,30.980392%,30.980392%);fill-opacity:0.901961;stroke-width:0.708661;stroke-linecap:round;stroke-linejoin:round;stroke:rgb(18.431373%,30.980392%,30.980392%);stroke-opacity:0.901961;stroke-miterlimit:10;" d="M 630.234375 210.085938 C 630.234375 213.226562 627.6875 215.773438 624.546875 215.773438 C 621.40625 215.773438 618.859375 213.226562 618.859375 210.085938 C 618.859375 206.945312 621.40625 204.394531 624.546875 204.394531 C 627.6875 204.394531 630.234375 206.945312 630.234375 210.085938 "/>
<path style="fill-rule:nonzero;fill:rgb(18.431373%,30.980392%,30.980392%);fill-opacity:0.901961;stroke-width:0.708661;stroke-linecap:round;stroke-linejoin:round;stroke:rgb(18.431373%,30.980392%,30.980392%);stroke-opacity:0.901961;stroke-miterlimit:10;" d="M 541.25 315.578125 C 541.25 318.71875 538.699219 321.265625 535.558594 321.265625 C 532.417969 321.265625 529.871094 318.71875 529.871094 315.578125 C 529.871094 312.4375 532.417969 309.886719 535.558594 309.886719 C 538.699219 309.886719 541.25 312.4375 541.25 315.578125 "/>
<path style="fill-rule:nonzero;fill:rgb(18.431373%,30.980392%,30.980392%);fill-opacity:0.901961;stroke-width:0.708661;stroke-linecap:round;stroke-linejoin:round;stroke:rgb(18.431373%,30.980392%,30.980392%);stroke-opacity:0.901961;stroke-miterlimit:10;" d="M 579.265625 187.777344 C 579.265625 190.917969 576.71875 193.464844 573.574219 193.464844 C 570.433594 193.464844 567.886719 190.917969 567.886719 187.777344 C 567.886719 184.636719 570.433594 182.089844 573.574219 182.089844 C 576.71875 182.089844 579.265625 184.636719 579.265625 187.777344 "/>
<path style="fill-rule:nonzero;fill:rgb(18.431373%,30.980392%,30.980392%);fill-opacity:0.901961;stroke-width:0.708661;stroke-linecap:round;stroke-linejoin:round;stroke:rgb(18.431373%,30.980392%,30.980392%);stroke-opacity:0.901961;stroke-miterlimit:10;" d="M 556.851562 215.699219 C 556.851562 218.84375 554.304688 221.390625 551.164062 221.390625 C 548.023438 221.390625 545.472656 218.84375 545.472656 215.699219 C 545.472656 212.558594 548.023438 210.011719 551.164062 210.011719 C 554.304688 210.011719 556.851562 212.558594 556.851562 215.699219 "/>
<path style="fill-rule:nonzero;fill:rgb(18.431373%,30.980392%,30.980392%);fill-opacity:0.901961;stroke-width:0.708661;stroke-linecap:round;stroke-linejoin:round;stroke:rgb(18.431373%,30.980392%,30.980392%);stroke-opacity:0.901961;stroke-miterlimit:10;" d="M 424.226562 205.5625 C 424.226562 208.703125 421.679688 211.25 418.539062 211.25 C 415.394531 211.25 412.847656 208.703125 412.847656 205.5625 C 412.847656 202.421875 415.394531 199.875 418.539062 199.875 C 421.679688 199.875 424.226562 202.421875 424.226562 205.5625 "/>
<path style="fill-rule:nonzero;fill:rgb(18.431373%,30.980392%,30.980392%);fill-opacity:0.901961;stroke-width:0.708661;stroke-linecap:round;stroke-linejoin:round;stroke:rgb(18.431373%,30.980392%,30.980392%);stroke-opacity:0.901961;stroke-miterlimit:10;" d="M 440.566406 257.4375 C 440.566406 260.582031 438.019531 263.128906 434.875 263.128906 C 431.734375 263.128906 429.1875 260.582031 429.1875 257.4375 C 429.1875 254.296875 431.734375 251.75 434.875 251.75 C 438.019531 251.75 440.566406 254.296875 440.566406 257.4375 "/>
<path style="fill-rule:nonzero;fill:rgb(18.431373%,30.980392%,30.980392%);fill-opacity:0.901961;stroke-width:0.708661;stroke-linecap:round;stroke-linejoin:round;stroke:rgb(18.431373%,30.980392%,30.980392%);stroke-opacity:0.901961;stroke-miterlimit:10;" d="M 596.347656 227.917969 C 596.347656 231.058594 593.800781 233.605469 590.65625 233.605469 C 587.515625 233.605469 584.96875 231.058594 584.96875 227.917969 C 584.96875 224.777344 587.515625 222.230469 590.65625 222.230469 C 593.800781 222.230469 596.347656 224.777344 596.347656 227.917969 "/>
<path style="fill-rule:nonzero;fill:rgb(18.431373%,30.980392%,30.980392%);fill-opacity:0.901961;stroke-width:0.708661;stroke-linecap:round;stroke-linejoin:round;stroke:rgb(18.431373%,30.980392%,30.980392%);stroke-opacity:0.901961;stroke-miterlimit:10;" d="M 545.164062 206.691406 C 545.164062 209.835938 542.617188 212.382812 539.472656 212.382812 C 536.332031 212.382812 533.785156 209.835938 533.785156 206.691406 C 533.785156 203.550781 536.332031 201.003906 539.472656 201.003906 C 542.617188 201.003906 545.164062 203.550781 545.164062 206.691406 "/>
<path style="fill-rule:nonzero;fill:rgb(18.431373%,30.980392%,30.980392%);fill-opacity:0.901961;stroke-width:0.708661;stroke-linecap:round;stroke-linejoin:round;stroke:rgb(18.431373%,30.980392%,30.980392%);stroke-opacity:0.901961;stroke-miterlimit:10;" d="M 496.679688 248.210938 C 496.679688 251.355469 494.132812 253.902344 490.992188 253.902344 C 487.847656 253.902344 485.300781 251.355469 485.300781 248.210938 C 485.300781 245.070312 487.847656 242.523438 490.992188 242.523438 C 494.132812 242.523438 496.679688 245.070312 496.679688 248.210938 "/>
<path style="fill-rule:nonzero;fill:rgb(18.431373%,30.980392%,30.980392%);fill-opacity:0.901961;stroke-width:0.708661;stroke-linecap:round;stroke-linejoin:round;stroke:rgb(18.431373%,30.980392%,30.980392%);stroke-opacity:0.901961;stroke-miterlimit:10;" d="M 359.328125 297.378906 C 359.328125 300.519531 356.78125 303.066406 353.640625 303.066406 C 350.496094 303.066406 347.949219 300.519531 347.949219 297.378906 C 347.949219 294.234375 350.496094 291.6875 353.640625 291.6875 C 356.78125 291.6875 359.328125 294.234375 359.328125 297.378906 "/>
<path style="fill-rule:nonzero;fill:rgb(18.431373%,30.980392%,30.980392%);fill-opacity:0.901961;stroke-width:0.708661;stroke-linecap:round;stroke-linejoin:round;stroke:rgb(18.431373%,30.980392%,30.980392%);stroke-opacity:0.901961;stroke-miterlimit:10;" d="M 376.203125 303.902344 C 376.203125 307.042969 373.65625 309.59375 370.511719 309.59375 C 367.371094 309.59375 364.824219 307.042969 364.824219 303.902344 C 364.824219 300.761719 367.371094 298.214844 370.511719 298.214844 C 373.65625 298.214844 376.203125 300.761719 376.203125 303.902344 "/>
<path style="fill:none;stroke-width:4.267913;stroke-linecap:butt;stroke-linejoin:round;stroke:rgb(100%,64.705882%,0%);stroke-opacity:0.901961;stroke-miterlimit:10;" d="M 0 29.78125 L 756 354.777344 "/>
</g>
</svg>
