<?xml version="1.0" encoding="UTF-8"?>
<svg xmlns="http://www.w3.org/2000/svg" xmlns:xlink="http://www.w3.org/1999/xlink" width="756pt" height="504pt" viewBox="0 0 756 504" version="1.1">
<g id="surface54">
<rect x="0" y="0" width="756" height="504" style="fill:rgb(100%,100%,100%);fill-opacity:1;stroke:none;"/>
<path style="fill:none;stroke-width:6.40187;stroke-linecap:butt;stroke-linejoin:round;stroke:rgb(90.196078%,25.490196%,45.098039%);stroke-opacity:0.298039;stroke-miterlimit:10;" d="M 0 419.949219 L 756 153.648438 "/>
<path style="fill-rule:nonzero;fill:rgb(18.431373%,30.980392%,30.980392%);fill-opacity:1;stroke-width:0.708661;stroke-linecap:round;stroke-linejoin:round;stroke:rgb(18.431373%,30.980392%,30.980392%);stroke-opacity:1;stroke-miterlimit:10;" d="M 607.5625 87.46875 C 607.5625 91.199219 604.539062 94.226562 600.804688 94.226562 C 597.074219 94.226562 594.050781 91.199219 594.050781 87.46875 C 594.050781 83.738281 597.074219 80.710938 600.804688 80.710938 C 604.539062 80.710938 607.5625 83.738281 607.5625 87.46875 "/>
<path style="fill:none;stroke-width:0.708661;stroke-linecap:round;stroke-linejoin:round;stroke:rgb(18.431373%,30.980392%,30.980392%);stroke-opacity:1;stroke-miterlimit:10;" d="M 609.714844 227.761719 C 609.714844 231.492188 606.6875 234.519531 602.957031 234.519531 C 599.226562 234.519531 596.203125 231.492188 596.203125 227.761719 C 596.203125 224.03125 599.226562 221.007812 602.957031 221.007812 C 606.6875 221.007812 609.714844 224.03125 609.714844 227.761719 "/>
<path style="fill:none;stroke-width:0.708661;stroke-linecap:round;stroke-linejoin:round;stroke:rgb(18.431373%,30.980392%,30.980392%);stroke-opacity:1;stroke-miterlimit:10;" d="M 197.253906 399.761719 C 197.253906 403.492188 194.226562 406.519531 190.496094 406.519531 C 186.765625 406.519531 183.742188 403.492188 183.742188 399.761719 C 183.742188 396.03125 186.765625 393.003906 190.496094 393.003906 C 194.226562 393.003906 197.253906 396.03125 197.253906 399.761719 "/>
<path style="fill:none;stroke-width:0.708661;stroke-linecap:round;stroke-linejoin:round;stroke:rgb(18.431373%,30.980392%,30.980392%);stroke-opacity:1;stroke-miterlimit:10;" d="M 425.355469 194.382812 C 425.355469 198.113281 422.332031 201.140625 418.597656 201.140625 C 414.867188 201.140625 411.84375 198.113281 411.84375 194.382812 C 411.84375 190.652344 414.867188 187.628906 418.597656 187.628906 C 422.332031 187.628906 425.355469 190.652344 425.355469 194.382812 "/>
<path style="fill:none;stroke-width:0.708661;stroke-linecap:round;stroke-linejoin:round;stroke:rgb(18.431373%,30.980392%,30.980392%);stroke-opacity:1;stroke-miterlimit:10;" d="M 366.523438 331.808594 C 366.523438 335.539062 363.5 338.566406 359.765625 338.566406 C 356.035156 338.566406 353.011719 335.539062 353.011719 331.808594 C 353.011719 328.078125 356.035156 325.050781 359.765625 325.050781 C 363.5 325.050781 366.523438 328.078125 366.523438 331.808594 "/>
<path style="fill:none;stroke-width:0.708661;stroke-linecap:round;stroke-linejoin:round;stroke:rgb(18.431373%,30.980392%,30.980392%);stroke-opacity:1;stroke-miterlimit:10;" d="M 404.023438 270.941406 C 404.023438 274.671875 400.996094 277.699219 397.265625 277.699219 C 393.535156 277.699219 390.511719 274.671875 390.511719 270.941406 C 390.511719 267.210938 393.535156 264.183594 397.265625 264.183594 C 400.996094 264.183594 404.023438 267.210938 404.023438 270.941406 "/>
<path style="fill-rule:nonzero;fill:rgb(18.431373%,30.980392%,30.980392%);fill-opacity:1;stroke-width:0.708661;stroke-linecap:round;stroke-linejoin:round;stroke:rgb(18.431373%,30.980392%,30.980392%);stroke-opacity:1;stroke-miterlimit:10;" d="M 491.714844 218.839844 C 491.714844 222.570312 488.691406 225.59375 484.960938 225.59375 C 481.230469 225.59375 478.203125 222.570312 478.203125 218.839844 C 478.203125 215.105469 481.230469 212.082031 484.960938 212.082031 C 488.691406 212.082031 491.714844 215.105469 491.714844 218.839844 "/>
<path style="fill-rule:nonzero;fill:rgb(18.431373%,30.980392%,30.980392%);fill-opacity:1;stroke-width:0.708661;stroke-linecap:round;stroke-linejoin:round;stroke:rgb(18.431373%,30.980392%,30.980392%);stroke-opacity:1;stroke-miterlimit:10;" d="M 527.761719 307.71875 C 527.761719 311.449219 524.738281 314.472656 521.007812 314.472656 C 517.273438 314.472656 514.25 311.449219 514.25 307.71875 C 514.25 303.984375 517.273438 300.960938 521.007812 300.960938 C 524.738281 300.960938 527.761719 303.984375 527.761719 307.71875 "/>
<path style="fill:none;stroke-width:0.708661;stroke-linecap:round;stroke-linejoin:round;stroke:rgb(18.431373%,30.980392%,30.980392%);stroke-opacity:1;stroke-miterlimit:10;" d="M 472.695312 213.777344 C 472.695312 217.511719 469.671875 220.535156 465.9375 220.535156 C 462.207031 220.535156 459.183594 217.511719 459.183594 213.777344 C 459.183594 210.046875 462.207031 207.023438 465.9375 207.023438 C 469.671875 207.023438 472.695312 210.046875 472.695312 213.777344 "/>
<path style="fill:none;stroke-width:0.708661;stroke-linecap:round;stroke-linejoin:round;stroke:rgb(18.431373%,30.980392%,30.980392%);stroke-opacity:1;stroke-miterlimit:10;" d="M 355.136719 344.992188 C 355.136719 348.722656 352.113281 351.75 348.382812 351.75 C 344.652344 351.75 341.625 348.722656 341.625 344.992188 C 341.625 341.261719 344.652344 338.238281 348.382812 338.238281 C 352.113281 338.238281 355.136719 341.261719 355.136719 344.992188 "/>
<path style="fill-rule:nonzero;fill:rgb(18.431373%,30.980392%,30.980392%);fill-opacity:1;stroke-width:0.708661;stroke-linecap:round;stroke-linejoin:round;stroke:rgb(18.431373%,30.980392%,30.980392%);stroke-opacity:1;stroke-miterlimit:10;" d="M 644 167.644531 C 644 171.375 640.976562 174.398438 637.246094 174.398438 C 633.515625 174.398438 630.488281 171.375 630.488281 167.644531 C 630.488281 163.910156 633.515625 160.886719 637.246094 160.886719 C 640.976562 160.886719 644 163.910156 644 167.644531 "/>
<path style="fill:none;stroke-width:0.708661;stroke-linecap:round;stroke-linejoin:round;stroke:rgb(18.431373%,30.980392%,30.980392%);stroke-opacity:1;stroke-miterlimit:10;" d="M 631.945312 220.703125 C 631.945312 224.433594 628.921875 227.457031 625.191406 227.457031 C 621.457031 227.457031 618.433594 224.433594 618.433594 220.703125 C 618.433594 216.96875 621.457031 213.945312 625.191406 213.945312 C 628.921875 213.945312 631.945312 216.96875 631.945312 220.703125 "/>
<path style="fill:none;stroke-width:0.708661;stroke-linecap:round;stroke-linejoin:round;stroke:rgb(18.431373%,30.980392%,30.980392%);stroke-opacity:1;stroke-miterlimit:10;" d="M 410.949219 275.710938 C 410.949219 279.445312 407.921875 282.46875 404.191406 282.46875 C 400.460938 282.46875 397.433594 279.445312 397.433594 275.710938 C 397.433594 271.980469 400.460938 268.957031 404.191406 268.957031 C 407.921875 268.957031 410.949219 271.980469 410.949219 275.710938 "/>
<path style="fill:none;stroke-width:0.708661;stroke-linecap:round;stroke-linejoin:round;stroke:rgb(18.431373%,30.980392%,30.980392%);stroke-opacity:1;stroke-miterlimit:10;" d="M 727.863281 76.882812 C 727.863281 80.613281 724.835938 83.640625 721.105469 83.640625 C 717.375 83.640625 714.351562 80.613281 714.351562 76.882812 C 714.351562 73.152344 717.375 70.128906 721.105469 70.128906 C 724.835938 70.128906 727.863281 73.152344 727.863281 76.882812 "/>
<path style="fill:none;stroke-width:0.708661;stroke-linecap:round;stroke-linejoin:round;stroke:rgb(18.431373%,30.980392%,30.980392%);stroke-opacity:1;stroke-miterlimit:10;" d="M 111.15625 333.800781 C 111.15625 337.535156 108.132812 340.558594 104.398438 340.558594 C 100.667969 340.558594 97.644531 337.535156 97.644531 333.800781 C 97.644531 330.070312 100.667969 327.046875 104.398438 327.046875 C 108.132812 327.046875 111.15625 330.070312 111.15625 333.800781 "/>
<path style="fill-rule:nonzero;fill:rgb(18.431373%,30.980392%,30.980392%);fill-opacity:1;stroke-width:0.708661;stroke-linecap:round;stroke-linejoin:round;stroke:rgb(18.431373%,30.980392%,30.980392%);stroke-opacity:1;stroke-miterlimit:10;" d="M 520.058594 249.644531 C 520.058594 253.375 517.035156 256.398438 513.304688 256.398438 C 509.570312 256.398438 506.546875 253.375 506.546875 249.644531 C 506.546875 245.914062 509.570312 242.886719 513.304688 242.886719 C 517.035156 242.886719 520.058594 245.914062 520.058594 249.644531 "/>
<path style="fill:none;stroke-width:0.708661;stroke-linecap:round;stroke-linejoin:round;stroke:rgb(18.431373%,30.980392%,30.980392%);stroke-opacity:1;stroke-miterlimit:10;" d="M 455.253906 210.484375 C 455.253906 214.214844 452.226562 217.238281 448.496094 217.238281 C 444.765625 217.238281 441.742188 214.214844 441.742188 210.484375 C 441.742188 206.75 444.765625 203.726562 448.496094 203.726562 C 452.226562 203.726562 455.253906 206.75 455.253906 210.484375 "/>
<path style="fill-rule:nonzero;fill:rgb(18.431373%,30.980392%,30.980392%);fill-opacity:1;stroke-width:0.708661;stroke-linecap:round;stroke-linejoin:round;stroke:rgb(18.431373%,30.980392%,30.980392%);stroke-opacity:1;stroke-miterlimit:10;" d="M 262.667969 291.074219 C 262.667969 294.804688 259.640625 297.828125 255.910156 297.828125 C 252.179688 297.828125 249.15625 294.804688 249.15625 291.074219 C 249.15625 287.339844 252.179688 284.316406 255.910156 284.316406 C 259.640625 284.316406 262.667969 287.339844 262.667969 291.074219 "/>
<path style="fill-rule:nonzero;fill:rgb(18.431373%,30.980392%,30.980392%);fill-opacity:1;stroke-width:0.708661;stroke-linecap:round;stroke-linejoin:round;stroke:rgb(18.431373%,30.980392%,30.980392%);stroke-opacity:1;stroke-miterlimit:10;" d="M 599.15625 233.949219 C 599.15625 237.679688 596.132812 240.703125 592.398438 240.703125 C 588.667969 240.703125 585.644531 237.679688 585.644531 233.949219 C 585.644531 230.21875 588.667969 227.191406 592.398438 227.191406 C 596.132812 227.191406 599.15625 230.21875 599.15625 233.949219 "/>
<path style="fill:none;stroke-width:0.708661;stroke-linecap:round;stroke-linejoin:round;stroke:rgb(18.431373%,30.980392%,30.980392%);stroke-opacity:1;stroke-miterlimit:10;" d="M 266.785156 361.824219 C 266.785156 365.558594 263.761719 368.582031 260.03125 368.582031 C 256.300781 368.582031 253.273438 365.558594 253.273438 361.824219 C 253.273438 358.09375 256.300781 355.070312 260.03125 355.070312 C 263.761719 355.070312 266.785156 358.09375 266.785156 361.824219 "/>
<path style="fill-rule:nonzero;fill:rgb(18.431373%,30.980392%,30.980392%);fill-opacity:1;stroke-width:0.708661;stroke-linecap:round;stroke-linejoin:round;stroke:rgb(18.431373%,30.980392%,30.980392%);stroke-opacity:1;stroke-miterlimit:10;" d="M 387.863281 252.96875 C 387.863281 256.699219 384.835938 259.722656 381.105469 259.722656 C 377.375 259.722656 374.351562 256.699219 374.351562 252.96875 C 374.351562 249.234375 377.375 246.210938 381.105469 246.210938 C 384.835938 246.210938 387.863281 249.234375 387.863281 252.96875 "/>
<path style="fill:none;stroke-width:0.708661;stroke-linecap:round;stroke-linejoin:round;stroke:rgb(18.431373%,30.980392%,30.980392%);stroke-opacity:1;stroke-miterlimit:10;" d="M 705.789062 110.398438 C 705.789062 114.128906 702.765625 117.152344 699.035156 117.152344 C 695.300781 117.152344 692.277344 114.128906 692.277344 110.398438 C 692.277344 106.664062 695.300781 103.640625 699.035156 103.640625 C 702.765625 103.640625 705.789062 106.664062 705.789062 110.398438 "/>
<path style="fill:none;stroke-width:0.708661;stroke-linecap:round;stroke-linejoin:round;stroke:rgb(18.431373%,30.980392%,30.980392%);stroke-opacity:1;stroke-miterlimit:10;" d="M 237.003906 366.277344 C 237.003906 370.007812 233.976562 373.03125 230.246094 373.03125 C 226.515625 373.03125 223.488281 370.007812 223.488281 366.277344 C 223.488281 362.542969 226.515625 359.519531 230.246094 359.519531 C 233.976562 359.519531 237.003906 362.542969 237.003906 366.277344 "/>
<path style="fill:none;stroke-width:0.708661;stroke-linecap:round;stroke-linejoin:round;stroke:rgb(18.431373%,30.980392%,30.980392%);stroke-opacity:1;stroke-miterlimit:10;" d="M 131.691406 336.914062 C 131.691406 340.644531 128.664062 343.667969 124.933594 343.667969 C 121.203125 343.667969 118.175781 340.644531 118.175781 336.914062 C 118.175781 333.179688 121.203125 330.15625 124.933594 330.15625 C 128.664062 330.15625 131.691406 333.179688 131.691406 336.914062 "/>
<path style="fill-rule:nonzero;fill:rgb(18.431373%,30.980392%,30.980392%);fill-opacity:1;stroke-width:0.708661;stroke-linecap:round;stroke-linejoin:round;stroke:rgb(18.431373%,30.980392%,30.980392%);stroke-opacity:1;stroke-miterlimit:10;" d="M 560.914062 256.414062 C 560.914062 260.144531 557.890625 263.171875 554.160156 263.171875 C 550.425781 263.171875 547.402344 260.144531 547.402344 256.414062 C 547.402344 252.683594 550.425781 249.65625 554.160156 249.65625 C 557.890625 249.65625 560.914062 252.683594 560.914062 256.414062 "/>
<path style="fill:none;stroke-width:0.708661;stroke-linecap:round;stroke-linejoin:round;stroke:rgb(18.431373%,30.980392%,30.980392%);stroke-opacity:1;stroke-miterlimit:10;" d="M 588.820312 293.527344 C 588.820312 297.257812 585.796875 300.285156 582.066406 300.285156 C 578.335938 300.285156 575.308594 297.257812 575.308594 293.527344 C 575.308594 289.796875 578.335938 286.769531 582.066406 286.769531 C 585.796875 286.769531 588.820312 289.796875 588.820312 293.527344 "/>
<path style="fill:none;stroke-width:0.708661;stroke-linecap:round;stroke-linejoin:round;stroke:rgb(18.431373%,30.980392%,30.980392%);stroke-opacity:1;stroke-miterlimit:10;" d="M 215.558594 331.496094 C 215.558594 335.226562 212.535156 338.253906 208.804688 338.253906 C 205.070312 338.253906 202.046875 335.226562 202.046875 331.496094 C 202.046875 327.765625 205.070312 324.742188 208.804688 324.742188 C 212.535156 324.742188 215.558594 327.765625 215.558594 331.496094 "/>
<path style="fill:none;stroke-width:0.708661;stroke-linecap:round;stroke-linejoin:round;stroke:rgb(18.431373%,30.980392%,30.980392%);stroke-opacity:1;stroke-miterlimit:10;" d="M 384.265625 251.8125 C 384.265625 255.542969 381.238281 258.566406 377.507812 258.566406 C 373.777344 258.566406 370.753906 255.542969 370.753906 251.8125 C 370.753906 248.082031 373.777344 245.054688 377.507812 245.054688 C 381.238281 245.054688 384.265625 248.082031 384.265625 251.8125 "/>
<path style="fill-rule:nonzero;fill:rgb(18.431373%,30.980392%,30.980392%);fill-opacity:1;stroke-width:0.708661;stroke-linecap:round;stroke-linejoin:round;stroke:rgb(18.431373%,30.980392%,30.980392%);stroke-opacity:1;stroke-miterlimit:10;" d="M 221.859375 344.394531 C 221.859375 348.128906 218.832031 351.152344 215.101562 351.152344 C 211.371094 351.152344 208.34375 348.128906 208.34375 344.394531 C 208.34375 340.664062 211.371094 337.640625 215.101562 337.640625 C 218.832031 337.640625 221.859375 340.664062 221.859375 344.394531 "/>
<path style="fill:none;stroke-width:0.708661;stroke-linecap:round;stroke-linejoin:round;stroke:rgb(18.431373%,30.980392%,30.980392%);stroke-opacity:1;stroke-miterlimit:10;" d="M 590.828125 301.992188 C 590.828125 305.722656 587.800781 308.746094 584.070312 308.746094 C 580.339844 308.746094 577.3125 305.722656 577.3125 301.992188 C 577.3125 298.257812 580.339844 295.234375 584.070312 295.234375 C 587.800781 295.234375 590.828125 298.257812 590.828125 301.992188 "/>
<path style="fill:none;stroke-width:0.708661;stroke-linecap:round;stroke-linejoin:round;stroke:rgb(18.431373%,30.980392%,30.980392%);stroke-opacity:1;stroke-miterlimit:10;" d="M 265.570312 360.511719 C 265.570312 364.246094 262.542969 367.269531 258.8125 367.269531 C 255.082031 367.269531 252.054688 364.246094 252.054688 360.511719 C 252.054688 356.78125 255.082031 353.757812 258.8125 353.757812 C 262.542969 353.757812 265.570312 356.78125 265.570312 360.511719 "/>
<path style="fill:none;stroke-width:0.708661;stroke-linecap:round;stroke-linejoin:round;stroke:rgb(18.431373%,30.980392%,30.980392%);stroke-opacity:1;stroke-miterlimit:10;" d="M 459.011719 250.269531 C 459.011719 254.003906 455.988281 257.027344 452.257812 257.027344 C 448.527344 257.027344 445.5 254.003906 445.5 250.269531 C 445.5 246.539062 448.527344 243.515625 452.257812 243.515625 C 455.988281 243.515625 459.011719 246.539062 459.011719 250.269531 "/>
<path style="fill:none;stroke-width:0.708661;stroke-linecap:round;stroke-linejoin:round;stroke:rgb(18.431373%,30.980392%,30.980392%);stroke-opacity:1;stroke-miterlimit:10;" d="M 369.289062 345.929688 C 369.289062 349.660156 366.265625 352.683594 362.535156 352.683594 C 358.804688 352.683594 355.777344 349.660156 355.777344 345.929688 C 355.777344 342.195312 358.804688 339.171875 362.535156 339.171875 C 366.265625 339.171875 369.289062 342.195312 369.289062 345.929688 "/>
<path style="fill:none;stroke-width:0.708661;stroke-linecap:round;stroke-linejoin:round;stroke:rgb(18.431373%,30.980392%,30.980392%);stroke-opacity:1;stroke-miterlimit:10;" d="M 552.917969 251.425781 C 552.917969 255.15625 549.890625 258.183594 546.160156 258.183594 C 542.429688 258.183594 539.40625 255.15625 539.40625 251.425781 C 539.40625 247.695312 542.429688 244.671875 546.160156 244.671875 C 549.890625 244.671875 552.917969 247.695312 552.917969 251.425781 "/>
<path style="fill:none;stroke-width:0.708661;stroke-linecap:round;stroke-linejoin:round;stroke:rgb(18.431373%,30.980392%,30.980392%);stroke-opacity:1;stroke-miterlimit:10;" d="M 373.472656 325 C 373.472656 328.730469 370.445312 331.753906 366.714844 331.753906 C 362.984375 331.753906 359.960938 328.730469 359.960938 325 C 359.960938 321.265625 362.984375 318.242188 366.714844 318.242188 C 370.445312 318.242188 373.472656 321.265625 373.472656 325 "/>
<path style="fill:none;stroke-width:0.708661;stroke-linecap:round;stroke-linejoin:round;stroke:rgb(18.431373%,30.980392%,30.980392%);stroke-opacity:1;stroke-miterlimit:10;" d="M 529.09375 333.480469 C 529.09375 337.210938 526.066406 340.238281 522.335938 340.238281 C 518.605469 340.238281 515.578125 337.210938 515.578125 333.480469 C 515.578125 329.75 518.605469 326.722656 522.335938 326.722656 C 526.066406 326.722656 529.09375 329.75 529.09375 333.480469 "/>
<path style="fill:none;stroke-width:0.708661;stroke-linecap:round;stroke-linejoin:round;stroke:rgb(18.431373%,30.980392%,30.980392%);stroke-opacity:1;stroke-miterlimit:10;" d="M 302.539062 383.816406 C 302.539062 387.550781 299.515625 390.574219 295.785156 390.574219 C 292.054688 390.574219 289.027344 387.550781 289.027344 383.816406 C 289.027344 380.085938 292.054688 377.0625 295.785156 377.0625 C 299.515625 377.0625 302.539062 380.085938 302.539062 383.816406 "/>
<path style="fill:none;stroke-width:0.708661;stroke-linecap:round;stroke-linejoin:round;stroke:rgb(18.431373%,30.980392%,30.980392%);stroke-opacity:1;stroke-miterlimit:10;" d="M 271.054688 374.0625 C 271.054688 377.796875 268.03125 380.820312 264.300781 380.820312 C 260.570312 380.820312 257.542969 377.796875 257.542969 374.0625 C 257.542969 370.332031 260.570312 367.308594 264.300781 367.308594 C 268.03125 367.308594 271.054688 370.332031 271.054688 374.0625 "/>
<path style="fill:none;stroke-width:0.708661;stroke-linecap:round;stroke-linejoin:round;stroke:rgb(18.431373%,30.980392%,30.980392%);stroke-opacity:1;stroke-miterlimit:10;" d="M 288.101562 330.304688 C 288.101562 334.039062 285.074219 337.0625 281.34375 337.0625 C 277.613281 337.0625 274.585938 334.039062 274.585938 330.304688 C 274.585938 326.574219 277.613281 323.550781 281.34375 323.550781 C 285.074219 323.550781 288.101562 326.574219 288.101562 330.304688 "/>
<path style="fill-rule:nonzero;fill:rgb(18.431373%,30.980392%,30.980392%);fill-opacity:1;stroke-width:0.708661;stroke-linecap:round;stroke-linejoin:round;stroke:rgb(18.431373%,30.980392%,30.980392%);stroke-opacity:1;stroke-miterlimit:10;" d="M 403.84375 253.980469 C 403.84375 257.710938 400.820312 260.738281 397.089844 260.738281 C 393.359375 260.738281 390.332031 257.710938 390.332031 253.980469 C 390.332031 250.25 393.359375 247.222656 397.089844 247.222656 C 400.820312 247.222656 403.84375 250.25 403.84375 253.980469 "/>
<path style="fill:none;stroke-width:0.708661;stroke-linecap:round;stroke-linejoin:round;stroke:rgb(18.431373%,30.980392%,30.980392%);stroke-opacity:1;stroke-miterlimit:10;" d="M 628.027344 191.433594 C 628.027344 195.164062 625.003906 198.191406 621.269531 198.191406 C 617.539062 198.191406 614.515625 195.164062 614.515625 191.433594 C 614.515625 187.703125 617.539062 184.679688 621.269531 184.679688 C 625.003906 184.679688 628.027344 187.703125 628.027344 191.433594 "/>
<path style="fill-rule:nonzero;fill:rgb(18.431373%,30.980392%,30.980392%);fill-opacity:1;stroke-width:0.708661;stroke-linecap:round;stroke-linejoin:round;stroke:rgb(18.431373%,30.980392%,30.980392%);stroke-opacity:1;stroke-miterlimit:10;" d="M 475.710938 262.492188 C 475.710938 266.226562 472.6875 269.25 468.957031 269.25 C 465.222656 269.25 462.199219 266.226562 462.199219 262.492188 C 462.199219 258.761719 465.222656 255.738281 468.957031 255.738281 C 472.6875 255.738281 475.710938 258.761719 475.710938 262.492188 "/>
<path style="fill:none;stroke-width:0.708661;stroke-linecap:round;stroke-linejoin:round;stroke:rgb(18.431373%,30.980392%,30.980392%);stroke-opacity:1;stroke-miterlimit:10;" d="M 589.464844 388.871094 C 589.464844 392.601562 586.4375 395.628906 582.707031 395.628906 C 578.976562 395.628906 575.953125 392.601562 575.953125 388.871094 C 575.953125 385.140625 578.976562 382.113281 582.707031 382.113281 C 586.4375 382.113281 589.464844 385.140625 589.464844 388.871094 "/>
<path style="fill:none;stroke-width:0.708661;stroke-linecap:round;stroke-linejoin:round;stroke:rgb(18.431373%,30.980392%,30.980392%);stroke-opacity:1;stroke-miterlimit:10;" d="M 362.648438 312.386719 C 362.648438 316.117188 359.625 319.140625 355.890625 319.140625 C 352.160156 319.140625 349.136719 316.117188 349.136719 312.386719 C 349.136719 308.65625 352.160156 305.628906 355.890625 305.628906 C 359.625 305.628906 362.648438 308.65625 362.648438 312.386719 "/>
<path style="fill:none;stroke-width:0.708661;stroke-linecap:round;stroke-linejoin:round;stroke:rgb(18.431373%,30.980392%,30.980392%);stroke-opacity:1;stroke-miterlimit:10;" d="M 581.808594 372.375 C 581.808594 376.105469 578.785156 379.132812 575.054688 379.132812 C 571.320312 379.132812 568.296875 376.105469 568.296875 372.375 C 568.296875 368.644531 571.320312 365.617188 575.054688 365.617188 C 578.785156 365.617188 581.808594 368.644531 581.808594 372.375 "/>
<path style="fill:none;stroke-width:0.708661;stroke-linecap:round;stroke-linejoin:round;stroke:rgb(18.431373%,30.980392%,30.980392%);stroke-opacity:1;stroke-miterlimit:10;" d="M 603.199219 23.4375 C 603.199219 27.171875 600.175781 30.195312 596.445312 30.195312 C 592.714844 30.195312 589.6875 27.171875 589.6875 23.4375 C 589.6875 19.707031 592.714844 16.683594 596.445312 16.683594 C 600.175781 16.683594 603.199219 19.707031 603.199219 23.4375 "/>
<path style="fill-rule:nonzero;fill:rgb(18.431373%,30.980392%,30.980392%);fill-opacity:1;stroke-width:0.708661;stroke-linecap:round;stroke-linejoin:round;stroke:rgb(18.431373%,30.980392%,30.980392%);stroke-opacity:1;stroke-miterlimit:10;" d="M 698.382812 196.984375 C 698.382812 200.714844 695.355469 203.738281 691.625 203.738281 C 687.894531 203.738281 684.867188 200.714844 684.867188 196.984375 C 684.867188 193.25 687.894531 190.226562 691.625 190.226562 C 695.355469 190.226562 698.382812 193.25 698.382812 196.984375 "/>
<path style="fill:none;stroke-width:0.708661;stroke-linecap:round;stroke-linejoin:round;stroke:rgb(18.431373%,30.980392%,30.980392%);stroke-opacity:1;stroke-miterlimit:10;" d="M 707.019531 139.671875 C 707.019531 143.402344 703.992188 146.425781 700.261719 146.425781 C 696.53125 146.425781 693.507812 143.402344 693.507812 139.671875 C 693.507812 135.9375 696.53125 132.914062 700.261719 132.914062 C 703.992188 132.914062 707.019531 135.9375 707.019531 139.671875 "/>
<path style="fill:none;stroke-width:0.708661;stroke-linecap:round;stroke-linejoin:round;stroke:rgb(18.431373%,30.980392%,30.980392%);stroke-opacity:1;stroke-miterlimit:10;" d="M 261.265625 277.660156 C 261.265625 281.390625 258.242188 284.414062 254.511719 284.414062 C 250.777344 284.414062 247.753906 281.390625 247.753906 277.660156 C 247.753906 273.929688 250.777344 270.902344 254.511719 270.902344 C 258.242188 270.902344 261.265625 273.929688 261.265625 277.660156 "/>
<path style="fill-rule:nonzero;fill:rgb(18.431373%,30.980392%,30.980392%);fill-opacity:1;stroke-width:0.708661;stroke-linecap:round;stroke-linejoin:round;stroke:rgb(18.431373%,30.980392%,30.980392%);stroke-opacity:1;stroke-miterlimit:10;" d="M 436.023438 268.625 C 436.023438 272.359375 432.996094 275.382812 429.265625 275.382812 C 425.535156 275.382812 422.511719 272.359375 422.511719 268.625 C 422.511719 264.894531 425.535156 261.871094 429.265625 261.871094 C 432.996094 261.871094 436.023438 264.894531 436.023438 268.625 "/>
<path style="fill:none;stroke-width:0.708661;stroke-linecap:round;stroke-linejoin:round;stroke:rgb(18.431373%,30.980392%,30.980392%);stroke-opacity:1;stroke-miterlimit:10;" d="M 463.050781 231.503906 C 463.050781 235.234375 460.023438 238.257812 456.292969 238.257812 C 452.5625 238.257812 449.535156 235.234375 449.535156 231.503906 C 449.535156 227.773438 452.5625 224.746094 456.292969 224.746094 C 460.023438 224.746094 463.050781 227.773438 463.050781 231.503906 "/>
<path style="fill-rule:nonzero;fill:rgb(18.431373%,30.980392%,30.980392%);fill-opacity:1;stroke-width:0.708661;stroke-linecap:round;stroke-linejoin:round;stroke:rgb(18.431373%,30.980392%,30.980392%);stroke-opacity:1;stroke-miterlimit:10;" d="M 370.691406 164.890625 C 370.691406 168.621094 367.664062 171.648438 363.933594 171.648438 C 360.203125 171.648438 357.179688 168.621094 357.179688 164.890625 C 357.179688 161.160156 360.203125 158.132812 363.933594 158.132812 C 367.664062 158.132812 370.691406 161.160156 370.691406 164.890625 "/>
<path style="fill:none;stroke-width:0.708661;stroke-linecap:round;stroke-linejoin:round;stroke:rgb(18.431373%,30.980392%,30.980392%);stroke-opacity:1;stroke-miterlimit:10;" d="M 370.570312 342.53125 C 370.570312 346.261719 367.546875 349.289062 363.8125 349.289062 C 360.082031 349.289062 357.058594 346.261719 357.058594 342.53125 C 357.058594 338.800781 360.082031 335.777344 363.8125 335.777344 C 367.546875 335.777344 370.570312 338.800781 370.570312 342.53125 "/>
<path style="fill:none;stroke-width:0.708661;stroke-linecap:round;stroke-linejoin:round;stroke:rgb(18.431373%,30.980392%,30.980392%);stroke-opacity:1;stroke-miterlimit:10;" d="M 564.785156 164.113281 C 564.785156 167.84375 561.757812 170.867188 558.027344 170.867188 C 554.296875 170.867188 551.273438 167.84375 551.273438 164.113281 C 551.273438 160.382812 554.296875 157.355469 558.027344 157.355469 C 561.757812 157.355469 564.785156 160.382812 564.785156 164.113281 "/>
<path style="fill:none;stroke-width:0.708661;stroke-linecap:round;stroke-linejoin:round;stroke:rgb(18.431373%,30.980392%,30.980392%);stroke-opacity:1;stroke-miterlimit:10;" d="M 653.878906 302.988281 C 653.878906 306.722656 650.855469 309.746094 647.125 309.746094 C 643.390625 309.746094 640.367188 306.722656 640.367188 302.988281 C 640.367188 299.257812 643.390625 296.234375 647.125 296.234375 C 650.855469 296.234375 653.878906 299.257812 653.878906 302.988281 "/>
<path style="fill:none;stroke-width:0.708661;stroke-linecap:round;stroke-linejoin:round;stroke:rgb(18.431373%,30.980392%,30.980392%);stroke-opacity:1;stroke-miterlimit:10;" d="M 388.566406 281.675781 C 388.566406 285.40625 385.542969 288.433594 381.8125 288.433594 C 378.078125 288.433594 375.054688 285.40625 375.054688 281.675781 C 375.054688 277.945312 378.078125 274.917969 381.8125 274.917969 C 385.542969 274.917969 388.566406 277.945312 388.566406 281.675781 "/>
<path style="fill:none;stroke-width:0.708661;stroke-linecap:round;stroke-linejoin:round;stroke:rgb(18.431373%,30.980392%,30.980392%);stroke-opacity:1;stroke-miterlimit:10;" d="M 320.8125 212.292969 C 320.8125 216.023438 317.785156 219.046875 314.054688 219.046875 C 310.324219 219.046875 307.300781 216.023438 307.300781 212.292969 C 307.300781 208.558594 310.324219 205.535156 314.054688 205.535156 C 317.785156 205.535156 320.8125 208.558594 320.8125 212.292969 "/>
<path style="fill:none;stroke-width:0.708661;stroke-linecap:round;stroke-linejoin:round;stroke:rgb(18.431373%,30.980392%,30.980392%);stroke-opacity:1;stroke-miterlimit:10;" d="M 513.578125 190.015625 C 513.578125 193.75 510.554688 196.773438 506.824219 196.773438 C 503.089844 196.773438 500.066406 193.75 500.066406 190.015625 C 500.066406 186.285156 503.089844 183.261719 506.824219 183.261719 C 510.554688 183.261719 513.578125 186.285156 513.578125 190.015625 "/>
<path style="fill:none;stroke-width:0.708661;stroke-linecap:round;stroke-linejoin:round;stroke:rgb(18.431373%,30.980392%,30.980392%);stroke-opacity:1;stroke-miterlimit:10;" d="M 424.292969 244.75 C 424.292969 248.480469 421.269531 251.503906 417.539062 251.503906 C 413.808594 251.503906 410.78125 248.480469 410.78125 244.75 C 410.78125 241.019531 413.808594 237.992188 417.539062 237.992188 C 421.269531 237.992188 424.292969 241.019531 424.292969 244.75 "/>
<path style="fill:none;stroke-width:0.708661;stroke-linecap:round;stroke-linejoin:round;stroke:rgb(18.431373%,30.980392%,30.980392%);stroke-opacity:1;stroke-miterlimit:10;" d="M 298.769531 272.65625 C 298.769531 276.386719 295.746094 279.410156 292.015625 279.410156 C 288.28125 279.410156 285.257812 276.386719 285.257812 272.65625 C 285.257812 268.925781 288.28125 265.898438 292.015625 265.898438 C 295.746094 265.898438 298.769531 268.925781 298.769531 272.65625 "/>
<path style="fill-rule:nonzero;fill:rgb(18.431373%,30.980392%,30.980392%);fill-opacity:1;stroke-width:0.708661;stroke-linecap:round;stroke-linejoin:round;stroke:rgb(18.431373%,30.980392%,30.980392%);stroke-opacity:1;stroke-miterlimit:10;" d="M 391.933594 154.773438 C 391.933594 158.503906 388.910156 161.53125 385.175781 161.53125 C 381.445312 161.53125 378.421875 158.503906 378.421875 154.773438 C 378.421875 151.042969 381.445312 148.019531 385.175781 148.019531 C 388.910156 148.019531 391.933594 151.042969 391.933594 154.773438 "/>
<path style="fill:none;stroke-width:0.708661;stroke-linecap:round;stroke-linejoin:round;stroke:rgb(18.431373%,30.980392%,30.980392%);stroke-opacity:1;stroke-miterlimit:10;" d="M 515.351562 295.019531 C 515.351562 298.75 512.328125 301.777344 508.59375 301.777344 C 504.863281 301.777344 501.839844 298.75 501.839844 295.019531 C 501.839844 291.289062 504.863281 288.261719 508.59375 288.261719 C 512.328125 288.261719 515.351562 291.289062 515.351562 295.019531 "/>
<path style="fill:none;stroke-width:0.708661;stroke-linecap:round;stroke-linejoin:round;stroke:rgb(18.431373%,30.980392%,30.980392%);stroke-opacity:1;stroke-miterlimit:10;" d="M 455.511719 330.652344 C 455.511719 334.382812 452.488281 337.40625 448.757812 337.40625 C 445.023438 337.40625 442 334.382812 442 330.652344 C 442 326.921875 445.023438 323.894531 448.757812 323.894531 C 452.488281 323.894531 455.511719 326.921875 455.511719 330.652344 "/>
<path style="fill-rule:nonzero;fill:rgb(18.431373%,30.980392%,30.980392%);fill-opacity:1;stroke-width:0.708661;stroke-linecap:round;stroke-linejoin:round;stroke:rgb(18.431373%,30.980392%,30.980392%);stroke-opacity:1;stroke-miterlimit:10;" d="M 306.300781 275.179688 C 306.300781 278.914062 303.273438 281.9375 299.542969 281.9375 C 295.8125 281.9375 292.785156 278.914062 292.785156 275.179688 C 292.785156 271.449219 295.8125 268.425781 299.542969 268.425781 C 303.273438 268.425781 306.300781 271.449219 306.300781 275.179688 "/>
<path style="fill:none;stroke-width:0.708661;stroke-linecap:round;stroke-linejoin:round;stroke:rgb(18.431373%,30.980392%,30.980392%);stroke-opacity:1;stroke-miterlimit:10;" d="M 439.351562 312.070312 C 439.351562 315.800781 436.324219 318.828125 432.59375 318.828125 C 428.863281 318.828125 425.839844 315.800781 425.839844 312.070312 C 425.839844 308.339844 428.863281 305.316406 432.59375 305.316406 C 436.324219 305.316406 439.351562 308.339844 439.351562 312.070312 "/>
<path style="fill:none;stroke-width:0.708661;stroke-linecap:round;stroke-linejoin:round;stroke:rgb(18.431373%,30.980392%,30.980392%);stroke-opacity:1;stroke-miterlimit:10;" d="M 493.425781 273.289062 C 493.425781 277.023438 490.402344 280.046875 486.671875 280.046875 C 482.9375 280.046875 479.914062 277.023438 479.914062 273.289062 C 479.914062 269.558594 482.9375 266.535156 486.671875 266.535156 C 490.402344 266.535156 493.425781 269.558594 493.425781 273.289062 "/>
<path style="fill:none;stroke-width:0.708661;stroke-linecap:round;stroke-linejoin:round;stroke:rgb(18.431373%,30.980392%,30.980392%);stroke-opacity:1;stroke-miterlimit:10;" d="M 250.246094 292.75 C 250.246094 296.484375 247.222656 299.507812 243.492188 299.507812 C 239.761719 299.507812 236.734375 296.484375 236.734375 292.75 C 236.734375 289.019531 239.761719 285.996094 243.492188 285.996094 C 247.222656 285.996094 250.246094 289.019531 250.246094 292.75 "/>
<path style="fill:none;stroke-width:0.708661;stroke-linecap:round;stroke-linejoin:round;stroke:rgb(18.431373%,30.980392%,30.980392%);stroke-opacity:1;stroke-miterlimit:10;" d="M 502.394531 196.550781 C 502.394531 200.28125 499.371094 203.304688 495.636719 203.304688 C 491.90625 203.304688 488.882812 200.28125 488.882812 196.550781 C 488.882812 192.820312 491.90625 189.792969 495.636719 189.792969 C 499.371094 189.792969 502.394531 192.820312 502.394531 196.550781 "/>
<path style="fill:none;stroke-width:0.708661;stroke-linecap:round;stroke-linejoin:round;stroke:rgb(18.431373%,30.980392%,30.980392%);stroke-opacity:1;stroke-miterlimit:10;" d="M 292.097656 404.394531 C 292.097656 408.125 289.070312 411.148438 285.339844 411.148438 C 281.609375 411.148438 278.582031 408.125 278.582031 404.394531 C 278.582031 400.660156 281.609375 397.636719 285.339844 397.636719 C 289.070312 397.636719 292.097656 400.660156 292.097656 404.394531 "/>
<path style="fill:none;stroke-width:0.708661;stroke-linecap:round;stroke-linejoin:round;stroke:rgb(18.431373%,30.980392%,30.980392%);stroke-opacity:1;stroke-miterlimit:10;" d="M 473.183594 303.617188 C 473.183594 307.347656 470.15625 310.375 466.425781 310.375 C 462.695312 310.375 459.671875 307.347656 459.671875 303.617188 C 459.671875 299.886719 462.695312 296.859375 466.425781 296.859375 C 470.15625 296.859375 473.183594 299.886719 473.183594 303.617188 "/>
<path style="fill:none;stroke-width:0.708661;stroke-linecap:round;stroke-linejoin:round;stroke:rgb(18.431373%,30.980392%,30.980392%);stroke-opacity:1;stroke-miterlimit:10;" d="M 318.34375 202.757812 C 318.34375 206.488281 315.316406 209.511719 311.585938 209.511719 C 307.855469 209.511719 304.832031 206.488281 304.832031 202.757812 C 304.832031 199.023438 307.855469 196 311.585938 196 C 315.316406 196 318.34375 199.023438 318.34375 202.757812 "/>
<path style="fill:none;stroke-width:0.708661;stroke-linecap:round;stroke-linejoin:round;stroke:rgb(18.431373%,30.980392%,30.980392%);stroke-opacity:1;stroke-miterlimit:10;" d="M 439.753906 373.828125 C 439.753906 377.558594 436.726562 380.582031 432.996094 380.582031 C 429.265625 380.582031 426.238281 377.558594 426.238281 373.828125 C 426.238281 370.09375 429.265625 367.070312 432.996094 367.070312 C 436.726562 367.070312 439.753906 370.09375 439.753906 373.828125 "/>
<path style="fill:none;stroke-width:0.708661;stroke-linecap:round;stroke-linejoin:round;stroke:rgb(18.431373%,30.980392%,30.980392%);stroke-opacity:1;stroke-miterlimit:10;" d="M 528.917969 347.71875 C 528.917969 351.449219 525.894531 354.476562 522.164062 354.476562 C 518.429688 354.476562 515.40625 351.449219 515.40625 347.71875 C 515.40625 343.988281 518.429688 340.964844 522.164062 340.964844 C 525.894531 340.964844 528.917969 343.988281 528.917969 347.71875 "/>
<path style="fill-rule:nonzero;fill:rgb(18.431373%,30.980392%,30.980392%);fill-opacity:1;stroke-width:0.708661;stroke-linecap:round;stroke-linejoin:round;stroke:rgb(18.431373%,30.980392%,30.980392%);stroke-opacity:1;stroke-miterlimit:10;" d="M 373.957031 327.855469 C 373.957031 331.585938 370.929688 334.609375 367.199219 334.609375 C 363.46875 334.609375 360.441406 331.585938 360.441406 327.855469 C 360.441406 324.125 363.46875 321.097656 367.199219 321.097656 C 370.929688 321.097656 373.957031 324.125 373.957031 327.855469 "/>
<path style="fill-rule:nonzero;fill:rgb(18.431373%,30.980392%,30.980392%);fill-opacity:1;stroke-width:0.708661;stroke-linecap:round;stroke-linejoin:round;stroke:rgb(18.431373%,30.980392%,30.980392%);stroke-opacity:1;stroke-miterlimit:10;" d="M 666.351562 105.792969 C 666.351562 109.523438 663.324219 112.550781 659.59375 112.550781 C 655.863281 112.550781 652.839844 109.523438 652.839844 105.792969 C 652.839844 102.0625 655.863281 99.035156 659.59375 99.035156 C 663.324219 99.035156 666.351562 102.0625 666.351562 105.792969 "/>
<path style="fill-rule:nonzero;fill:rgb(18.431373%,30.980392%,30.980392%);fill-opacity:1;stroke-width:0.708661;stroke-linecap:round;stroke-linejoin:round;stroke:rgb(18.431373%,30.980392%,30.980392%);stroke-opacity:1;stroke-miterlimit:10;" d="M 355.019531 329.921875 C 355.019531 333.652344 351.996094 336.679688 348.261719 336.679688 C 344.53125 336.679688 341.507812 333.652344 341.507812 329.921875 C 341.507812 326.191406 344.53125 323.167969 348.261719 323.167969 C 351.996094 323.167969 355.019531 326.191406 355.019531 329.921875 "/>
<path style="fill-rule:nonzero;fill:rgb(18.431373%,30.980392%,30.980392%);fill-opacity:1;stroke-width:0.708661;stroke-linecap:round;stroke-linejoin:round;stroke:rgb(18.431373%,30.980392%,30.980392%);stroke-opacity:1;stroke-miterlimit:10;" d="M 198.390625 358.339844 C 198.390625 362.070312 195.367188 365.097656 191.636719 365.097656 C 187.90625 365.097656 184.878906 362.070312 184.878906 358.339844 C 184.878906 354.609375 187.90625 351.585938 191.636719 351.585938 C 195.367188 351.585938 198.390625 354.609375 198.390625 358.339844 "/>
<path style="fill:none;stroke-width:0.708661;stroke-linecap:round;stroke-linejoin:round;stroke:rgb(18.431373%,30.980392%,30.980392%);stroke-opacity:1;stroke-miterlimit:10;" d="M 296.574219 316.859375 C 296.574219 320.589844 293.550781 323.617188 289.816406 323.617188 C 286.085938 323.617188 283.0625 320.589844 283.0625 316.859375 C 283.0625 313.128906 286.085938 310.101562 289.816406 310.101562 C 293.550781 310.101562 296.574219 313.128906 296.574219 316.859375 "/>
<path style="fill:none;stroke-width:0.708661;stroke-linecap:round;stroke-linejoin:round;stroke:rgb(18.431373%,30.980392%,30.980392%);stroke-opacity:1;stroke-miterlimit:10;" d="M 352.109375 187.34375 C 352.109375 191.078125 349.085938 194.101562 345.355469 194.101562 C 341.621094 194.101562 338.597656 191.078125 338.597656 187.34375 C 338.597656 183.613281 341.621094 180.589844 345.355469 180.589844 C 349.085938 180.589844 352.109375 183.613281 352.109375 187.34375 "/>
<path style="fill-rule:nonzero;fill:rgb(18.431373%,30.980392%,30.980392%);fill-opacity:1;stroke-width:0.708661;stroke-linecap:round;stroke-linejoin:round;stroke:rgb(18.431373%,30.980392%,30.980392%);stroke-opacity:1;stroke-miterlimit:10;" d="M 444.277344 216.273438 C 444.277344 220.003906 441.253906 223.027344 437.523438 223.027344 C 433.792969 223.027344 430.765625 220.003906 430.765625 216.273438 C 430.765625 212.539062 433.792969 209.515625 437.523438 209.515625 C 441.253906 209.515625 444.277344 212.539062 444.277344 216.273438 "/>
<path style="fill:none;stroke-width:0.708661;stroke-linecap:round;stroke-linejoin:round;stroke:rgb(18.431373%,30.980392%,30.980392%);stroke-opacity:1;stroke-miterlimit:10;" d="M 436.796875 319.511719 C 436.796875 323.246094 433.769531 326.269531 430.039062 326.269531 C 426.308594 326.269531 423.28125 323.246094 423.28125 319.511719 C 423.28125 315.78125 426.308594 312.757812 430.039062 312.757812 C 433.769531 312.757812 436.796875 315.78125 436.796875 319.511719 "/>
<path style="fill:none;stroke-width:0.708661;stroke-linecap:round;stroke-linejoin:round;stroke:rgb(18.431373%,30.980392%,30.980392%);stroke-opacity:1;stroke-miterlimit:10;" d="M 580.382812 98 C 580.382812 101.730469 577.355469 104.753906 573.625 104.753906 C 569.894531 104.753906 566.871094 101.730469 566.871094 98 C 566.871094 94.265625 569.894531 91.242188 573.625 91.242188 C 577.355469 91.242188 580.382812 94.265625 580.382812 98 "/>
<path style="fill-rule:nonzero;fill:rgb(18.431373%,30.980392%,30.980392%);fill-opacity:1;stroke-width:0.708661;stroke-linecap:round;stroke-linejoin:round;stroke:rgb(18.431373%,30.980392%,30.980392%);stroke-opacity:1;stroke-miterlimit:10;" d="M 350.425781 266.59375 C 350.425781 270.324219 347.398438 273.351562 343.667969 273.351562 C 339.9375 273.351562 336.914062 270.324219 336.914062 266.59375 C 336.914062 262.863281 339.9375 259.835938 343.667969 259.835938 C 347.398438 259.835938 350.425781 262.863281 350.425781 266.59375 "/>
<path style="fill:none;stroke-width:0.708661;stroke-linecap:round;stroke-linejoin:round;stroke:rgb(18.431373%,30.980392%,30.980392%);stroke-opacity:1;stroke-miterlimit:10;" d="M 29.988281 492.222656 C 29.988281 495.953125 26.964844 498.976562 23.234375 498.976562 C 19.503906 498.976562 16.476562 495.953125 16.476562 492.222656 C 16.476562 488.488281 19.503906 485.464844 23.234375 485.464844 C 26.964844 485.464844 29.988281 488.488281 29.988281 492.222656 "/>
<path style="fill-rule:nonzero;fill:rgb(18.431373%,30.980392%,30.980392%);fill-opacity:1;stroke-width:0.708661;stroke-linecap:round;stroke-linejoin:round;stroke:rgb(18.431373%,30.980392%,30.980392%);stroke-opacity:1;stroke-miterlimit:10;" d="M 580.425781 215.128906 C 580.425781 218.859375 577.398438 221.882812 573.667969 221.882812 C 569.9375 221.882812 566.910156 218.859375 566.910156 215.128906 C 566.910156 211.394531 569.9375 208.371094 573.667969 208.371094 C 577.398438 208.371094 580.425781 211.394531 580.425781 215.128906 "/>
<path style="fill:none;stroke-width:0.708661;stroke-linecap:round;stroke-linejoin:round;stroke:rgb(18.431373%,30.980392%,30.980392%);stroke-opacity:1;stroke-miterlimit:10;" d="M 598.742188 195.25 C 598.742188 198.980469 595.714844 202.003906 591.984375 202.003906 C 588.253906 202.003906 585.230469 198.980469 585.230469 195.25 C 585.230469 191.519531 588.253906 188.492188 591.984375 188.492188 C 595.714844 188.492188 598.742188 191.519531 598.742188 195.25 "/>
<path style="fill:none;stroke-width:0.708661;stroke-linecap:round;stroke-linejoin:round;stroke:rgb(18.431373%,30.980392%,30.980392%);stroke-opacity:1;stroke-miterlimit:10;" d="M 512.554688 231.207031 C 512.554688 234.9375 509.53125 237.964844 505.796875 237.964844 C 502.066406 237.964844 499.042969 234.9375 499.042969 231.207031 C 499.042969 227.476562 502.066406 224.453125 505.796875 224.453125 C 509.53125 224.453125 512.554688 227.476562 512.554688 231.207031 "/>
<path style="fill-rule:nonzero;fill:rgb(18.431373%,30.980392%,30.980392%);fill-opacity:1;stroke-width:0.708661;stroke-linecap:round;stroke-linejoin:round;stroke:rgb(18.431373%,30.980392%,30.980392%);stroke-opacity:1;stroke-miterlimit:10;" d="M 190.984375 354.238281 C 190.984375 357.96875 187.957031 360.996094 184.226562 360.996094 C 180.496094 360.996094 177.472656 357.96875 177.472656 354.238281 C 177.472656 350.507812 180.496094 347.484375 184.226562 347.484375 C 187.957031 347.484375 190.984375 350.507812 190.984375 354.238281 "/>
<path style="fill:none;stroke-width:0.708661;stroke-linecap:round;stroke-linejoin:round;stroke:rgb(18.431373%,30.980392%,30.980392%);stroke-opacity:1;stroke-miterlimit:10;" d="M 457.875 239.515625 C 457.875 243.246094 454.847656 246.273438 451.117188 246.273438 C 447.386719 246.273438 444.363281 243.246094 444.363281 239.515625 C 444.363281 235.785156 447.386719 232.761719 451.117188 232.761719 C 454.847656 232.761719 457.875 235.785156 457.875 239.515625 "/>
<path style="fill:none;stroke-width:0.708661;stroke-linecap:round;stroke-linejoin:round;stroke:rgb(18.431373%,30.980392%,30.980392%);stroke-opacity:1;stroke-miterlimit:10;" d="M 631.304688 209.847656 C 631.304688 213.582031 628.277344 216.605469 624.546875 216.605469 C 620.816406 216.605469 617.789062 213.582031 617.789062 209.847656 C 617.789062 206.117188 620.816406 203.09375 624.546875 203.09375 C 628.277344 203.09375 631.304688 206.117188 631.304688 209.847656 "/>
<path style="fill-rule:nonzero;fill:rgb(18.431373%,30.980392%,30.980392%);fill-opacity:1;stroke-width:0.708661;stroke-linecap:round;stroke-linejoin:round;stroke:rgb(18.431373%,30.980392%,30.980392%);stroke-opacity:1;stroke-miterlimit:10;" d="M 542.316406 349.429688 C 542.316406 353.164062 539.289062 356.1875 535.558594 356.1875 C 531.828125 356.1875 528.804688 353.164062 528.804688 349.429688 C 528.804688 345.699219 531.828125 342.675781 535.558594 342.675781 C 539.289062 342.675781 542.316406 345.699219 542.316406 349.429688 "/>
<path style="fill-rule:nonzero;fill:rgb(18.431373%,30.980392%,30.980392%);fill-opacity:1;stroke-width:0.708661;stroke-linecap:round;stroke-linejoin:round;stroke:rgb(18.431373%,30.980392%,30.980392%);stroke-opacity:1;stroke-miterlimit:10;" d="M 580.332031 180.332031 C 580.332031 184.0625 577.304688 187.089844 573.574219 187.089844 C 569.84375 187.089844 566.820312 184.0625 566.820312 180.332031 C 566.820312 176.601562 569.84375 173.574219 573.574219 173.574219 C 577.304688 173.574219 580.332031 176.601562 580.332031 180.332031 "/>
<path style="fill-rule:nonzero;fill:rgb(18.431373%,30.980392%,30.980392%);fill-opacity:1;stroke-width:0.708661;stroke-linecap:round;stroke-linejoin:round;stroke:rgb(18.431373%,30.980392%,30.980392%);stroke-opacity:1;stroke-miterlimit:10;" d="M 557.917969 217.277344 C 557.917969 221.011719 554.894531 224.035156 551.164062 224.035156 C 547.433594 224.035156 544.40625 221.011719 544.40625 217.277344 C 544.40625 213.546875 547.433594 210.523438 551.164062 210.523438 C 554.894531 210.523438 557.917969 213.546875 557.917969 217.277344 "/>
<path style="fill-rule:nonzero;fill:rgb(18.431373%,30.980392%,30.980392%);fill-opacity:1;stroke-width:0.708661;stroke-linecap:round;stroke-linejoin:round;stroke:rgb(18.431373%,30.980392%,30.980392%);stroke-opacity:1;stroke-miterlimit:10;" d="M 425.292969 203.863281 C 425.292969 207.59375 422.269531 210.621094 418.539062 210.621094 C 414.808594 210.621094 411.78125 207.59375 411.78125 203.863281 C 411.78125 200.132812 414.808594 197.109375 418.539062 197.109375 C 422.269531 197.109375 425.292969 200.132812 425.292969 203.863281 "/>
<path style="fill:none;stroke-width:0.708661;stroke-linecap:round;stroke-linejoin:round;stroke:rgb(18.431373%,30.980392%,30.980392%);stroke-opacity:1;stroke-miterlimit:10;" d="M 441.632812 272.503906 C 441.632812 276.234375 438.609375 279.261719 434.875 279.261719 C 431.144531 279.261719 428.121094 276.234375 428.121094 272.503906 C 428.121094 268.773438 431.144531 265.746094 434.875 265.746094 C 438.609375 265.746094 441.632812 268.773438 441.632812 272.503906 "/>
<path style="fill:none;stroke-width:0.708661;stroke-linecap:round;stroke-linejoin:round;stroke:rgb(18.431373%,30.980392%,30.980392%);stroke-opacity:1;stroke-miterlimit:10;" d="M 597.414062 233.445312 C 597.414062 237.175781 594.390625 240.199219 590.65625 240.199219 C 586.925781 240.199219 583.902344 237.175781 583.902344 233.445312 C 583.902344 229.714844 586.925781 226.6875 590.65625 226.6875 C 594.390625 226.6875 597.414062 229.714844 597.414062 233.445312 "/>
<path style="fill:none;stroke-width:0.708661;stroke-linecap:round;stroke-linejoin:round;stroke:rgb(18.431373%,30.980392%,30.980392%);stroke-opacity:1;stroke-miterlimit:10;" d="M 546.230469 205.359375 C 546.230469 209.089844 543.203125 212.117188 539.472656 212.117188 C 535.742188 212.117188 532.71875 209.089844 532.71875 205.359375 C 532.71875 201.628906 535.742188 198.605469 539.472656 198.605469 C 543.203125 198.605469 546.230469 201.628906 546.230469 205.359375 "/>
<path style="fill-rule:nonzero;fill:rgb(18.431373%,30.980392%,30.980392%);fill-opacity:1;stroke-width:0.708661;stroke-linecap:round;stroke-linejoin:round;stroke:rgb(18.431373%,30.980392%,30.980392%);stroke-opacity:1;stroke-miterlimit:10;" d="M 497.746094 260.296875 C 497.746094 264.027344 494.722656 267.050781 490.992188 267.050781 C 487.261719 267.050781 484.234375 264.027344 484.234375 260.296875 C 484.234375 256.5625 487.261719 253.539062 490.992188 253.539062 C 494.722656 253.539062 497.746094 256.5625 497.746094 260.296875 "/>
<path style="fill:none;stroke-width:0.708661;stroke-linecap:round;stroke-linejoin:round;stroke:rgb(18.431373%,30.980392%,30.980392%);stroke-opacity:1;stroke-miterlimit:10;" d="M 360.394531 325.347656 C 360.394531 329.082031 357.371094 332.105469 353.640625 332.105469 C 349.90625 332.105469 346.882812 329.082031 346.882812 325.347656 C 346.882812 321.617188 349.90625 318.59375 353.640625 318.59375 C 357.371094 318.59375 360.394531 321.617188 360.394531 325.347656 "/>
<path style="fill:none;stroke-width:0.708661;stroke-linecap:round;stroke-linejoin:round;stroke:rgb(18.431373%,30.980392%,30.980392%);stroke-opacity:1;stroke-miterlimit:10;" d="M 377.269531 333.984375 C 377.269531 337.714844 374.246094 340.738281 370.511719 340.738281 C 366.78125 340.738281 363.757812 337.714844 363.757812 333.984375 C 363.757812 330.253906 366.78125 327.226562 370.511719 327.226562 C 374.246094 327.226562 377.269531 330.253906 377.269531 333.984375 "/>
<path style="fill:none;stroke-width:4.267913;stroke-linecap:butt;stroke-linejoin:round;stroke:rgb(0%,0%,0%);stroke-opacity:0.298039;stroke-dasharray:17.071654,17.071654;stroke-miterlimit:10;" d="M 0 397.746094 L 756 156.230469 "/>
<path style="fill:none;stroke-width:4.267913;stroke-linecap:butt;stroke-linejoin:round;stroke:rgb(0%,0%,0%);stroke-opacity:1;stroke-dasharray:17.071654,17.071654;stroke-miterlimit:10;" d="M 0 391.832031 L 756 145.808594 "/>
</g>
</svg>
