<?xml version="1.0" encoding="UTF-8"?>
<svg xmlns="http://www.w3.org/2000/svg" xmlns:xlink="http://www.w3.org/1999/xlink" width="756pt" height="432pt" viewBox="0 0 756 432" version="1.1">
<g id="surface94">
<rect x="0" y="0" width="756" height="432" style="fill:rgb(100%,100%,100%);fill-opacity:1;stroke:none;"/>
<path style="fill-rule:nonzero;fill:rgb(18.431373%,30.980392%,30.980392%);fill-opacity:0.901961;stroke-width:0.708661;stroke-linecap:round;stroke-linejoin:round;stroke:rgb(18.431373%,30.980392%,30.980392%);stroke-opacity:0.901961;stroke-miterlimit:10;" d="M 606.496094 75.253906 C 606.496094 78.398438 603.949219 80.945312 600.804688 80.945312 C 597.664062 80.945312 595.117188 78.398438 595.117188 75.253906 C 595.117188 72.113281 597.664062 69.566406 600.804688 69.566406 C 603.949219 69.566406 606.496094 72.113281 606.496094 75.253906 "/>
<path style="fill-rule:nonzero;fill:rgb(18.431373%,30.980392%,30.980392%);fill-opacity:0.901961;stroke-width:0.708661;stroke-linecap:round;stroke-linejoin:round;stroke:rgb(18.431373%,30.980392%,30.980392%);stroke-opacity:0.901961;stroke-miterlimit:10;" d="M 608.648438 195.960938 C 608.648438 199.101562 606.101562 201.648438 602.957031 201.648438 C 599.816406 201.648438 597.269531 199.101562 597.269531 195.960938 C 597.269531 192.820312 599.816406 190.269531 602.957031 190.269531 C 606.101562 190.269531 608.648438 192.820312 608.648438 195.960938 "/>
<path style="fill-rule:nonzero;fill:rgb(18.431373%,30.980392%,30.980392%);fill-opacity:0.901961;stroke-width:0.708661;stroke-linecap:round;stroke-linejoin:round;stroke:rgb(18.431373%,30.980392%,30.980392%);stroke-opacity:0.901961;stroke-miterlimit:10;" d="M 196.1875 343.945312 C 196.1875 347.085938 193.640625 349.632812 190.496094 349.632812 C 187.355469 349.632812 184.808594 347.085938 184.808594 343.945312 C 184.808594 340.800781 187.355469 338.253906 190.496094 338.253906 C 193.640625 338.253906 196.1875 340.800781 196.1875 343.945312 "/>
<path style="fill-rule:nonzero;fill:rgb(18.431373%,30.980392%,30.980392%);fill-opacity:0.901961;stroke-width:0.708661;stroke-linecap:round;stroke-linejoin:round;stroke:rgb(18.431373%,30.980392%,30.980392%);stroke-opacity:0.901961;stroke-miterlimit:10;" d="M 424.289062 167.242188 C 424.289062 170.382812 421.742188 172.933594 418.597656 172.933594 C 415.457031 172.933594 412.910156 170.382812 412.910156 167.242188 C 412.910156 164.101562 415.457031 161.554688 418.597656 161.554688 C 421.742188 161.554688 424.289062 164.101562 424.289062 167.242188 "/>
<path style="fill-rule:nonzero;fill:rgb(18.431373%,30.980392%,30.980392%);fill-opacity:0.901961;stroke-width:0.708661;stroke-linecap:round;stroke-linejoin:round;stroke:rgb(18.431373%,30.980392%,30.980392%);stroke-opacity:0.901961;stroke-miterlimit:10;" d="M 365.457031 285.480469 C 365.457031 288.621094 362.910156 291.167969 359.765625 291.167969 C 356.625 291.167969 354.078125 288.621094 354.078125 285.480469 C 354.078125 282.335938 356.625 279.789062 359.765625 279.789062 C 362.910156 279.789062 365.457031 282.335938 365.457031 285.480469 "/>
<path style="fill-rule:nonzero;fill:rgb(18.431373%,30.980392%,30.980392%);fill-opacity:0.901961;stroke-width:0.708661;stroke-linecap:round;stroke-linejoin:round;stroke:rgb(18.431373%,30.980392%,30.980392%);stroke-opacity:0.901961;stroke-miterlimit:10;" d="M 402.957031 233.109375 C 402.957031 236.253906 400.410156 238.800781 397.265625 238.800781 C 394.125 238.800781 391.578125 236.253906 391.578125 233.109375 C 391.578125 229.96875 394.125 227.421875 397.265625 227.421875 C 400.410156 227.421875 402.957031 229.96875 402.957031 233.109375 "/>
<path style="fill-rule:nonzero;fill:rgb(18.431373%,30.980392%,30.980392%);fill-opacity:0.901961;stroke-width:0.708661;stroke-linecap:round;stroke-linejoin:round;stroke:rgb(18.431373%,30.980392%,30.980392%);stroke-opacity:0.901961;stroke-miterlimit:10;" d="M 490.648438 188.28125 C 490.648438 191.425781 488.101562 193.972656 484.960938 193.972656 C 481.816406 193.972656 479.269531 191.425781 479.269531 188.28125 C 479.269531 185.140625 481.816406 182.59375 484.960938 182.59375 C 488.101562 182.59375 490.648438 185.140625 490.648438 188.28125 "/>
<path style="fill-rule:nonzero;fill:rgb(18.431373%,30.980392%,30.980392%);fill-opacity:0.901961;stroke-width:0.708661;stroke-linecap:round;stroke-linejoin:round;stroke:rgb(18.431373%,30.980392%,30.980392%);stroke-opacity:0.901961;stroke-miterlimit:10;" d="M 526.695312 264.75 C 526.695312 267.894531 524.148438 270.441406 521.007812 270.441406 C 517.863281 270.441406 515.316406 267.894531 515.316406 264.75 C 515.316406 261.609375 517.863281 259.0625 521.007812 259.0625 C 524.148438 259.0625 526.695312 261.609375 526.695312 264.75 "/>
<path style="fill-rule:nonzero;fill:rgb(18.431373%,30.980392%,30.980392%);fill-opacity:0.901961;stroke-width:0.708661;stroke-linecap:round;stroke-linejoin:round;stroke:rgb(18.431373%,30.980392%,30.980392%);stroke-opacity:0.901961;stroke-miterlimit:10;" d="M 471.628906 183.929688 C 471.628906 187.070312 469.082031 189.617188 465.9375 189.617188 C 462.796875 189.617188 460.25 187.070312 460.25 183.929688 C 460.25 180.789062 462.796875 178.242188 465.9375 178.242188 C 469.082031 178.242188 471.628906 180.789062 471.628906 183.929688 "/>
<path style="fill-rule:nonzero;fill:rgb(18.431373%,30.980392%,30.980392%);fill-opacity:0.901961;stroke-width:0.708661;stroke-linecap:round;stroke-linejoin:round;stroke:rgb(18.431373%,30.980392%,30.980392%);stroke-opacity:0.901961;stroke-miterlimit:10;" d="M 354.070312 296.824219 C 354.070312 299.964844 351.523438 302.511719 348.382812 302.511719 C 345.238281 302.511719 342.691406 299.964844 342.691406 296.824219 C 342.691406 293.679688 345.238281 291.132812 348.382812 291.132812 C 351.523438 291.132812 354.070312 293.679688 354.070312 296.824219 "/>
<path style="fill-rule:nonzero;fill:rgb(18.431373%,30.980392%,30.980392%);fill-opacity:0.901961;stroke-width:0.708661;stroke-linecap:round;stroke-linejoin:round;stroke:rgb(18.431373%,30.980392%,30.980392%);stroke-opacity:0.901961;stroke-miterlimit:10;" d="M 642.933594 144.234375 C 642.933594 147.378906 640.386719 149.925781 637.246094 149.925781 C 634.101562 149.925781 631.554688 147.378906 631.554688 144.234375 C 631.554688 141.09375 634.101562 138.546875 637.246094 138.546875 C 640.386719 138.546875 642.933594 141.09375 642.933594 144.234375 "/>
<path style="fill-rule:nonzero;fill:rgb(18.431373%,30.980392%,30.980392%);fill-opacity:0.901961;stroke-width:0.708661;stroke-linecap:round;stroke-linejoin:round;stroke:rgb(18.431373%,30.980392%,30.980392%);stroke-opacity:0.901961;stroke-miterlimit:10;" d="M 630.878906 189.886719 C 630.878906 193.027344 628.332031 195.574219 625.191406 195.574219 C 622.046875 195.574219 619.5 193.027344 619.5 189.886719 C 619.5 186.742188 622.046875 184.195312 625.191406 184.195312 C 628.332031 184.195312 630.878906 186.742188 630.878906 189.886719 "/>
<path style="fill-rule:nonzero;fill:rgb(18.431373%,30.980392%,30.980392%);fill-opacity:0.901961;stroke-width:0.708661;stroke-linecap:round;stroke-linejoin:round;stroke:rgb(18.431373%,30.980392%,30.980392%);stroke-opacity:0.901961;stroke-miterlimit:10;" d="M 409.878906 237.214844 C 409.878906 240.355469 407.332031 242.90625 404.191406 242.90625 C 401.050781 242.90625 398.503906 240.355469 398.503906 237.214844 C 398.503906 234.074219 401.050781 231.527344 404.191406 231.527344 C 407.332031 231.527344 409.878906 234.074219 409.878906 237.214844 "/>
<path style="fill-rule:nonzero;fill:rgb(18.431373%,30.980392%,30.980392%);fill-opacity:0.901961;stroke-width:0.708661;stroke-linecap:round;stroke-linejoin:round;stroke:rgb(18.431373%,30.980392%,30.980392%);stroke-opacity:0.901961;stroke-miterlimit:10;" d="M 726.796875 66.148438 C 726.796875 69.289062 724.25 71.835938 721.105469 71.835938 C 717.964844 71.835938 715.417969 69.289062 715.417969 66.148438 C 715.417969 63.007812 717.964844 60.460938 721.105469 60.460938 C 724.25 60.460938 726.796875 63.007812 726.796875 66.148438 "/>
<path style="fill-rule:nonzero;fill:rgb(18.431373%,30.980392%,30.980392%);fill-opacity:0.901961;stroke-width:0.708661;stroke-linecap:round;stroke-linejoin:round;stroke:rgb(18.431373%,30.980392%,30.980392%);stroke-opacity:0.901961;stroke-miterlimit:10;" d="M 110.089844 287.195312 C 110.089844 290.335938 107.542969 292.882812 104.398438 292.882812 C 101.257812 292.882812 98.710938 290.335938 98.710938 287.195312 C 98.710938 284.050781 101.257812 281.503906 104.398438 281.503906 C 107.542969 281.503906 110.089844 284.050781 110.089844 287.195312 "/>
<path style="fill-rule:nonzero;fill:rgb(18.431373%,30.980392%,30.980392%);fill-opacity:0.901961;stroke-width:0.708661;stroke-linecap:round;stroke-linejoin:round;stroke:rgb(18.431373%,30.980392%,30.980392%);stroke-opacity:0.901961;stroke-miterlimit:10;" d="M 518.992188 214.785156 C 518.992188 217.929688 516.445312 220.476562 513.304688 220.476562 C 510.160156 220.476562 507.613281 217.929688 507.613281 214.785156 C 507.613281 211.644531 510.160156 209.097656 513.304688 209.097656 C 516.445312 209.097656 518.992188 211.644531 518.992188 214.785156 "/>
<path style="fill-rule:nonzero;fill:rgb(18.431373%,30.980392%,30.980392%);fill-opacity:0.901961;stroke-width:0.708661;stroke-linecap:round;stroke-linejoin:round;stroke:rgb(18.431373%,30.980392%,30.980392%);stroke-opacity:0.901961;stroke-miterlimit:10;" d="M 454.1875 181.09375 C 454.1875 184.234375 451.640625 186.78125 448.496094 186.78125 C 445.355469 186.78125 442.808594 184.234375 442.808594 181.09375 C 442.808594 177.953125 445.355469 175.40625 448.496094 175.40625 C 451.640625 175.40625 454.1875 177.953125 454.1875 181.09375 "/>
<path style="fill-rule:nonzero;fill:rgb(18.431373%,30.980392%,30.980392%);fill-opacity:0.901961;stroke-width:0.708661;stroke-linecap:round;stroke-linejoin:round;stroke:rgb(18.431373%,30.980392%,30.980392%);stroke-opacity:0.901961;stroke-miterlimit:10;" d="M 261.601562 250.429688 C 261.601562 253.574219 259.054688 256.121094 255.910156 256.121094 C 252.769531 256.121094 250.222656 253.574219 250.222656 250.429688 C 250.222656 247.289062 252.769531 244.742188 255.910156 244.742188 C 259.054688 244.742188 261.601562 247.289062 261.601562 250.429688 "/>
<path style="fill-rule:nonzero;fill:rgb(18.431373%,30.980392%,30.980392%);fill-opacity:0.901961;stroke-width:0.708661;stroke-linecap:round;stroke-linejoin:round;stroke:rgb(18.431373%,30.980392%,30.980392%);stroke-opacity:0.901961;stroke-miterlimit:10;" d="M 598.089844 201.28125 C 598.089844 204.425781 595.542969 206.972656 592.398438 206.972656 C 589.257812 206.972656 586.710938 204.425781 586.710938 201.28125 C 586.710938 198.140625 589.257812 195.59375 592.398438 195.59375 C 595.542969 195.59375 598.089844 198.140625 598.089844 201.28125 "/>
<path style="fill-rule:nonzero;fill:rgb(18.431373%,30.980392%,30.980392%);fill-opacity:0.901961;stroke-width:0.708661;stroke-linecap:round;stroke-linejoin:round;stroke:rgb(18.431373%,30.980392%,30.980392%);stroke-opacity:0.901961;stroke-miterlimit:10;" d="M 265.71875 311.304688 C 265.71875 314.445312 263.171875 316.996094 260.03125 316.996094 C 256.886719 316.996094 254.339844 314.445312 254.339844 311.304688 C 254.339844 308.164062 256.886719 305.617188 260.03125 305.617188 C 263.171875 305.617188 265.71875 308.164062 265.71875 311.304688 "/>
<path style="fill-rule:nonzero;fill:rgb(18.431373%,30.980392%,30.980392%);fill-opacity:0.901961;stroke-width:0.708661;stroke-linecap:round;stroke-linejoin:round;stroke:rgb(18.431373%,30.980392%,30.980392%);stroke-opacity:0.901961;stroke-miterlimit:10;" d="M 386.796875 217.644531 C 386.796875 220.789062 384.25 223.335938 381.105469 223.335938 C 377.964844 223.335938 375.417969 220.789062 375.417969 217.644531 C 375.417969 214.503906 377.964844 211.957031 381.105469 211.957031 C 384.25 211.957031 386.796875 214.503906 386.796875 217.644531 "/>
<path style="fill-rule:nonzero;fill:rgb(18.431373%,30.980392%,30.980392%);fill-opacity:0.901961;stroke-width:0.708661;stroke-linecap:round;stroke-linejoin:round;stroke:rgb(18.431373%,30.980392%,30.980392%);stroke-opacity:0.901961;stroke-miterlimit:10;" d="M 704.722656 94.984375 C 704.722656 98.125 702.175781 100.671875 699.035156 100.671875 C 695.890625 100.671875 693.34375 98.125 693.34375 94.984375 C 693.34375 91.839844 695.890625 89.292969 699.035156 89.292969 C 702.175781 89.292969 704.722656 91.839844 704.722656 94.984375 "/>
<path style="fill-rule:nonzero;fill:rgb(18.431373%,30.980392%,30.980392%);fill-opacity:0.901961;stroke-width:0.708661;stroke-linecap:round;stroke-linejoin:round;stroke:rgb(18.431373%,30.980392%,30.980392%);stroke-opacity:0.901961;stroke-miterlimit:10;" d="M 235.933594 315.132812 C 235.933594 318.277344 233.386719 320.824219 230.246094 320.824219 C 227.105469 320.824219 224.558594 318.277344 224.558594 315.132812 C 224.558594 311.992188 227.105469 309.445312 230.246094 309.445312 C 233.386719 309.445312 235.933594 311.992188 235.933594 315.132812 "/>
<path style="fill-rule:nonzero;fill:rgb(18.431373%,30.980392%,30.980392%);fill-opacity:0.901961;stroke-width:0.708661;stroke-linecap:round;stroke-linejoin:round;stroke:rgb(18.431373%,30.980392%,30.980392%);stroke-opacity:0.901961;stroke-miterlimit:10;" d="M 130.621094 289.871094 C 130.621094 293.011719 128.074219 295.558594 124.933594 295.558594 C 121.792969 295.558594 119.246094 293.011719 119.246094 289.871094 C 119.246094 286.726562 121.792969 284.179688 124.933594 284.179688 C 128.074219 284.179688 130.621094 286.726562 130.621094 289.871094 "/>
<path style="fill-rule:nonzero;fill:rgb(18.431373%,30.980392%,30.980392%);fill-opacity:0.901961;stroke-width:0.708661;stroke-linecap:round;stroke-linejoin:round;stroke:rgb(18.431373%,30.980392%,30.980392%);stroke-opacity:0.901961;stroke-miterlimit:10;" d="M 559.847656 220.613281 C 559.847656 223.753906 557.300781 226.300781 554.160156 226.300781 C 551.015625 226.300781 548.46875 223.753906 548.46875 220.613281 C 548.46875 217.46875 551.015625 214.921875 554.160156 214.921875 C 557.300781 214.921875 559.847656 217.46875 559.847656 220.613281 "/>
<path style="fill-rule:nonzero;fill:rgb(18.431373%,30.980392%,30.980392%);fill-opacity:0.901961;stroke-width:0.708661;stroke-linecap:round;stroke-linejoin:round;stroke:rgb(18.431373%,30.980392%,30.980392%);stroke-opacity:0.901961;stroke-miterlimit:10;" d="M 587.753906 252.542969 C 587.753906 255.683594 585.207031 258.230469 582.066406 258.230469 C 578.921875 258.230469 576.375 255.683594 576.375 252.542969 C 576.375 249.402344 578.921875 246.855469 582.066406 246.855469 C 585.207031 246.855469 587.753906 249.402344 587.753906 252.542969 "/>
<path style="fill-rule:nonzero;fill:rgb(18.431373%,30.980392%,30.980392%);fill-opacity:0.901961;stroke-width:0.708661;stroke-linecap:round;stroke-linejoin:round;stroke:rgb(18.431373%,30.980392%,30.980392%);stroke-opacity:0.901961;stroke-miterlimit:10;" d="M 214.492188 285.210938 C 214.492188 288.351562 211.945312 290.902344 208.804688 290.902344 C 205.660156 290.902344 203.113281 288.351562 203.113281 285.210938 C 203.113281 282.070312 205.660156 279.523438 208.804688 279.523438 C 211.945312 279.523438 214.492188 282.070312 214.492188 285.210938 "/>
<path style="fill-rule:nonzero;fill:rgb(18.431373%,30.980392%,30.980392%);fill-opacity:0.901961;stroke-width:0.708661;stroke-linecap:round;stroke-linejoin:round;stroke:rgb(18.431373%,30.980392%,30.980392%);stroke-opacity:0.901961;stroke-miterlimit:10;" d="M 383.199219 216.652344 C 383.199219 219.792969 380.652344 222.339844 377.507812 222.339844 C 374.367188 222.339844 371.820312 219.792969 371.820312 216.652344 C 371.820312 213.511719 374.367188 210.960938 377.507812 210.960938 C 380.652344 210.960938 383.199219 213.511719 383.199219 216.652344 "/>
<path style="fill-rule:nonzero;fill:rgb(18.431373%,30.980392%,30.980392%);fill-opacity:0.901961;stroke-width:0.708661;stroke-linecap:round;stroke-linejoin:round;stroke:rgb(18.431373%,30.980392%,30.980392%);stroke-opacity:0.901961;stroke-miterlimit:10;" d="M 220.789062 296.308594 C 220.789062 299.453125 218.242188 302 215.101562 302 C 211.960938 302 209.414062 299.453125 209.414062 296.308594 C 209.414062 293.167969 211.960938 290.621094 215.101562 290.621094 C 218.242188 290.621094 220.789062 293.167969 220.789062 296.308594 "/>
<path style="fill-rule:nonzero;fill:rgb(18.431373%,30.980392%,30.980392%);fill-opacity:0.901961;stroke-width:0.708661;stroke-linecap:round;stroke-linejoin:round;stroke:rgb(18.431373%,30.980392%,30.980392%);stroke-opacity:0.901961;stroke-miterlimit:10;" d="M 589.757812 259.824219 C 589.757812 262.964844 587.210938 265.511719 584.070312 265.511719 C 580.929688 265.511719 578.378906 262.964844 578.378906 259.824219 C 578.378906 256.683594 580.929688 254.136719 584.070312 254.136719 C 587.210938 254.136719 589.757812 256.683594 589.757812 259.824219 "/>
<path style="fill-rule:nonzero;fill:rgb(18.431373%,30.980392%,30.980392%);fill-opacity:0.901961;stroke-width:0.708661;stroke-linecap:round;stroke-linejoin:round;stroke:rgb(18.431373%,30.980392%,30.980392%);stroke-opacity:0.901961;stroke-miterlimit:10;" d="M 264.503906 310.175781 C 264.503906 313.316406 261.953125 315.863281 258.8125 315.863281 C 255.671875 315.863281 253.125 313.316406 253.125 310.175781 C 253.125 307.035156 255.671875 304.488281 258.8125 304.488281 C 261.953125 304.488281 264.503906 307.035156 264.503906 310.175781 "/>
<path style="fill-rule:nonzero;fill:rgb(18.431373%,30.980392%,30.980392%);fill-opacity:0.901961;stroke-width:0.708661;stroke-linecap:round;stroke-linejoin:round;stroke:rgb(18.431373%,30.980392%,30.980392%);stroke-opacity:0.901961;stroke-miterlimit:10;" d="M 457.945312 215.328125 C 457.945312 218.46875 455.398438 221.015625 452.257812 221.015625 C 449.113281 221.015625 446.566406 218.46875 446.566406 215.328125 C 446.566406 212.183594 449.113281 209.636719 452.257812 209.636719 C 455.398438 209.636719 457.945312 212.183594 457.945312 215.328125 "/>
<path style="fill-rule:nonzero;fill:rgb(18.431373%,30.980392%,30.980392%);fill-opacity:0.901961;stroke-width:0.708661;stroke-linecap:round;stroke-linejoin:round;stroke:rgb(18.431373%,30.980392%,30.980392%);stroke-opacity:0.901961;stroke-miterlimit:10;" d="M 368.222656 297.628906 C 368.222656 300.769531 365.675781 303.316406 362.535156 303.316406 C 359.390625 303.316406 356.84375 300.769531 356.84375 297.628906 C 356.84375 294.484375 359.390625 291.9375 362.535156 291.9375 C 365.675781 291.9375 368.222656 294.484375 368.222656 297.628906 "/>
<path style="fill-rule:nonzero;fill:rgb(18.431373%,30.980392%,30.980392%);fill-opacity:0.901961;stroke-width:0.708661;stroke-linecap:round;stroke-linejoin:round;stroke:rgb(18.431373%,30.980392%,30.980392%);stroke-opacity:0.901961;stroke-miterlimit:10;" d="M 551.851562 216.320312 C 551.851562 219.460938 549.304688 222.011719 546.160156 222.011719 C 543.019531 222.011719 540.472656 219.460938 540.472656 216.320312 C 540.472656 213.179688 543.019531 210.632812 546.160156 210.632812 C 549.304688 210.632812 551.851562 213.179688 551.851562 216.320312 "/>
<path style="fill-rule:nonzero;fill:rgb(18.431373%,30.980392%,30.980392%);fill-opacity:0.901961;stroke-width:0.708661;stroke-linecap:round;stroke-linejoin:round;stroke:rgb(18.431373%,30.980392%,30.980392%);stroke-opacity:0.901961;stroke-miterlimit:10;" d="M 372.40625 279.621094 C 372.40625 282.761719 369.855469 285.308594 366.714844 285.308594 C 363.574219 285.308594 361.027344 282.761719 361.027344 279.621094 C 361.027344 276.476562 363.574219 273.929688 366.714844 273.929688 C 369.855469 273.929688 372.40625 276.476562 372.40625 279.621094 "/>
<path style="fill-rule:nonzero;fill:rgb(18.431373%,30.980392%,30.980392%);fill-opacity:0.901961;stroke-width:0.708661;stroke-linecap:round;stroke-linejoin:round;stroke:rgb(18.431373%,30.980392%,30.980392%);stroke-opacity:0.901961;stroke-miterlimit:10;" d="M 528.027344 286.917969 C 528.027344 290.058594 525.476562 292.605469 522.335938 292.605469 C 519.195312 292.605469 516.648438 290.058594 516.648438 286.917969 C 516.648438 283.777344 519.195312 281.230469 522.335938 281.230469 C 525.476562 281.230469 528.027344 283.777344 528.027344 286.917969 "/>
<path style="fill-rule:nonzero;fill:rgb(18.431373%,30.980392%,30.980392%);fill-opacity:0.901961;stroke-width:0.708661;stroke-linecap:round;stroke-linejoin:round;stroke:rgb(18.431373%,30.980392%,30.980392%);stroke-opacity:0.901961;stroke-miterlimit:10;" d="M 301.472656 330.226562 C 301.472656 333.367188 298.925781 335.917969 295.785156 335.917969 C 292.640625 335.917969 290.09375 333.367188 290.09375 330.226562 C 290.09375 327.085938 292.640625 324.539062 295.785156 324.539062 C 298.925781 324.539062 301.472656 327.085938 301.472656 330.226562 "/>
<path style="fill-rule:nonzero;fill:rgb(18.431373%,30.980392%,30.980392%);fill-opacity:0.901961;stroke-width:0.708661;stroke-linecap:round;stroke-linejoin:round;stroke:rgb(18.431373%,30.980392%,30.980392%);stroke-opacity:0.901961;stroke-miterlimit:10;" d="M 269.988281 321.835938 C 269.988281 324.976562 267.441406 327.523438 264.300781 327.523438 C 261.15625 327.523438 258.609375 324.976562 258.609375 321.835938 C 258.609375 318.691406 261.15625 316.144531 264.300781 316.144531 C 267.441406 316.144531 269.988281 318.691406 269.988281 321.835938 "/>
<path style="fill-rule:nonzero;fill:rgb(18.431373%,30.980392%,30.980392%);fill-opacity:0.901961;stroke-width:0.708661;stroke-linecap:round;stroke-linejoin:round;stroke:rgb(18.431373%,30.980392%,30.980392%);stroke-opacity:0.901961;stroke-miterlimit:10;" d="M 287.03125 284.1875 C 287.03125 287.328125 284.484375 289.875 281.34375 289.875 C 278.203125 289.875 275.65625 287.328125 275.65625 284.1875 C 275.65625 281.042969 278.203125 278.496094 281.34375 278.496094 C 284.484375 278.496094 287.03125 281.042969 287.03125 284.1875 "/>
<path style="fill-rule:nonzero;fill:rgb(18.431373%,30.980392%,30.980392%);fill-opacity:0.901961;stroke-width:0.708661;stroke-linecap:round;stroke-linejoin:round;stroke:rgb(18.431373%,30.980392%,30.980392%);stroke-opacity:0.901961;stroke-miterlimit:10;" d="M 402.777344 218.519531 C 402.777344 221.660156 400.230469 224.207031 397.089844 224.207031 C 393.945312 224.207031 391.398438 221.660156 391.398438 218.519531 C 391.398438 215.375 393.945312 212.828125 397.089844 212.828125 C 400.230469 212.828125 402.777344 215.375 402.777344 218.519531 "/>
<path style="fill-rule:nonzero;fill:rgb(18.431373%,30.980392%,30.980392%);fill-opacity:0.901961;stroke-width:0.708661;stroke-linecap:round;stroke-linejoin:round;stroke:rgb(18.431373%,30.980392%,30.980392%);stroke-opacity:0.901961;stroke-miterlimit:10;" d="M 626.960938 164.703125 C 626.960938 167.847656 624.414062 170.394531 621.269531 170.394531 C 618.128906 170.394531 615.582031 167.847656 615.582031 164.703125 C 615.582031 161.5625 618.128906 159.015625 621.269531 159.015625 C 624.414062 159.015625 626.960938 161.5625 626.960938 164.703125 "/>
<path style="fill-rule:nonzero;fill:rgb(18.431373%,30.980392%,30.980392%);fill-opacity:0.901961;stroke-width:0.708661;stroke-linecap:round;stroke-linejoin:round;stroke:rgb(18.431373%,30.980392%,30.980392%);stroke-opacity:0.901961;stroke-miterlimit:10;" d="M 474.644531 225.84375 C 474.644531 228.984375 472.097656 231.53125 468.957031 231.53125 C 465.8125 231.53125 463.265625 228.984375 463.265625 225.84375 C 463.265625 222.699219 465.8125 220.152344 468.957031 220.152344 C 472.097656 220.152344 474.644531 222.699219 474.644531 225.84375 "/>
<path style="fill-rule:nonzero;fill:rgb(18.431373%,30.980392%,30.980392%);fill-opacity:0.901961;stroke-width:0.708661;stroke-linecap:round;stroke-linejoin:round;stroke:rgb(18.431373%,30.980392%,30.980392%);stroke-opacity:0.901961;stroke-miterlimit:10;" d="M 588.398438 334.574219 C 588.398438 337.714844 585.851562 340.261719 582.707031 340.261719 C 579.566406 340.261719 577.019531 337.714844 577.019531 334.574219 C 577.019531 331.433594 579.566406 328.886719 582.707031 328.886719 C 585.851562 328.886719 588.398438 331.433594 588.398438 334.574219 "/>
<path style="fill-rule:nonzero;fill:rgb(18.431373%,30.980392%,30.980392%);fill-opacity:0.901961;stroke-width:0.708661;stroke-linecap:round;stroke-linejoin:round;stroke:rgb(18.431373%,30.980392%,30.980392%);stroke-opacity:0.901961;stroke-miterlimit:10;" d="M 361.582031 268.769531 C 361.582031 271.910156 359.035156 274.457031 355.890625 274.457031 C 352.75 274.457031 350.203125 271.910156 350.203125 268.769531 C 350.203125 265.625 352.75 263.078125 355.890625 263.078125 C 359.035156 263.078125 361.582031 265.625 361.582031 268.769531 "/>
<path style="fill-rule:nonzero;fill:rgb(18.431373%,30.980392%,30.980392%);fill-opacity:0.901961;stroke-width:0.708661;stroke-linecap:round;stroke-linejoin:round;stroke:rgb(18.431373%,30.980392%,30.980392%);stroke-opacity:0.901961;stroke-miterlimit:10;" d="M 580.742188 320.382812 C 580.742188 323.523438 578.195312 326.070312 575.054688 326.070312 C 571.910156 326.070312 569.363281 323.523438 569.363281 320.382812 C 569.363281 317.238281 571.910156 314.691406 575.054688 314.691406 C 578.195312 314.691406 580.742188 317.238281 580.742188 320.382812 "/>
<path style="fill-rule:nonzero;fill:rgb(18.431373%,30.980392%,30.980392%);fill-opacity:0.901961;stroke-width:0.708661;stroke-linecap:round;stroke-linejoin:round;stroke:rgb(18.431373%,30.980392%,30.980392%);stroke-opacity:0.901961;stroke-miterlimit:10;" d="M 602.132812 20.167969 C 602.132812 23.308594 599.585938 25.855469 596.445312 25.855469 C 593.300781 25.855469 590.753906 23.308594 590.753906 20.167969 C 590.753906 17.023438 593.300781 14.476562 596.445312 14.476562 C 599.585938 14.476562 602.132812 17.023438 602.132812 20.167969 "/>
<path style="fill-rule:nonzero;fill:rgb(18.431373%,30.980392%,30.980392%);fill-opacity:0.901961;stroke-width:0.708661;stroke-linecap:round;stroke-linejoin:round;stroke:rgb(18.431373%,30.980392%,30.980392%);stroke-opacity:0.901961;stroke-miterlimit:10;" d="M 697.316406 169.480469 C 697.316406 172.621094 694.765625 175.167969 691.625 175.167969 C 688.484375 175.167969 685.9375 172.621094 685.9375 169.480469 C 685.9375 166.335938 688.484375 163.789062 691.625 163.789062 C 694.765625 163.789062 697.316406 166.335938 697.316406 169.480469 "/>
<path style="fill-rule:nonzero;fill:rgb(18.431373%,30.980392%,30.980392%);fill-opacity:0.901961;stroke-width:0.708661;stroke-linecap:round;stroke-linejoin:round;stroke:rgb(18.431373%,30.980392%,30.980392%);stroke-opacity:0.901961;stroke-miterlimit:10;" d="M 705.953125 120.167969 C 705.953125 123.3125 703.40625 125.859375 700.261719 125.859375 C 697.121094 125.859375 694.574219 123.3125 694.574219 120.167969 C 694.574219 117.027344 697.121094 114.480469 700.261719 114.480469 C 703.40625 114.480469 705.953125 117.027344 705.953125 120.167969 "/>
<path style="fill-rule:nonzero;fill:rgb(18.431373%,30.980392%,30.980392%);fill-opacity:0.901961;stroke-width:0.708661;stroke-linecap:round;stroke-linejoin:round;stroke:rgb(18.431373%,30.980392%,30.980392%);stroke-opacity:0.901961;stroke-miterlimit:10;" d="M 260.199219 238.890625 C 260.199219 242.03125 257.652344 244.582031 254.511719 244.582031 C 251.367188 244.582031 248.820312 242.03125 248.820312 238.890625 C 248.820312 235.75 251.367188 233.203125 254.511719 233.203125 C 257.652344 233.203125 260.199219 235.75 260.199219 238.890625 "/>
<path style="fill-rule:nonzero;fill:rgb(18.431373%,30.980392%,30.980392%);fill-opacity:0.901961;stroke-width:0.708661;stroke-linecap:round;stroke-linejoin:round;stroke:rgb(18.431373%,30.980392%,30.980392%);stroke-opacity:0.901961;stroke-miterlimit:10;" d="M 434.957031 231.117188 C 434.957031 234.261719 432.410156 236.808594 429.265625 236.808594 C 426.125 236.808594 423.578125 234.261719 423.578125 231.117188 C 423.578125 227.976562 426.125 225.429688 429.265625 225.429688 C 432.410156 225.429688 434.957031 227.976562 434.957031 231.117188 "/>
<path style="fill-rule:nonzero;fill:rgb(18.431373%,30.980392%,30.980392%);fill-opacity:0.901961;stroke-width:0.708661;stroke-linecap:round;stroke-linejoin:round;stroke:rgb(18.431373%,30.980392%,30.980392%);stroke-opacity:0.901961;stroke-miterlimit:10;" d="M 461.980469 199.179688 C 461.980469 202.320312 459.433594 204.867188 456.292969 204.867188 C 453.152344 204.867188 450.601562 202.320312 450.601562 199.179688 C 450.601562 196.035156 453.152344 193.488281 456.292969 193.488281 C 459.433594 193.488281 461.980469 196.035156 461.980469 199.179688 "/>
<path style="fill-rule:nonzero;fill:rgb(18.431373%,30.980392%,30.980392%);fill-opacity:0.901961;stroke-width:0.708661;stroke-linecap:round;stroke-linejoin:round;stroke:rgb(18.431373%,30.980392%,30.980392%);stroke-opacity:0.901961;stroke-miterlimit:10;" d="M 369.625 141.867188 C 369.625 145.007812 367.074219 147.558594 363.933594 147.558594 C 360.792969 147.558594 358.246094 145.007812 358.246094 141.867188 C 358.246094 138.726562 360.792969 136.179688 363.933594 136.179688 C 367.074219 136.179688 369.625 138.726562 369.625 141.867188 "/>
<path style="fill-rule:nonzero;fill:rgb(18.431373%,30.980392%,30.980392%);fill-opacity:0.901961;stroke-width:0.708661;stroke-linecap:round;stroke-linejoin:round;stroke:rgb(18.431373%,30.980392%,30.980392%);stroke-opacity:0.901961;stroke-miterlimit:10;" d="M 369.503906 294.707031 C 369.503906 297.847656 366.957031 300.394531 363.8125 300.394531 C 360.671875 300.394531 358.125 297.847656 358.125 294.707031 C 358.125 291.5625 360.671875 289.015625 363.8125 289.015625 C 366.957031 289.015625 369.503906 291.5625 369.503906 294.707031 "/>
<path style="fill-rule:nonzero;fill:rgb(18.431373%,30.980392%,30.980392%);fill-opacity:0.901961;stroke-width:0.708661;stroke-linecap:round;stroke-linejoin:round;stroke:rgb(18.431373%,30.980392%,30.980392%);stroke-opacity:0.901961;stroke-miterlimit:10;" d="M 563.71875 141.199219 C 563.71875 144.339844 561.171875 146.886719 558.027344 146.886719 C 554.886719 146.886719 552.339844 144.339844 552.339844 141.199219 C 552.339844 138.054688 554.886719 135.507812 558.027344 135.507812 C 561.171875 135.507812 563.71875 138.054688 563.71875 141.199219 "/>
<path style="fill-rule:nonzero;fill:rgb(18.431373%,30.980392%,30.980392%);fill-opacity:0.901961;stroke-width:0.708661;stroke-linecap:round;stroke-linejoin:round;stroke:rgb(18.431373%,30.980392%,30.980392%);stroke-opacity:0.901961;stroke-miterlimit:10;" d="M 652.8125 260.683594 C 652.8125 263.828125 650.265625 266.375 647.125 266.375 C 643.980469 266.375 641.433594 263.828125 641.433594 260.683594 C 641.433594 257.542969 643.980469 254.996094 647.125 254.996094 C 650.265625 254.996094 652.8125 257.542969 652.8125 260.683594 "/>
<path style="fill-rule:nonzero;fill:rgb(18.431373%,30.980392%,30.980392%);fill-opacity:0.901961;stroke-width:0.708661;stroke-linecap:round;stroke-linejoin:round;stroke:rgb(18.431373%,30.980392%,30.980392%);stroke-opacity:0.901961;stroke-miterlimit:10;" d="M 387.5 242.347656 C 387.5 245.488281 384.953125 248.035156 381.8125 248.035156 C 378.667969 248.035156 376.121094 245.488281 376.121094 242.347656 C 376.121094 239.203125 378.667969 236.65625 381.8125 236.65625 C 384.953125 236.65625 387.5 239.203125 387.5 242.347656 "/>
<path style="fill-rule:nonzero;fill:rgb(18.431373%,30.980392%,30.980392%);fill-opacity:0.901961;stroke-width:0.708661;stroke-linecap:round;stroke-linejoin:round;stroke:rgb(18.431373%,30.980392%,30.980392%);stroke-opacity:0.901961;stroke-miterlimit:10;" d="M 319.746094 182.648438 C 319.746094 185.792969 317.195312 188.339844 314.054688 188.339844 C 310.914062 188.339844 308.367188 185.792969 308.367188 182.648438 C 308.367188 179.507812 310.914062 176.960938 314.054688 176.960938 C 317.195312 176.960938 319.746094 179.507812 319.746094 182.648438 "/>
<path style="fill-rule:nonzero;fill:rgb(18.431373%,30.980392%,30.980392%);fill-opacity:0.901961;stroke-width:0.708661;stroke-linecap:round;stroke-linejoin:round;stroke:rgb(18.431373%,30.980392%,30.980392%);stroke-opacity:0.901961;stroke-miterlimit:10;" d="M 512.511719 163.484375 C 512.511719 166.628906 509.964844 169.175781 506.824219 169.175781 C 503.679688 169.175781 501.132812 166.628906 501.132812 163.484375 C 501.132812 160.34375 503.679688 157.796875 506.824219 157.796875 C 509.964844 157.796875 512.511719 160.34375 512.511719 163.484375 "/>
<path style="fill-rule:nonzero;fill:rgb(18.431373%,30.980392%,30.980392%);fill-opacity:0.901961;stroke-width:0.708661;stroke-linecap:round;stroke-linejoin:round;stroke:rgb(18.431373%,30.980392%,30.980392%);stroke-opacity:0.901961;stroke-miterlimit:10;" d="M 423.226562 210.574219 C 423.226562 213.71875 420.679688 216.265625 417.539062 216.265625 C 414.394531 216.265625 411.847656 213.71875 411.847656 210.574219 C 411.847656 207.433594 414.394531 204.886719 417.539062 204.886719 C 420.679688 204.886719 423.226562 207.433594 423.226562 210.574219 "/>
<path style="fill-rule:nonzero;fill:rgb(18.431373%,30.980392%,30.980392%);fill-opacity:0.901961;stroke-width:0.708661;stroke-linecap:round;stroke-linejoin:round;stroke:rgb(18.431373%,30.980392%,30.980392%);stroke-opacity:0.901961;stroke-miterlimit:10;" d="M 297.703125 234.585938 C 297.703125 237.726562 295.15625 240.273438 292.015625 240.273438 C 288.871094 240.273438 286.324219 237.726562 286.324219 234.585938 C 286.324219 231.445312 288.871094 228.898438 292.015625 228.898438 C 295.15625 228.898438 297.703125 231.445312 297.703125 234.585938 "/>
<path style="fill-rule:nonzero;fill:rgb(18.431373%,30.980392%,30.980392%);fill-opacity:0.901961;stroke-width:0.708661;stroke-linecap:round;stroke-linejoin:round;stroke:rgb(18.431373%,30.980392%,30.980392%);stroke-opacity:0.901961;stroke-miterlimit:10;" d="M 390.867188 133.164062 C 390.867188 136.304688 388.320312 138.851562 385.175781 138.851562 C 382.035156 138.851562 379.488281 136.304688 379.488281 133.164062 C 379.488281 130.023438 382.035156 127.472656 385.175781 127.472656 C 388.320312 127.472656 390.867188 130.023438 390.867188 133.164062 "/>
<path style="fill-rule:nonzero;fill:rgb(18.431373%,30.980392%,30.980392%);fill-opacity:0.901961;stroke-width:0.708661;stroke-linecap:round;stroke-linejoin:round;stroke:rgb(18.431373%,30.980392%,30.980392%);stroke-opacity:0.901961;stroke-miterlimit:10;" d="M 514.285156 253.828125 C 514.285156 256.96875 511.738281 259.515625 508.59375 259.515625 C 505.453125 259.515625 502.90625 256.96875 502.90625 253.828125 C 502.90625 250.683594 505.453125 248.136719 508.59375 248.136719 C 511.738281 248.136719 514.285156 250.683594 514.285156 253.828125 "/>
<path style="fill-rule:nonzero;fill:rgb(18.431373%,30.980392%,30.980392%);fill-opacity:0.901961;stroke-width:0.708661;stroke-linecap:round;stroke-linejoin:round;stroke:rgb(18.431373%,30.980392%,30.980392%);stroke-opacity:0.901961;stroke-miterlimit:10;" d="M 454.445312 284.484375 C 454.445312 287.625 451.898438 290.171875 448.757812 290.171875 C 445.613281 290.171875 443.066406 287.625 443.066406 284.484375 C 443.066406 281.339844 445.613281 278.792969 448.757812 278.792969 C 451.898438 278.792969 454.445312 281.339844 454.445312 284.484375 "/>
<path style="fill-rule:nonzero;fill:rgb(18.431373%,30.980392%,30.980392%);fill-opacity:0.901961;stroke-width:0.708661;stroke-linecap:round;stroke-linejoin:round;stroke:rgb(18.431373%,30.980392%,30.980392%);stroke-opacity:0.901961;stroke-miterlimit:10;" d="M 305.230469 236.757812 C 305.230469 239.902344 302.683594 242.449219 299.542969 242.449219 C 296.402344 242.449219 293.855469 239.902344 293.855469 236.757812 C 293.855469 233.617188 296.402344 231.070312 299.542969 231.070312 C 302.683594 231.070312 305.230469 233.617188 305.230469 236.757812 "/>
<path style="fill-rule:nonzero;fill:rgb(18.431373%,30.980392%,30.980392%);fill-opacity:0.901961;stroke-width:0.708661;stroke-linecap:round;stroke-linejoin:round;stroke:rgb(18.431373%,30.980392%,30.980392%);stroke-opacity:0.901961;stroke-miterlimit:10;" d="M 438.285156 268.496094 C 438.285156 271.640625 435.738281 274.1875 432.59375 274.1875 C 429.453125 274.1875 426.90625 271.640625 426.90625 268.496094 C 426.90625 265.355469 429.453125 262.808594 432.59375 262.808594 C 435.738281 262.808594 438.285156 265.355469 438.285156 268.496094 "/>
<path style="fill-rule:nonzero;fill:rgb(18.431373%,30.980392%,30.980392%);fill-opacity:0.901961;stroke-width:0.708661;stroke-linecap:round;stroke-linejoin:round;stroke:rgb(18.431373%,30.980392%,30.980392%);stroke-opacity:0.901961;stroke-miterlimit:10;" d="M 492.359375 235.132812 C 492.359375 238.273438 489.8125 240.820312 486.671875 240.820312 C 483.527344 240.820312 480.980469 238.273438 480.980469 235.132812 C 480.980469 231.988281 483.527344 229.441406 486.671875 229.441406 C 489.8125 229.441406 492.359375 231.988281 492.359375 235.132812 "/>
<path style="fill-rule:nonzero;fill:rgb(18.431373%,30.980392%,30.980392%);fill-opacity:0.901961;stroke-width:0.708661;stroke-linecap:round;stroke-linejoin:round;stroke:rgb(18.431373%,30.980392%,30.980392%);stroke-opacity:0.901961;stroke-miterlimit:10;" d="M 249.179688 251.875 C 249.179688 255.015625 246.632812 257.566406 243.492188 257.566406 C 240.347656 257.566406 237.800781 255.015625 237.800781 251.875 C 237.800781 248.734375 240.347656 246.1875 243.492188 246.1875 C 246.632812 246.1875 249.179688 248.734375 249.179688 251.875 "/>
<path style="fill-rule:nonzero;fill:rgb(18.431373%,30.980392%,30.980392%);fill-opacity:0.901961;stroke-width:0.708661;stroke-linecap:round;stroke-linejoin:round;stroke:rgb(18.431373%,30.980392%,30.980392%);stroke-opacity:0.901961;stroke-miterlimit:10;" d="M 501.328125 169.105469 C 501.328125 172.25 498.78125 174.796875 495.636719 174.796875 C 492.496094 174.796875 489.949219 172.25 489.949219 169.105469 C 489.949219 165.964844 492.496094 163.417969 495.636719 163.417969 C 498.78125 163.417969 501.328125 165.964844 501.328125 169.105469 "/>
<path style="fill-rule:nonzero;fill:rgb(18.431373%,30.980392%,30.980392%);fill-opacity:0.901961;stroke-width:0.708661;stroke-linecap:round;stroke-linejoin:round;stroke:rgb(18.431373%,30.980392%,30.980392%);stroke-opacity:0.901961;stroke-miterlimit:10;" d="M 291.03125 347.929688 C 291.03125 351.070312 288.480469 353.617188 285.339844 353.617188 C 282.199219 353.617188 279.652344 351.070312 279.652344 347.929688 C 279.652344 344.785156 282.199219 342.238281 285.339844 342.238281 C 288.480469 342.238281 291.03125 344.785156 291.03125 347.929688 "/>
<path style="fill-rule:nonzero;fill:rgb(18.431373%,30.980392%,30.980392%);fill-opacity:0.901961;stroke-width:0.708661;stroke-linecap:round;stroke-linejoin:round;stroke:rgb(18.431373%,30.980392%,30.980392%);stroke-opacity:0.901961;stroke-miterlimit:10;" d="M 472.117188 261.222656 C 472.117188 264.367188 469.566406 266.914062 466.425781 266.914062 C 463.285156 266.914062 460.738281 264.367188 460.738281 261.222656 C 460.738281 258.082031 463.285156 255.535156 466.425781 255.535156 C 469.566406 255.535156 472.117188 258.082031 472.117188 261.222656 "/>
<path style="fill-rule:nonzero;fill:rgb(18.431373%,30.980392%,30.980392%);fill-opacity:0.901961;stroke-width:0.708661;stroke-linecap:round;stroke-linejoin:round;stroke:rgb(18.431373%,30.980392%,30.980392%);stroke-opacity:0.901961;stroke-miterlimit:10;" d="M 317.277344 174.445312 C 317.277344 177.589844 314.730469 180.136719 311.585938 180.136719 C 308.445312 180.136719 305.898438 177.589844 305.898438 174.445312 C 305.898438 171.304688 308.445312 168.757812 311.585938 168.757812 C 314.730469 168.757812 317.277344 171.304688 317.277344 174.445312 "/>
<path style="fill-rule:nonzero;fill:rgb(18.431373%,30.980392%,30.980392%);fill-opacity:0.901961;stroke-width:0.708661;stroke-linecap:round;stroke-linejoin:round;stroke:rgb(18.431373%,30.980392%,30.980392%);stroke-opacity:0.901961;stroke-miterlimit:10;" d="M 438.683594 321.628906 C 438.683594 324.773438 436.136719 327.320312 432.996094 327.320312 C 429.855469 327.320312 427.308594 324.773438 427.308594 321.628906 C 427.308594 318.488281 429.855469 315.941406 432.996094 315.941406 C 436.136719 315.941406 438.683594 318.488281 438.683594 321.628906 "/>
<path style="fill-rule:nonzero;fill:rgb(18.431373%,30.980392%,30.980392%);fill-opacity:0.901961;stroke-width:0.708661;stroke-linecap:round;stroke-linejoin:round;stroke:rgb(18.431373%,30.980392%,30.980392%);stroke-opacity:0.901961;stroke-miterlimit:10;" d="M 527.851562 299.167969 C 527.851562 302.308594 525.304688 304.859375 522.164062 304.859375 C 519.019531 304.859375 516.472656 302.308594 516.472656 299.167969 C 516.472656 296.027344 519.019531 293.480469 522.164062 293.480469 C 525.304688 293.480469 527.851562 296.027344 527.851562 299.167969 "/>
<path style="fill-rule:nonzero;fill:rgb(18.431373%,30.980392%,30.980392%);fill-opacity:0.901961;stroke-width:0.708661;stroke-linecap:round;stroke-linejoin:round;stroke:rgb(18.431373%,30.980392%,30.980392%);stroke-opacity:0.901961;stroke-miterlimit:10;" d="M 372.886719 282.078125 C 372.886719 285.21875 370.339844 287.765625 367.199219 287.765625 C 364.058594 287.765625 361.511719 285.21875 361.511719 282.078125 C 361.511719 278.933594 364.058594 276.386719 367.199219 276.386719 C 370.339844 276.386719 372.886719 278.933594 372.886719 282.078125 "/>
<path style="fill-rule:nonzero;fill:rgb(18.431373%,30.980392%,30.980392%);fill-opacity:0.901961;stroke-width:0.708661;stroke-linecap:round;stroke-linejoin:round;stroke:rgb(18.431373%,30.980392%,30.980392%);stroke-opacity:0.901961;stroke-miterlimit:10;" d="M 665.285156 91.019531 C 665.285156 94.164062 662.738281 96.710938 659.59375 96.710938 C 656.453125 96.710938 653.90625 94.164062 653.90625 91.019531 C 653.90625 87.878906 656.453125 85.332031 659.59375 85.332031 C 662.738281 85.332031 665.285156 87.878906 665.285156 91.019531 "/>
<path style="fill-rule:nonzero;fill:rgb(18.431373%,30.980392%,30.980392%);fill-opacity:0.901961;stroke-width:0.708661;stroke-linecap:round;stroke-linejoin:round;stroke:rgb(18.431373%,30.980392%,30.980392%);stroke-opacity:0.901961;stroke-miterlimit:10;" d="M 353.953125 283.855469 C 353.953125 287 351.40625 289.546875 348.261719 289.546875 C 345.121094 289.546875 342.574219 287 342.574219 283.855469 C 342.574219 280.714844 345.121094 278.167969 348.261719 278.167969 C 351.40625 278.167969 353.953125 280.714844 353.953125 283.855469 "/>
<path style="fill-rule:nonzero;fill:rgb(18.431373%,30.980392%,30.980392%);fill-opacity:0.901961;stroke-width:0.708661;stroke-linecap:round;stroke-linejoin:round;stroke:rgb(18.431373%,30.980392%,30.980392%);stroke-opacity:0.901961;stroke-miterlimit:10;" d="M 197.324219 308.304688 C 197.324219 311.449219 194.777344 313.996094 191.636719 313.996094 C 188.492188 313.996094 185.945312 311.449219 185.945312 308.304688 C 185.945312 305.164062 188.492188 302.617188 191.636719 302.617188 C 194.777344 302.617188 197.324219 305.164062 197.324219 308.304688 "/>
<path style="fill-rule:nonzero;fill:rgb(18.431373%,30.980392%,30.980392%);fill-opacity:0.901961;stroke-width:0.708661;stroke-linecap:round;stroke-linejoin:round;stroke:rgb(18.431373%,30.980392%,30.980392%);stroke-opacity:0.901961;stroke-miterlimit:10;" d="M 295.507812 272.617188 C 295.507812 275.757812 292.960938 278.304688 289.816406 278.304688 C 286.675781 278.304688 284.128906 275.757812 284.128906 272.617188 C 284.128906 269.476562 286.675781 266.929688 289.816406 266.929688 C 292.960938 266.929688 295.507812 269.476562 295.507812 272.617188 "/>
<path style="fill-rule:nonzero;fill:rgb(18.431373%,30.980392%,30.980392%);fill-opacity:0.901961;stroke-width:0.708661;stroke-linecap:round;stroke-linejoin:round;stroke:rgb(18.431373%,30.980392%,30.980392%);stroke-opacity:0.901961;stroke-miterlimit:10;" d="M 351.042969 161.1875 C 351.042969 164.328125 348.496094 166.875 345.355469 166.875 C 342.210938 166.875 339.664062 164.328125 339.664062 161.1875 C 339.664062 158.042969 342.210938 155.496094 345.355469 155.496094 C 348.496094 155.496094 351.042969 158.042969 351.042969 161.1875 "/>
<path style="fill-rule:nonzero;fill:rgb(18.431373%,30.980392%,30.980392%);fill-opacity:0.901961;stroke-width:0.708661;stroke-linecap:round;stroke-linejoin:round;stroke:rgb(18.431373%,30.980392%,30.980392%);stroke-opacity:0.901961;stroke-miterlimit:10;" d="M 443.210938 186.074219 C 443.210938 189.214844 440.664062 191.765625 437.523438 191.765625 C 434.378906 191.765625 431.832031 189.214844 431.832031 186.074219 C 431.832031 182.933594 434.378906 180.386719 437.523438 180.386719 C 440.664062 180.386719 443.210938 182.933594 443.210938 186.074219 "/>
<path style="fill-rule:nonzero;fill:rgb(18.431373%,30.980392%,30.980392%);fill-opacity:0.901961;stroke-width:0.708661;stroke-linecap:round;stroke-linejoin:round;stroke:rgb(18.431373%,30.980392%,30.980392%);stroke-opacity:0.901961;stroke-miterlimit:10;" d="M 435.726562 274.902344 C 435.726562 278.042969 433.179688 280.589844 430.039062 280.589844 C 426.898438 280.589844 424.351562 278.042969 424.351562 274.902344 C 424.351562 271.757812 426.898438 269.210938 430.039062 269.210938 C 433.179688 269.210938 435.726562 271.757812 435.726562 274.902344 "/>
<path style="fill-rule:nonzero;fill:rgb(18.431373%,30.980392%,30.980392%);fill-opacity:0.901961;stroke-width:0.708661;stroke-linecap:round;stroke-linejoin:round;stroke:rgb(18.431373%,30.980392%,30.980392%);stroke-opacity:0.901961;stroke-miterlimit:10;" d="M 579.316406 84.316406 C 579.316406 87.457031 576.765625 90.003906 573.625 90.003906 C 570.484375 90.003906 567.9375 87.457031 567.9375 84.316406 C 567.9375 81.171875 570.484375 78.625 573.625 78.625 C 576.765625 78.625 579.316406 81.171875 579.316406 84.316406 "/>
<path style="fill-rule:nonzero;fill:rgb(18.431373%,30.980392%,30.980392%);fill-opacity:0.901961;stroke-width:0.708661;stroke-linecap:round;stroke-linejoin:round;stroke:rgb(18.431373%,30.980392%,30.980392%);stroke-opacity:0.901961;stroke-miterlimit:10;" d="M 349.359375 229.371094 C 349.359375 232.511719 346.808594 235.058594 343.667969 235.058594 C 340.527344 235.058594 337.980469 232.511719 337.980469 229.371094 C 337.980469 226.226562 340.527344 223.679688 343.667969 223.679688 C 346.808594 223.679688 349.359375 226.226562 349.359375 229.371094 "/>
<path style="fill-rule:nonzero;fill:rgb(18.431373%,30.980392%,30.980392%);fill-opacity:0.901961;stroke-width:0.708661;stroke-linecap:round;stroke-linejoin:round;stroke:rgb(18.431373%,30.980392%,30.980392%);stroke-opacity:0.901961;stroke-miterlimit:10;" d="M 28.921875 423.492188 C 28.921875 426.636719 26.375 429.183594 23.234375 429.183594 C 20.089844 429.183594 17.542969 426.636719 17.542969 423.492188 C 17.542969 420.351562 20.089844 417.804688 23.234375 417.804688 C 26.375 417.804688 28.921875 420.351562 28.921875 423.492188 "/>
<path style="fill-rule:nonzero;fill:rgb(18.431373%,30.980392%,30.980392%);fill-opacity:0.901961;stroke-width:0.708661;stroke-linecap:round;stroke-linejoin:round;stroke:rgb(18.431373%,30.980392%,30.980392%);stroke-opacity:0.901961;stroke-miterlimit:10;" d="M 579.359375 185.089844 C 579.359375 188.230469 576.808594 190.78125 573.667969 190.78125 C 570.527344 190.78125 567.980469 188.230469 567.980469 185.089844 C 567.980469 181.949219 570.527344 179.402344 573.667969 179.402344 C 576.808594 179.402344 579.359375 181.949219 579.359375 185.089844 "/>
<path style="fill-rule:nonzero;fill:rgb(18.431373%,30.980392%,30.980392%);fill-opacity:0.901961;stroke-width:0.708661;stroke-linecap:round;stroke-linejoin:round;stroke:rgb(18.431373%,30.980392%,30.980392%);stroke-opacity:0.901961;stroke-miterlimit:10;" d="M 597.675781 167.988281 C 597.675781 171.128906 595.128906 173.675781 591.984375 173.675781 C 588.84375 173.675781 586.296875 171.128906 586.296875 167.988281 C 586.296875 164.84375 588.84375 162.296875 591.984375 162.296875 C 595.128906 162.296875 597.675781 164.84375 597.675781 167.988281 "/>
<path style="fill-rule:nonzero;fill:rgb(18.431373%,30.980392%,30.980392%);fill-opacity:0.901961;stroke-width:0.708661;stroke-linecap:round;stroke-linejoin:round;stroke:rgb(18.431373%,30.980392%,30.980392%);stroke-opacity:0.901961;stroke-miterlimit:10;" d="M 511.488281 198.925781 C 511.488281 202.066406 508.941406 204.613281 505.796875 204.613281 C 502.65625 204.613281 500.109375 202.066406 500.109375 198.925781 C 500.109375 195.78125 502.65625 193.234375 505.796875 193.234375 C 508.941406 193.234375 511.488281 195.78125 511.488281 198.925781 "/>
<path style="fill-rule:nonzero;fill:rgb(18.431373%,30.980392%,30.980392%);fill-opacity:0.901961;stroke-width:0.708661;stroke-linecap:round;stroke-linejoin:round;stroke:rgb(18.431373%,30.980392%,30.980392%);stroke-opacity:0.901961;stroke-miterlimit:10;" d="M 189.917969 304.777344 C 189.917969 307.917969 187.371094 310.46875 184.226562 310.46875 C 181.085938 310.46875 178.539062 307.917969 178.539062 304.777344 C 178.539062 301.636719 181.085938 299.089844 184.226562 299.089844 C 187.371094 299.089844 189.917969 301.636719 189.917969 304.777344 "/>
<path style="fill-rule:nonzero;fill:rgb(18.431373%,30.980392%,30.980392%);fill-opacity:0.901961;stroke-width:0.708661;stroke-linecap:round;stroke-linejoin:round;stroke:rgb(18.431373%,30.980392%,30.980392%);stroke-opacity:0.901961;stroke-miterlimit:10;" d="M 456.808594 206.074219 C 456.808594 209.214844 454.261719 211.761719 451.117188 211.761719 C 447.976562 211.761719 445.429688 209.214844 445.429688 206.074219 C 445.429688 202.929688 447.976562 200.382812 451.117188 200.382812 C 454.261719 200.382812 456.808594 202.929688 456.808594 206.074219 "/>
<path style="fill-rule:nonzero;fill:rgb(18.431373%,30.980392%,30.980392%);fill-opacity:0.901961;stroke-width:0.708661;stroke-linecap:round;stroke-linejoin:round;stroke:rgb(18.431373%,30.980392%,30.980392%);stroke-opacity:0.901961;stroke-miterlimit:10;" d="M 630.234375 180.546875 C 630.234375 183.691406 627.6875 186.238281 624.546875 186.238281 C 621.40625 186.238281 618.859375 183.691406 618.859375 180.546875 C 618.859375 177.40625 621.40625 174.859375 624.546875 174.859375 C 627.6875 174.859375 630.234375 177.40625 630.234375 180.546875 "/>
<path style="fill-rule:nonzero;fill:rgb(18.431373%,30.980392%,30.980392%);fill-opacity:0.901961;stroke-width:0.708661;stroke-linecap:round;stroke-linejoin:round;stroke:rgb(18.431373%,30.980392%,30.980392%);stroke-opacity:0.901961;stroke-miterlimit:10;" d="M 541.25 300.640625 C 541.25 303.785156 538.699219 306.332031 535.558594 306.332031 C 532.417969 306.332031 529.871094 303.785156 529.871094 300.640625 C 529.871094 297.5 532.417969 294.953125 535.558594 294.953125 C 538.699219 294.953125 541.25 297.5 541.25 300.640625 "/>
<path style="fill-rule:nonzero;fill:rgb(18.431373%,30.980392%,30.980392%);fill-opacity:0.901961;stroke-width:0.708661;stroke-linecap:round;stroke-linejoin:round;stroke:rgb(18.431373%,30.980392%,30.980392%);stroke-opacity:0.901961;stroke-miterlimit:10;" d="M 579.265625 155.152344 C 579.265625 158.292969 576.71875 160.84375 573.574219 160.84375 C 570.433594 160.84375 567.886719 158.292969 567.886719 155.152344 C 567.886719 152.011719 570.433594 149.464844 573.574219 149.464844 C 576.71875 149.464844 579.265625 152.011719 579.265625 155.152344 "/>
<path style="fill-rule:nonzero;fill:rgb(18.431373%,30.980392%,30.980392%);fill-opacity:0.901961;stroke-width:0.708661;stroke-linecap:round;stroke-linejoin:round;stroke:rgb(18.431373%,30.980392%,30.980392%);stroke-opacity:0.901961;stroke-miterlimit:10;" d="M 556.851562 186.941406 C 556.851562 190.082031 554.304688 192.628906 551.164062 192.628906 C 548.023438 192.628906 545.472656 190.082031 545.472656 186.941406 C 545.472656 183.796875 548.023438 181.25 551.164062 181.25 C 554.304688 181.25 556.851562 183.796875 556.851562 186.941406 "/>
<path style="fill-rule:nonzero;fill:rgb(18.431373%,30.980392%,30.980392%);fill-opacity:0.901961;stroke-width:0.708661;stroke-linecap:round;stroke-linejoin:round;stroke:rgb(18.431373%,30.980392%,30.980392%);stroke-opacity:0.901961;stroke-miterlimit:10;" d="M 424.226562 175.398438 C 424.226562 178.542969 421.679688 181.089844 418.539062 181.089844 C 415.394531 181.089844 412.847656 178.542969 412.847656 175.398438 C 412.847656 172.257812 415.394531 169.710938 418.539062 169.710938 C 421.679688 169.710938 424.226562 172.257812 424.226562 175.398438 "/>
<path style="fill-rule:nonzero;fill:rgb(18.431373%,30.980392%,30.980392%);fill-opacity:0.901961;stroke-width:0.708661;stroke-linecap:round;stroke-linejoin:round;stroke:rgb(18.431373%,30.980392%,30.980392%);stroke-opacity:0.901961;stroke-miterlimit:10;" d="M 440.566406 234.457031 C 440.566406 237.597656 438.019531 240.144531 434.875 240.144531 C 431.734375 240.144531 429.1875 237.597656 429.1875 234.457031 C 429.1875 231.3125 431.734375 228.765625 434.875 228.765625 C 438.019531 228.765625 440.566406 231.3125 440.566406 234.457031 "/>
<path style="fill-rule:nonzero;fill:rgb(18.431373%,30.980392%,30.980392%);fill-opacity:0.901961;stroke-width:0.708661;stroke-linecap:round;stroke-linejoin:round;stroke:rgb(18.431373%,30.980392%,30.980392%);stroke-opacity:0.901961;stroke-miterlimit:10;" d="M 596.347656 200.847656 C 596.347656 203.992188 593.800781 206.539062 590.65625 206.539062 C 587.515625 206.539062 584.96875 203.992188 584.96875 200.847656 C 584.96875 197.707031 587.515625 195.160156 590.65625 195.160156 C 593.800781 195.160156 596.347656 197.707031 596.347656 200.847656 "/>
<path style="fill-rule:nonzero;fill:rgb(18.431373%,30.980392%,30.980392%);fill-opacity:0.901961;stroke-width:0.708661;stroke-linecap:round;stroke-linejoin:round;stroke:rgb(18.431373%,30.980392%,30.980392%);stroke-opacity:0.901961;stroke-miterlimit:10;" d="M 545.164062 176.6875 C 545.164062 179.828125 542.617188 182.375 539.472656 182.375 C 536.332031 182.375 533.785156 179.828125 533.785156 176.6875 C 533.785156 173.542969 536.332031 170.996094 539.472656 170.996094 C 542.617188 170.996094 545.164062 173.542969 545.164062 176.6875 "/>
<path style="fill-rule:nonzero;fill:rgb(18.431373%,30.980392%,30.980392%);fill-opacity:0.901961;stroke-width:0.708661;stroke-linecap:round;stroke-linejoin:round;stroke:rgb(18.431373%,30.980392%,30.980392%);stroke-opacity:0.901961;stroke-miterlimit:10;" d="M 496.679688 223.953125 C 496.679688 227.09375 494.132812 229.640625 490.992188 229.640625 C 487.847656 229.640625 485.300781 227.09375 485.300781 223.953125 C 485.300781 220.808594 487.847656 218.261719 490.992188 218.261719 C 494.132812 218.261719 496.679688 220.808594 496.679688 223.953125 "/>
<path style="fill-rule:nonzero;fill:rgb(18.431373%,30.980392%,30.980392%);fill-opacity:0.901961;stroke-width:0.708661;stroke-linecap:round;stroke-linejoin:round;stroke:rgb(18.431373%,30.980392%,30.980392%);stroke-opacity:0.901961;stroke-miterlimit:10;" d="M 359.328125 279.921875 C 359.328125 283.0625 356.78125 285.609375 353.640625 285.609375 C 350.496094 285.609375 347.949219 283.0625 347.949219 279.921875 C 347.949219 276.78125 350.496094 274.234375 353.640625 274.234375 C 356.78125 274.234375 359.328125 276.78125 359.328125 279.921875 "/>
<path style="fill-rule:nonzero;fill:rgb(18.431373%,30.980392%,30.980392%);fill-opacity:0.901961;stroke-width:0.708661;stroke-linecap:round;stroke-linejoin:round;stroke:rgb(18.431373%,30.980392%,30.980392%);stroke-opacity:0.901961;stroke-miterlimit:10;" d="M 376.203125 287.351562 C 376.203125 290.492188 373.65625 293.039062 370.511719 293.039062 C 367.371094 293.039062 364.824219 290.492188 364.824219 287.351562 C 364.824219 284.207031 367.371094 281.660156 370.511719 281.660156 C 373.65625 281.660156 376.203125 284.207031 376.203125 287.351562 "/>
<path style="fill:none;stroke-width:4.267913;stroke-linecap:butt;stroke-linejoin:round;stroke:rgb(100%,64.705882%,0%);stroke-opacity:0.901961;stroke-miterlimit:10;" d="M 0 190.777344 L 756 98.28125 "/>
</g>
</svg>
